<svg width="533" height="112" viewBox="0 0 533 112" fill="none" xmlns="http://www.w3.org/2000/svg">
<path d="M293.017 44.2267V58.1334C293.017 66.4767 299.403 73.2 307.11 73.2H336.833V63.9267H308.653C307.99 63.9267 307.33 63.46 307.33 62.5367V40.7467C307.33 39.82 307.77 39.12 308.653 39.12H336.833V29.3867H307.11C299.183 29.3867 293.017 35.8767 293.017 44.2234" fill="#0052A3"/>
<path d="M289.717 29.1567H272.983L266.377 37.27C264.617 39.1233 261.753 39.1233 259.99 37.27L253.383 29.1567H236.87L252.283 47.7033C254.047 49.5567 254.047 52.57 252.063 54.4233L236.87 73.2H253.383L259.99 65.09C261.533 63.4633 264.393 63.4633 266.377 65.32L272.983 73.43H289.717L274.303 54.6533C272.543 52.7967 272.543 49.7834 274.303 47.93L289.717 29.1534V29.1567Z" fill="#0052A3"/>
<path d="M218.817 29.1567H206.927H196.797C188.21 29.1567 181.167 35.88 181.167 44.2267V58.1333C181.167 66.4767 188.21 73.2 196.797 73.2H218.377C226.964 73.2 232.91 66.43 232.91 58.0267V44.0233C232.91 35.8567 227.407 29.1567 218.817 29.1567ZM206.927 63.46H196.797C195.917 63.46 195.257 62.7667 195.257 62.07V40.28C195.257 39.3533 195.917 38.6567 196.797 38.6567H217.057C217.937 38.6567 218.6 39.1233 218.6 40.0567L218.38 62.0567C218.38 62.7533 217.717 63.4567 216.837 63.4567H206.93L206.927 63.46Z" fill="#0052A3"/>
<path d="M131.184 43.9933V73.43H145.277V59.7534C145.277 57.4367 146.82 56.2767 148.58 56.2767H172.8V48.63H146.597C145.94 48.63 145.277 47.9334 145.277 47.0034V40.5133C145.277 39.5867 145.94 38.8867 146.597 38.8867H175V29.1534H144.394C137.13 29.1534 131.184 35.6433 131.184 43.99" fill="#0052A3"/>
<path d="M438.781 29.1567H401.351V73.2033H415.444V40.2833C415.444 39.3567 416.104 38.8933 416.764 38.8933H437.461C438.121 38.8933 438.781 39.59 438.781 40.2833V73.2033H452.874V43.9933C452.874 36.1133 446.051 29.1567 438.781 29.1567Z" fill="#0052A3"/>
<path d="M497.13 28.9233H459.7V72.97H473.794V40.2833C473.794 39.59 474.454 38.89 475.114 38.89H495.81C496.47 38.89 497.13 39.5867 497.13 40.2833V73.2H511.224V43.76C511.224 35.6467 504.4 28.9233 497.13 28.9233Z" fill="#0052A3"/>
<path d="M380.627 29.1567H368.737H358.607C350.02 29.1567 342.977 35.88 342.977 44.2267V58.1333C342.977 66.4767 350.02 73.2 358.607 73.2H380.187C388.773 73.2 394.72 66.43 394.72 58.0267V44.0233C394.72 35.8567 389.217 29.1567 380.627 29.1567ZM368.737 63.46H358.607C357.727 63.46 357.067 62.7667 357.067 62.07V40.28C357.067 39.3533 357.727 38.6567 358.607 38.6567H378.867C379.747 38.6567 380.41 39.1233 380.41 40.0567L380.19 62.07C380.19 62.7667 379.527 63.47 378.65 63.47L368.743 63.46H368.737Z" fill="#0052A3"/>
<path d="M521.45 29.6H526.407C527.224 29.6 527.897 29.7267 528.427 29.9767C529.434 30.4534 529.94 31.3367 529.94 32.6234C529.94 33.2934 529.804 33.8434 529.534 34.27C529.264 34.6967 528.887 35.04 528.404 35.3C528.83 35.48 529.147 35.7134 529.364 36.0034C529.58 36.2934 529.7 36.7667 529.724 37.4134L529.777 38.92C529.79 39.3467 529.824 39.6634 529.877 39.87C529.967 40.2267 530.127 40.46 530.354 40.5567V40.81H528.544C528.497 40.7134 528.454 40.5867 528.427 40.4334C528.4 40.28 528.374 39.9867 528.35 39.5467L528.264 37.68C528.23 36.9467 527.97 36.4567 527.49 36.2034C527.214 36.0667 526.784 35.9967 526.204 35.9967H522.934V40.8067H521.457V29.5934L521.45 29.6ZM526.247 34.7367C526.924 34.7367 527.457 34.5934 527.85 34.3067C528.24 34.02 528.437 33.51 528.437 32.7667C528.437 31.97 528.16 31.4234 527.614 31.1334C527.32 30.98 526.93 30.9034 526.44 30.9034H522.93V34.7367H526.25H526.247Z" fill="#0052A3"/>
<path d="M525.257 43.3C521.017 43.3 517.57 39.6667 517.57 35.2034C517.57 30.74 521.017 27.1067 525.257 27.1067C529.497 27.1067 532.944 30.74 532.944 35.2034C532.944 39.6667 529.497 43.3 525.257 43.3ZM525.257 27.6834C521.32 27.6834 518.117 31.0567 518.117 35.2034C518.117 39.35 521.32 42.7234 525.257 42.7234C529.194 42.7234 532.397 39.35 532.397 35.2034C532.397 31.0567 529.194 27.6834 525.257 27.6834Z" fill="#0052A3"/>
<path d="M130.457 108.94V90.9267H132.837V98.3267H142.2V90.9267H144.584V108.94H142.2V100.453H132.837V108.94H130.457Z" fill="#0052A3"/>
<path d="M144.84 109.21H141.947V100.72H133.097V109.21H130.2V90.66H133.097V98.0533H141.947V90.66H144.84V109.21ZM142.457 108.67H144.327V91.1967H142.457V98.59H132.584V91.1967H130.707V108.67H132.584V100.18H142.457V108.67Z" fill="#0052A3"/>
<path d="M147.83 100.17C147.83 97.1767 148.63 94.84 150.24 93.1467C151.843 91.4567 153.913 90.61 156.453 90.61C158.117 90.61 159.613 91.0034 160.953 91.8C162.287 92.5967 163.307 93.7 164.003 95.1234C164.707 96.5467 165.053 98.1567 165.053 99.96C165.053 101.763 164.687 103.42 163.947 104.863C163.21 106.303 162.167 107.393 160.813 108.137C159.46 108.873 158.003 109.247 156.437 109.247C154.743 109.247 153.23 108.84 151.89 108.02C150.557 107.2 149.547 106.083 148.857 104.663C148.17 103.247 147.823 101.747 147.823 100.167M150.28 100.203C150.28 102.377 150.863 104.083 152.03 105.333C153.197 106.583 154.663 107.207 156.427 107.207C158.19 107.207 159.693 106.573 160.857 105.313C162.013 104.05 162.593 102.26 162.593 99.9433C162.593 98.48 162.347 97.1934 161.85 96.1034C161.353 95.0134 160.63 94.1667 159.677 93.5634C158.72 92.9567 157.65 92.6567 156.463 92.6567C154.777 92.6567 153.323 93.2367 152.103 94.3967C150.887 95.5567 150.28 97.49 150.28 100.2" fill="#0052A3"/>
<path d="M156.44 109.52C154.707 109.52 153.133 109.093 151.767 108.253C150.393 107.41 149.343 106.247 148.633 104.79C147.93 103.34 147.573 101.787 147.573 100.173C147.573 97.1267 148.407 94.7 150.06 92.96C151.703 91.2267 153.857 90.3467 156.453 90.3467C158.157 90.3467 159.71 90.76 161.077 91.57C162.453 92.39 163.513 93.5433 164.23 95.0067C164.947 96.46 165.31 98.1267 165.31 99.9633C165.31 101.8 164.927 103.517 164.173 104.993C163.413 106.473 162.323 107.613 160.93 108.38C159.547 109.137 158.037 109.52 156.437 109.52M156.45 90.88C153.993 90.88 151.96 91.71 150.417 93.34C148.87 94.97 148.08 97.27 148.08 100.173C148.08 101.703 148.423 103.177 149.083 104.547C149.747 105.91 150.733 107 152.02 107.79C153.31 108.583 154.797 108.987 156.437 108.987C157.95 108.987 159.383 108.623 160.693 107.903C161.993 107.187 163.01 106.123 163.72 104.74C164.43 103.347 164.797 101.737 164.797 99.9667C164.797 98.1967 164.453 96.6333 163.77 95.2533C163.1 93.89 162.107 92.8067 160.82 92.0433C159.533 91.2733 158.06 90.8833 156.45 90.8833M156.427 107.483C154.603 107.483 153.067 106.827 151.85 105.533C150.64 104.24 150.03 102.45 150.03 100.213C150.03 97.4333 150.67 95.4133 151.937 94.2067C153.2 93.0067 154.72 92.4033 156.463 92.4033C157.693 92.4033 158.817 92.7167 159.81 93.3467C160.807 93.97 161.57 94.8633 162.083 96C162.59 97.1267 162.85 98.4533 162.85 99.9567C162.85 102.337 162.243 104.207 161.043 105.517C159.833 106.827 158.283 107.487 156.427 107.487M156.463 92.94C154.853 92.94 153.443 93.5 152.28 94.6167C151.127 95.7133 150.54 97.6 150.54 100.217C150.54 102.303 151.103 103.967 152.213 105.157C153.327 106.347 154.743 106.95 156.423 106.95C158.103 106.95 159.563 106.343 160.67 105.143C161.777 103.94 162.333 102.197 162.333 99.96C162.333 98.5367 162.093 97.2833 161.617 96.2367C161.147 95.2 160.45 94.38 159.54 93.8067C158.63 93.2367 157.593 92.9433 156.46 92.9433" fill="#0052A3"/>
<path d="M168.104 108.94V90.9267H170.547L180.007 105.067V90.9267H182.29V108.94H179.847L170.387 94.79V108.94H168.104Z" fill="#0052A3"/>
<path d="M182.547 109.21H179.714L179.637 109.097L170.644 95.64V109.21H167.844V90.66H170.68L170.76 90.7733L179.754 104.217V90.66H182.55V109.21H182.547ZM179.98 108.67H182.037V91.1967H180.264V105.92L170.414 91.1967H168.357V108.67H170.13V93.9333L179.98 108.67Z" fill="#0052A3"/>
<path d="M193.363 108.94V90.9267H195.75V98.3267H205.113V90.9267H207.493V108.94H205.113V100.453H195.75V108.94H193.363Z" fill="#0052A3"/>
<path d="M207.746 109.21H204.853V100.72H196V109.21H193.106V90.66H196V98.0533H204.853V90.66H207.746V109.21ZM205.363 108.67H207.236V91.1967H205.363V98.59H195.49V91.1967H193.616V108.67H195.49V100.18H205.363V108.67Z" fill="#0052A3"/>
<path d="M209.487 108.94L216.404 90.93H218.971L226.347 108.94H223.631L221.531 103.483H214.001L212.021 108.94H209.491H209.487ZM214.684 101.547H220.791L218.911 96.5567C218.337 95.04 217.914 93.7934 217.634 92.82C217.404 93.9734 217.081 95.12 216.661 96.26L214.684 101.543V101.547Z" fill="#0052A3"/>
<path d="M226.733 109.21H223.453L223.386 109.043L221.353 103.753H214.17L212.193 109.21H209.106L216.23 90.66H219.143L226.736 109.21H226.733ZM223.796 108.67H225.95L218.8 91.1967H216.576L209.866 108.67H211.84L213.82 103.213H221.7L221.763 103.38L223.796 108.667V108.67ZM221.163 101.81H214.303L216.42 96.16C216.833 95.0333 217.156 93.89 217.373 92.7633L217.58 91.7267L217.87 92.74C218.15 93.7133 218.58 94.96 219.143 96.4533L221.163 101.81ZM215.056 101.27H220.41L218.67 96.6533C218.266 95.5833 217.93 94.6433 217.67 93.8333C217.46 94.67 217.206 95.5233 216.896 96.3567L215.056 101.273V101.27Z" fill="#0052A3"/>
<path d="M231.037 90.9333H228.65V108.943H231.037V90.9333Z" fill="#0052A3"/>
<path d="M231.29 109.21H228.396V90.66H231.29V109.21ZM228.906 108.67H230.78V91.1967H228.906V108.67Z" fill="#0052A3"/>
<path d="M246.357 108.94V93.0567H240.424V90.9267H254.7V93.0567H248.74V108.94H246.357Z" fill="#0052A3"/>
<path d="M248.996 109.21H246.1V93.3233H240.163V90.66H254.953V93.3233H248.996V109.21ZM246.61 108.67H248.486V92.7833H254.443V91.2H240.676V92.7833H246.61V108.67Z" fill="#0052A3"/>
<path d="M257.197 108.94V90.9267H270.217V93.0567H259.577V98.57H269.541V100.683H259.577V106.817H270.634V108.94H257.197Z" fill="#0052A3"/>
<path d="M270.89 109.21H256.94V90.66H270.474V93.3233H259.834V98.3H269.797V100.953H259.834V106.547H270.894V109.213L270.89 109.21ZM257.45 108.67H270.38V107.08H259.324V100.41H269.287V98.84H259.324V92.7833H269.964V91.2H257.45V108.673V108.67Z" fill="#0052A3"/>
<path d="M286.78 102.623L289.163 103.23C288.663 105.187 287.767 106.68 286.467 107.707C285.17 108.733 283.583 109.247 281.707 109.247C279.83 109.247 278.19 108.853 276.97 108.063C275.753 107.27 274.83 106.127 274.193 104.627C273.557 103.127 273.243 101.517 273.243 99.7967C273.243 97.9267 273.6 96.2867 274.32 94.89C275.033 93.4967 276.053 92.4367 277.38 91.7067C278.7 90.9867 280.156 90.62 281.743 90.62C283.546 90.62 285.063 91.0833 286.29 91.9967C287.52 92.9167 288.377 94.2067 288.86 95.8667L286.513 96.42C286.1 95.11 285.49 94.1567 284.697 93.56C283.9 92.9633 282.9 92.6633 281.697 92.6633C280.313 92.6633 279.157 92.9967 278.227 93.66C277.297 94.32 276.647 95.2133 276.27 96.33C275.89 97.4467 275.703 98.6033 275.703 99.79C275.703 101.32 275.923 102.66 276.373 103.8C276.82 104.94 277.513 105.797 278.457 106.357C279.4 106.923 280.416 107.207 281.513 107.207C282.85 107.207 283.983 106.823 284.906 106.053C285.83 105.283 286.46 104.137 286.786 102.62" fill="#0052A3"/>
<path d="M281.707 109.52C279.731 109.52 278.091 109.107 276.837 108.297C275.581 107.477 274.617 106.287 273.964 104.743C273.317 103.217 272.987 101.557 272.987 99.8033C272.987 97.8867 273.361 96.19 274.094 94.7633C274.831 93.3267 275.897 92.22 277.264 91.4667C278.614 90.73 280.127 90.3533 281.747 90.3533C283.597 90.3533 285.177 90.8333 286.444 91.78C287.714 92.7267 288.611 94.0767 289.111 95.7867L289.194 96.0667L286.351 96.7367L286.277 96.51C285.877 95.26 285.297 94.3367 284.551 93.7767C283.807 93.2167 282.844 92.93 281.704 92.93C280.381 92.93 279.257 93.2567 278.377 93.88C277.497 94.51 276.871 95.3667 276.514 96.42C276.147 97.5033 275.961 98.6333 275.961 99.79C275.961 101.28 276.181 102.597 276.611 103.697C277.037 104.78 277.697 105.6 278.587 106.123C279.487 106.667 280.471 106.943 281.517 106.943C282.787 106.943 283.877 106.573 284.751 105.843C285.627 105.12 286.224 104.013 286.541 102.567L286.594 102.3L289.487 103.03L289.417 103.303C288.904 105.313 287.967 106.87 286.631 107.93C285.287 108.99 283.634 109.523 281.714 109.523M281.751 90.8967C280.214 90.8967 278.781 91.25 277.501 91.9533C276.231 92.6567 275.237 93.6867 274.547 95.0267C273.854 96.37 273.504 97.9833 273.504 99.8067C273.504 101.483 273.817 103.067 274.434 104.52C275.044 105.963 275.944 107.077 277.111 107.84C278.281 108.6 279.831 108.987 281.711 108.987C283.591 108.987 285.071 108.483 286.317 107.497C287.504 106.56 288.354 105.193 288.851 103.43L286.974 102.953C286.621 104.397 285.977 105.517 285.067 106.273C284.094 107.073 282.901 107.483 281.514 107.483C280.377 107.483 279.307 107.19 278.327 106.6C277.341 106.01 276.604 105.107 276.134 103.91C275.677 102.743 275.447 101.357 275.447 99.7933C275.447 98.5767 275.641 97.3833 276.027 96.2433C276.417 95.08 277.114 94.1333 278.084 93.44C279.051 92.7467 280.267 92.3933 281.697 92.3933C282.951 92.3933 284.007 92.71 284.841 93.3433C285.631 93.9333 286.251 94.86 286.681 96.1067L288.531 95.6733C288.054 94.21 287.251 93.0533 286.144 92.2233C284.967 91.3433 283.487 90.8967 281.747 90.8967" fill="#0052A3"/>
<path d="M292.174 108.94V90.9267H294.557V98.3267H303.92V90.9267H306.304V108.94H303.92V100.453H294.557V108.94H292.174Z" fill="#0052A3"/>
<path d="M306.557 109.21H303.664V100.72H294.81V109.21H291.917V90.66H294.81V98.0533H303.664V90.66H306.557V109.21ZM304.174 108.67H306.047V91.1967H304.174V98.59H294.3V91.1967H292.424V108.67H294.3V100.18H304.174V108.67Z" fill="#0052A3"/>
<path d="M310.247 108.94V90.9267H312.694L322.154 105.067V90.9267H324.437V108.94H321.994L312.53 94.79V108.94H310.247Z" fill="#0052A3"/>
<path d="M324.694 109.21H321.86L321.784 109.097L312.79 95.64V109.21H309.99V90.66H312.827L312.907 90.7733L321.9 104.217V90.66H324.697V109.21H324.694ZM322.127 108.67H324.184V91.1967H322.41V105.92L312.56 91.1967H310.504V108.67H312.277V93.9333L322.127 108.67Z" fill="#0052A3"/>
<path d="M327.721 100.17C327.721 97.1767 328.521 94.84 330.131 93.1467C331.734 91.4567 333.804 90.61 336.347 90.61C338.011 90.61 339.507 91.0034 340.844 91.8C342.177 92.5967 343.197 93.7 343.894 95.1234C344.597 96.5467 344.944 98.1567 344.944 99.96C344.944 101.763 344.577 103.42 343.837 104.863C343.101 106.303 342.057 107.393 340.704 108.137C339.351 108.873 337.897 109.247 336.327 109.247C334.634 109.247 333.117 108.84 331.781 108.02C330.444 107.2 329.434 106.083 328.747 104.663C328.057 103.247 327.714 101.747 327.714 100.167M330.171 100.203C330.171 102.377 330.754 104.083 331.921 105.333C333.087 106.583 334.554 107.207 336.314 107.207C338.074 107.207 339.584 106.573 340.744 105.313C341.901 104.05 342.481 102.26 342.481 99.9433C342.481 98.48 342.234 97.1934 341.734 96.1034C341.241 95.0134 340.514 94.1667 339.561 93.5634C338.604 92.9567 337.534 92.6567 336.347 92.6567C334.657 92.6567 333.207 93.2367 331.987 94.3967C330.771 95.5567 330.164 97.49 330.164 100.2" fill="#0052A3"/>
<path d="M336.33 109.52C334.597 109.52 333.023 109.093 331.657 108.253C330.283 107.41 329.233 106.247 328.523 104.79C327.817 103.34 327.467 101.787 327.467 100.173C327.467 97.1267 328.3 94.7 329.947 92.96C331.593 91.2267 333.743 90.3467 336.343 90.3467C338.047 90.3467 339.6 90.76 340.97 91.57C342.347 92.39 343.403 93.5433 344.123 95.0067C344.84 96.46 345.203 98.1267 345.203 99.9633C345.203 101.8 344.823 103.517 344.067 104.993C343.31 106.473 342.22 107.613 340.827 108.38C339.443 109.137 337.933 109.52 336.333 109.52M336.347 90.88C333.89 90.88 331.857 91.71 330.313 93.34C328.767 94.97 327.977 97.27 327.977 100.173C327.977 101.703 328.32 103.177 328.98 104.547C329.643 105.91 330.63 107 331.917 107.79C333.207 108.583 334.693 108.987 336.333 108.987C337.85 108.987 339.28 108.623 340.593 107.903C341.893 107.187 342.91 106.123 343.62 104.74C344.33 103.347 344.693 101.737 344.693 99.9667C344.693 98.1967 344.35 96.6333 343.67 95.2533C343 93.89 342.007 92.8067 340.72 92.0433C339.433 91.2733 337.96 90.8833 336.35 90.8833M336.327 107.483C334.503 107.483 332.963 106.827 331.75 105.533C330.54 104.24 329.927 102.45 329.927 100.213C329.927 97.4333 330.567 95.4133 331.833 94.2067C333.097 93.0067 334.617 92.4033 336.36 92.4033C337.59 92.4033 338.713 92.7167 339.707 93.3467C340.703 93.97 341.467 94.8633 341.98 96C342.487 97.1267 342.747 98.4533 342.747 99.9567C342.747 102.337 342.137 104.207 340.937 105.517C339.73 106.827 338.177 107.487 336.323 107.487M336.36 92.94C334.75 92.94 333.34 93.5 332.177 94.6167C331.023 95.7133 330.437 97.6 330.437 100.217C330.437 102.303 331 103.967 332.113 105.157C333.227 106.347 334.643 106.95 336.323 106.95C338.003 106.95 339.463 106.343 340.567 105.143C341.673 103.94 342.237 102.197 342.237 99.96C342.237 98.5367 341.993 97.2833 341.517 96.2367C341.047 95.2 340.35 94.38 339.44 93.8067C338.53 93.2367 337.497 92.9433 336.36 92.9433" fill="#0052A3"/>
<path d="M347.917 108.94V90.9267H350.304V106.817H359.174V108.94H347.917Z" fill="#0052A3"/>
<path d="M359.43 109.21H347.667V90.66H350.56V106.543H359.43V109.21ZM348.177 108.67H358.92V107.08H350.05V91.1967H348.177V108.67Z" fill="#0052A3"/>
<path d="M361.287 100.17C361.287 97.1767 362.087 94.84 363.697 93.1467C365.3 91.4567 367.37 90.61 369.914 90.61C371.577 90.61 373.074 91.0034 374.41 91.8C375.744 92.5967 376.764 93.7 377.46 95.1234C378.164 96.5467 378.51 98.1567 378.51 99.96C378.51 101.763 378.144 103.42 377.404 104.863C376.667 106.303 375.624 107.393 374.27 108.137C372.917 108.873 371.464 109.247 369.894 109.247C368.2 109.247 366.684 108.84 365.347 108.02C364.01 107.2 363 106.083 362.314 104.663C361.624 103.247 361.28 101.747 361.28 100.167M363.737 100.203C363.737 102.377 364.32 104.083 365.487 105.333C366.654 106.583 368.12 107.207 369.88 107.207C371.64 107.207 373.15 106.573 374.31 105.313C375.467 104.05 376.047 102.26 376.047 99.9433C376.047 98.48 375.8 97.1934 375.3 96.1034C374.807 95.0134 374.08 94.1667 373.127 93.5634C372.17 92.9567 371.1 92.6567 369.914 92.6567C368.224 92.6567 366.774 93.2367 365.554 94.3967C364.337 95.5567 363.73 97.49 363.73 100.2" fill="#0052A3"/>
<path d="M369.897 109.52C368.163 109.52 366.59 109.093 365.223 108.253C363.85 107.41 362.8 106.247 362.09 104.79C361.383 103.34 361.033 101.787 361.033 100.173C361.033 97.1267 361.867 94.7 363.517 92.96C365.16 91.2267 367.313 90.3467 369.91 90.3467C371.613 90.3467 373.167 90.76 374.533 91.57C375.91 92.39 376.967 93.5433 377.687 95.0067C378.403 96.46 378.767 98.1267 378.767 99.9633C378.767 101.8 378.387 103.517 377.63 104.993C376.873 106.473 375.783 107.613 374.39 108.38C373.007 109.137 371.497 109.52 369.897 109.52ZM369.91 90.88C367.453 90.88 365.42 91.71 363.88 93.34C362.33 94.97 361.543 97.27 361.543 100.173C361.543 101.703 361.887 103.177 362.547 104.547C363.21 105.91 364.197 107 365.483 107.79C366.773 108.583 368.26 108.987 369.9 108.987C371.417 108.987 372.847 108.623 374.16 107.903C375.46 107.187 376.477 106.123 377.187 104.74C377.897 103.347 378.26 101.737 378.26 99.9667C378.26 98.1967 377.917 96.6333 377.237 95.2533C376.567 93.89 375.573 92.8067 374.287 92.0433C373 91.2733 371.527 90.8833 369.917 90.8833M369.893 107.483C368.07 107.483 366.53 106.827 365.317 105.533C364.107 104.24 363.493 102.45 363.493 100.213C363.493 97.4333 364.133 95.4133 365.4 94.2067C366.663 93.0067 368.183 92.4033 369.927 92.4033C371.157 92.4033 372.28 92.7167 373.273 93.3467C374.27 93.97 375.033 94.8633 375.55 96C376.057 97.1267 376.317 98.4533 376.317 99.9567C376.317 102.337 375.707 104.207 374.507 105.517C373.3 106.827 371.747 107.487 369.893 107.487M369.93 92.94C368.32 92.94 366.91 93.5 365.747 94.6167C364.593 95.7133 364.007 97.6 364.007 100.217C364.007 102.303 364.57 103.967 365.68 105.157C366.793 106.347 368.21 106.95 369.89 106.95C371.57 106.95 373.03 106.343 374.133 105.143C375.24 103.94 375.8 102.197 375.8 99.96C375.8 98.5367 375.56 97.2833 375.083 96.2367C374.613 95.2 373.917 94.38 373.007 93.8067C372.097 93.2367 371.06 92.9433 369.927 92.9433" fill="#0052A3"/>
<path d="M390.014 101.877V99.7667L397.644 99.75V106.437C396.471 107.37 395.267 108.077 394.017 108.543C392.771 109.013 391.494 109.253 390.184 109.253C388.414 109.253 386.807 108.873 385.364 108.113C383.917 107.357 382.824 106.26 382.087 104.827C381.35 103.397 380.98 101.793 380.98 100.023C380.98 98.2533 381.347 96.6367 382.08 95.1167C382.814 93.6 383.87 92.4667 385.247 91.7333C386.624 90.9967 388.21 90.63 390 90.63C391.304 90.63 392.48 90.8367 393.534 91.26C394.584 91.6867 395.41 92.27 396.01 93.0267C396.607 93.7767 397.06 94.76 397.377 95.9733L395.224 96.5633C394.954 95.65 394.62 94.9233 394.214 94.4C393.814 93.88 393.24 93.4567 392.494 93.14C391.747 92.8267 390.921 92.67 390.014 92.67C388.927 92.67 387.981 92.8367 387.187 93.1667C386.391 93.4967 385.751 93.9333 385.264 94.4767C384.777 95.0167 384.394 95.61 384.127 96.2567C383.667 97.3733 383.44 98.58 383.44 99.8833C383.44 101.487 383.717 102.83 384.267 103.913C384.821 104.997 385.627 105.797 386.681 106.323C387.741 106.85 388.86 107.107 390.05 107.107C391.08 107.107 392.087 106.907 393.074 106.513C394.054 106.113 394.801 105.693 395.307 105.24V101.883H390.01L390.014 101.877Z" fill="#0052A3"/>
<path d="M390.187 109.52C388.387 109.52 386.727 109.127 385.25 108.357C383.76 107.573 382.62 106.433 381.863 104.957C381.11 103.493 380.727 101.833 380.727 100.02C380.727 98.2067 381.107 96.5433 381.857 94.9933C382.61 93.4267 383.713 92.2467 385.13 91.49C386.537 90.7333 388.177 90.3533 390 90.3533C391.33 90.3533 392.547 90.57 393.627 91.0067C394.713 91.44 395.58 92.0567 396.207 92.8433C396.827 93.6267 397.303 94.6533 397.623 95.8967L397.69 96.16L395.053 96.8833L394.98 96.64C394.72 95.76 394.393 95.0633 394.013 94.5667C393.64 94.0767 393.097 93.6833 392.4 93.39C391.687 93.0867 390.88 92.9333 390.013 92.9333C388.957 92.9333 388.037 93.0967 387.28 93.4133C386.527 93.73 385.91 94.1467 385.45 94.66C384.98 95.18 384.617 95.7567 384.36 96.3633C383.92 97.4367 383.697 98.6167 383.697 99.88C383.697 101.433 383.967 102.747 384.493 103.783C385.02 104.807 385.793 105.577 386.793 106.073C388.7 107.013 390.933 107.083 392.983 106.253C393.877 105.897 394.57 105.507 395.057 105.103V102.147H389.76V99.4967L397.9 99.48V106.577L397.797 106.657C396.607 107.603 395.363 108.327 394.103 108.803C392.833 109.283 391.517 109.523 390.187 109.523M390 90.8967C388.257 90.8967 386.697 91.26 385.363 91.9733C384.043 92.68 383.013 93.78 382.31 95.2367C381.6 96.7133 381.24 98.32 381.24 100.023C381.24 101.727 381.603 103.313 382.313 104.7C383.02 106.077 384.083 107.147 385.473 107.873C386.88 108.61 388.463 108.983 390.183 108.983C391.453 108.983 392.713 108.747 393.93 108.29C395.103 107.847 396.267 107.177 397.383 106.303V100.023L390.267 100.037V101.607H395.563V105.36L395.473 105.437C394.943 105.907 394.17 106.35 393.163 106.76C390.987 107.64 388.607 107.567 386.57 106.56C385.47 106.013 384.62 105.16 384.04 104.033C383.467 102.92 383.18 101.52 383.18 99.8767C383.18 98.54 383.42 97.2867 383.89 96.1467C384.167 95.4767 384.567 94.8533 385.073 94.2867C385.587 93.72 386.263 93.26 387.087 92.91C387.907 92.57 388.89 92.3933 390.01 92.3933C390.947 92.3933 391.81 92.56 392.587 92.8867C393.367 93.2133 393.983 93.6667 394.413 94.2267C394.797 94.7233 395.123 95.4 395.39 96.2333L397.053 95.7767C396.757 94.73 396.34 93.86 395.81 93.1967C395.243 92.48 394.447 91.9167 393.44 91.5167C392.423 91.1033 391.263 90.8967 389.997 90.8967" fill="#0052A3"/>
<path d="M406.234 108.94V101.31L399.294 90.9267H402.194L405.744 96.36C406.401 97.3733 407.014 98.39 407.577 99.4067C408.121 98.46 408.774 97.4 409.544 96.2233L413.034 90.9267H415.811L408.621 101.31V108.94H406.237H406.234Z" fill="#0052A3"/>
<path d="M408.871 109.21H405.977V101.397L398.794 90.66H402.324L405.951 96.2067C406.524 97.09 407.067 97.99 407.571 98.8833C408.064 98.0467 408.641 97.1233 409.324 96.07L412.891 90.66H416.304L408.867 101.4V109.21H408.871ZM406.487 108.67H408.361V101.223L408.407 101.15L415.297 91.1967H413.161L409.747 96.3767C408.961 97.58 408.321 98.6167 407.794 99.5467L407.571 99.9367L407.354 99.5433C406.791 98.53 406.177 97.5133 405.527 96.51L402.054 91.2H399.784L406.487 101.223V108.67Z" fill="#0052A3"/>
<path d="M432.906 101.877V99.7667L440.536 99.75V106.437C439.363 107.37 438.16 108.077 436.91 108.543C435.666 109.013 434.386 109.253 433.076 109.253C431.306 109.253 429.7 108.873 428.256 108.113C426.81 107.357 425.716 106.26 424.98 104.827C424.243 103.397 423.873 101.793 423.873 100.023C423.873 98.2533 424.24 96.6367 424.973 95.1167C425.706 93.6 426.763 92.4667 428.14 91.7333C429.516 90.9967 431.103 90.63 432.893 90.63C434.2 90.63 435.373 90.8367 436.43 91.26C437.48 91.6867 438.306 92.27 438.903 93.0267C439.5 93.7767 439.953 94.76 440.27 95.9733L438.116 96.5633C437.846 95.65 437.513 94.9233 437.106 94.4C436.706 93.88 436.133 93.4567 435.39 93.14C434.643 92.8267 433.816 92.67 432.906 92.67C431.82 92.67 430.873 92.8367 430.08 93.1667C429.283 93.4967 428.643 93.9333 428.156 94.4767C427.67 95.0167 427.286 95.61 427.02 96.2567C426.56 97.3733 426.333 98.58 426.333 99.8833C426.333 101.487 426.61 102.83 427.16 103.913C427.713 104.997 428.52 105.797 429.573 106.323C430.633 106.85 431.753 107.107 432.943 107.107C433.973 107.107 434.98 106.907 435.966 106.513C436.95 106.113 437.693 105.693 438.2 105.24V101.883H432.903L432.906 101.877Z" fill="#0052A3"/>
<path d="M433.08 109.52C431.283 109.52 429.623 109.127 428.146 108.357C426.656 107.573 425.516 106.433 424.76 104.957C424.003 103.493 423.623 101.833 423.623 100.02C423.623 98.2067 424.003 96.5433 424.753 94.9933C425.506 93.4267 426.61 92.2467 428.026 91.49C429.436 90.7333 431.073 90.3533 432.896 90.3533C434.226 90.3533 435.443 90.57 436.523 91.0067C437.61 91.44 438.476 92.0567 439.103 92.8433C439.723 93.6267 440.2 94.6533 440.516 95.8967L440.586 96.16L437.95 96.8833L437.88 96.64C437.62 95.76 437.293 95.0633 436.913 94.5667C436.54 94.0767 435.996 93.6833 435.3 93.39C434.586 93.0867 433.78 92.9333 432.913 92.9333C431.856 92.9333 430.936 93.0967 430.18 93.4133C429.426 93.73 428.81 94.1467 428.35 94.66C427.88 95.18 427.516 95.7567 427.26 96.3633C426.82 97.4367 426.596 98.6167 426.596 99.88C426.596 101.433 426.866 102.747 427.393 103.783C427.92 104.807 428.693 105.577 429.693 106.073C431.6 107.013 433.836 107.083 435.883 106.253C436.776 105.897 437.47 105.507 437.956 105.103V102.147H432.66V99.4967L440.8 99.48V106.577L440.7 106.657C439.51 107.603 438.266 108.327 437.006 108.803C435.736 109.283 434.42 109.523 433.086 109.523M432.903 90.8967C431.16 90.8967 429.6 91.26 428.266 91.9733C426.943 92.68 425.916 93.78 425.213 95.2367C424.503 96.7133 424.143 98.32 424.143 100.023C424.143 101.727 424.506 103.313 425.22 104.7C425.926 106.077 426.99 107.147 428.38 107.873C429.786 108.61 431.37 108.983 433.09 108.983C434.363 108.983 435.623 108.747 436.836 108.29C438.01 107.847 439.173 107.177 440.29 106.303V100.023L433.173 100.037V101.607H438.47V105.36L438.38 105.437C437.85 105.907 437.076 106.35 436.07 106.76C433.893 107.64 431.516 107.567 429.476 106.56C428.376 106.013 427.526 105.16 426.946 104.033C426.376 102.92 426.09 101.52 426.09 99.8767C426.09 98.54 426.33 97.2867 426.8 96.1467C427.076 95.4767 427.476 94.8533 427.983 94.2867C428.496 93.72 429.173 93.26 429.996 92.91C430.816 92.57 431.8 92.3933 432.92 92.3933C433.856 92.3933 434.72 92.56 435.496 92.8867C436.276 93.2133 436.893 93.6667 437.323 94.2267C437.706 94.7233 438.033 95.4 438.3 96.2333L439.963 95.7767C439.666 94.73 439.25 93.86 438.72 93.1967C438.153 92.48 437.356 91.9167 436.35 91.5167C435.333 91.1033 434.173 90.8967 432.906 90.8967" fill="#0052A3"/>
<path d="M444.087 108.943V90.9267H452.074C453.68 90.9267 454.9 91.09 455.737 91.41C456.577 91.7367 457.244 92.3067 457.74 93.1267C458.244 93.9467 458.49 94.8533 458.49 95.8433C458.49 97.12 458.08 98.1967 457.25 99.07C456.424 99.95 455.144 100.507 453.414 100.747C454.044 101.05 454.524 101.343 454.854 101.64C455.547 102.283 456.207 103.08 456.83 104.04L459.964 108.943H456.967L454.584 105.193C453.884 104.11 453.31 103.283 452.86 102.707C452.41 102.137 452.01 101.733 451.65 101.507C451.29 101.277 450.93 101.117 450.56 101.027C450.29 100.967 449.847 100.94 449.237 100.94H446.47V108.94H444.087V108.943ZM446.47 98.8767H451.594C452.684 98.8767 453.534 98.7633 454.15 98.5367C454.767 98.3133 455.234 97.9533 455.55 97.46C455.874 96.9633 456.03 96.4233 456.03 95.8433C456.03 94.9867 455.717 94.29 455.1 93.7433C454.484 93.19 453.504 92.92 452.17 92.92H446.467V98.88L446.47 98.8767Z" fill="#0052A3"/>
<path d="M460.443 109.21H456.823L454.367 105.343C453.683 104.287 453.11 103.46 452.66 102.883C452.227 102.33 451.84 101.947 451.517 101.737C451.18 101.52 450.85 101.373 450.503 101.287C450.257 101.237 449.823 101.207 449.233 101.207H446.723V109.207H443.83V90.6567H452.073C453.727 90.6567 454.95 90.82 455.823 91.1533C456.707 91.4967 457.423 92.11 457.953 92.9767C458.477 93.8333 458.74 94.7967 458.74 95.8367C458.74 97.1867 458.3 98.3367 457.427 99.2567C456.693 100.037 455.62 100.58 454.23 100.873C454.547 101.06 454.81 101.243 455.017 101.43C455.727 102.083 456.407 102.907 457.043 103.88L460.443 109.203V109.21ZM457.1 108.67H459.48L456.617 104.187C456.013 103.253 455.36 102.467 454.68 101.84C454.377 101.567 453.913 101.28 453.303 100.99L452.49 100.597L453.377 100.48C455.04 100.25 456.28 99.7133 457.06 98.8833C457.833 98.0667 458.23 97.04 458.23 95.8467C458.23 94.91 457.99 94.0433 457.52 93.2733C457.047 92.5 456.433 91.9733 455.647 91.6667C454.843 91.36 453.643 91.2 452.073 91.2H444.34V108.673H446.217V100.677H449.237C449.863 100.677 450.327 100.703 450.613 100.767C451.017 100.867 451.41 101.033 451.787 101.277C452.167 101.52 452.583 101.933 453.057 102.537C453.52 103.13 454.103 103.973 454.793 105.04L457.1 108.67ZM451.593 99.1433H446.217V92.65H452.173C453.563 92.65 454.607 92.95 455.27 93.5333C455.947 94.1367 456.287 94.91 456.287 95.8433C456.287 96.4767 456.11 97.07 455.763 97.61C455.413 98.1533 454.9 98.5533 454.233 98.7967C453.593 99.0333 452.707 99.1467 451.593 99.1467M446.727 98.6067H451.593C452.647 98.6067 453.48 98.4967 454.067 98.2867C454.633 98.0767 455.05 97.76 455.337 97.31C455.63 96.8567 455.773 96.3767 455.773 95.8467C455.773 95.0733 455.497 94.4533 454.94 93.95C454.373 93.4467 453.44 93.19 452.173 93.19H446.727V98.61V98.6067Z" fill="#0052A3"/>
<path d="M461.5 100.17C461.5 97.1767 462.3 94.84 463.91 93.1467C465.513 91.4567 467.583 90.61 470.127 90.61C471.79 90.61 473.287 91.0034 474.623 91.8C475.957 92.5967 476.977 93.7 477.673 95.1234C478.377 96.5467 478.723 98.1567 478.723 99.96C478.723 101.763 478.356 103.42 477.616 104.863C476.88 106.303 475.836 107.393 474.483 108.137C473.13 108.873 471.676 109.247 470.106 109.247C468.413 109.247 466.897 108.84 465.56 108.02C464.223 107.2 463.213 106.083 462.526 104.663C461.836 103.247 461.493 101.747 461.493 100.167M463.95 100.203C463.95 102.377 464.533 104.083 465.7 105.333C466.866 106.583 468.333 107.207 470.093 107.207C471.853 107.207 473.363 106.573 474.523 105.313C475.68 104.05 476.26 102.26 476.26 99.9433C476.26 98.48 476.013 97.1934 475.513 96.1034C475.02 95.0134 474.293 94.1667 473.34 93.5634C472.383 92.9567 471.313 92.6567 470.127 92.6567C468.437 92.6567 466.987 93.2367 465.767 94.3967C464.55 95.5567 463.943 97.49 463.943 100.2" fill="#0052A3"/>
<path d="M470.11 109.52C468.377 109.52 466.804 109.093 465.437 108.253C464.064 107.41 463.014 106.247 462.304 104.79C461.597 103.34 461.247 101.787 461.247 100.173C461.247 97.1267 462.08 94.7 463.727 92.96C465.374 91.2267 467.524 90.3467 470.124 90.3467C471.827 90.3467 473.38 90.76 474.747 91.57C476.124 92.39 477.18 93.5433 477.9 95.0067C478.617 96.46 478.98 98.1267 478.98 99.9633C478.98 101.8 478.6 103.517 477.844 104.993C477.087 106.473 475.997 107.613 474.604 108.38C473.22 109.137 471.71 109.52 470.11 109.52ZM470.124 90.88C467.667 90.88 465.634 91.71 464.09 93.34C462.544 94.97 461.754 97.27 461.754 100.173C461.754 101.703 462.097 103.177 462.757 104.547C463.42 105.91 464.407 107 465.694 107.79C466.984 108.583 468.47 108.987 470.11 108.987C471.627 108.987 473.057 108.623 474.37 107.903C475.67 107.187 476.687 106.123 477.397 104.74C478.107 103.347 478.47 101.737 478.47 99.9667C478.47 98.1967 478.127 96.6333 477.447 95.2533C476.777 93.89 475.784 92.8067 474.497 92.0433C473.21 91.2733 471.737 90.8833 470.127 90.8833M470.104 107.483C468.28 107.483 466.74 106.827 465.527 105.533C464.317 104.24 463.704 102.45 463.704 100.213C463.704 97.4333 464.344 95.4133 465.61 94.2067C466.874 93.0067 468.394 92.4033 470.137 92.4033C471.367 92.4033 472.49 92.7167 473.484 93.3467C474.48 93.97 475.244 94.8633 475.757 96C476.264 97.1267 476.524 98.4533 476.524 99.9567C476.524 102.337 475.914 104.207 474.714 105.517C473.507 106.827 471.954 107.487 470.1 107.487M470.137 92.94C468.527 92.94 467.117 93.5 465.954 94.6167C464.8 95.7133 464.214 97.6 464.214 100.217C464.214 102.303 464.777 103.967 465.887 105.157C467 106.347 468.417 106.95 470.097 106.95C471.777 106.95 473.237 106.343 474.34 105.143C475.447 103.94 476.007 102.197 476.007 99.96C476.007 98.5367 475.767 97.2833 475.29 96.2367C474.82 95.2 474.124 94.38 473.214 93.8067C472.304 93.2367 471.27 92.9433 470.134 92.9433" fill="#0052A3"/>
<path d="M493.617 90.9267H496V101.337C496 103.147 495.797 104.583 495.39 105.65C494.977 106.713 494.237 107.58 493.17 108.243C492.104 108.913 490.7 109.243 488.964 109.243C487.227 109.243 485.897 108.953 484.824 108.37C483.75 107.79 482.984 106.947 482.524 105.847C482.067 104.743 481.837 103.24 481.837 101.333V90.9233H484.22V101.32C484.22 102.883 484.367 104.037 484.657 104.78C484.95 105.517 485.447 106.093 486.157 106.497C486.867 106.897 487.73 107.1 488.754 107.1C490.507 107.1 491.757 106.7 492.5 105.903C493.244 105.11 493.617 103.58 493.617 101.32V90.9233V90.9267Z" fill="#0052A3"/>
<path d="M488.96 109.52C487.243 109.52 485.81 109.217 484.703 108.62C483.58 108.01 482.767 107.117 482.29 105.963C481.817 104.827 481.58 103.273 481.58 101.34V90.6633H484.473V101.327C484.473 102.847 484.613 103.98 484.89 104.683C485.16 105.363 485.627 105.897 486.273 106.263C486.943 106.64 487.773 106.833 488.75 106.833C490.423 106.833 491.623 106.457 492.317 105.72C493.007 104.983 493.36 103.507 493.36 101.327V90.6633H496.257V101.34C496.257 103.173 496.047 104.663 495.623 105.753C495.19 106.87 494.41 107.787 493.3 108.48C492.193 109.173 490.733 109.52 488.96 109.52ZM482.09 91.2V101.337C482.09 103.197 482.317 104.677 482.76 105.743C483.19 106.78 483.923 107.587 484.94 108.14C485.973 108.697 487.323 108.983 488.96 108.983C490.597 108.983 492.017 108.657 493.04 108.013C494.053 107.383 494.763 106.557 495.15 105.55C495.543 104.523 495.743 103.103 495.743 101.34V91.2033H493.873V101.327C493.873 103.687 493.483 105.247 492.683 106.1C491.887 106.943 490.567 107.373 488.75 107.373C487.69 107.373 486.777 107.16 486.03 106.74C485.273 106.313 484.73 105.69 484.417 104.893C484.11 104.11 483.963 102.947 483.963 101.33V91.2067H482.087L482.09 91.2Z" fill="#0052A3"/>
<path d="M499.967 108.94V90.9333H506.76C507.957 90.9333 508.87 90.9867 509.5 91.1067C510.383 91.25 511.127 91.5333 511.727 91.9433C512.323 92.36 512.803 92.94 513.17 93.6833C513.533 94.43 513.717 95.25 513.717 96.1434C513.717 97.6767 513.23 98.97 512.253 100.033C511.28 101.093 509.52 101.623 506.973 101.623H502.35V108.943H499.967V108.94ZM502.35 99.4934H507.007C508.547 99.4934 509.643 99.2034 510.287 98.6334C510.933 98.06 511.257 97.2534 511.257 96.21C511.257 95.46 511.067 94.81 510.683 94.2767C510.303 93.7433 509.803 93.3834 509.18 93.2134C508.777 93.1034 508.037 93.0534 506.957 93.0534H502.347V99.49L502.35 99.4934Z" fill="#0052A3"/>
<path d="M502.607 109.21H499.714V90.66H506.764C507.987 90.66 508.901 90.7133 509.544 90.8333C510.457 90.9867 511.244 91.2867 511.867 91.72C512.497 92.15 513.014 92.7767 513.397 93.5567C513.781 94.34 513.971 95.21 513.971 96.1367C513.971 97.73 513.457 99.1033 512.441 100.217C511.421 101.32 509.577 101.883 506.971 101.883H502.607V109.21ZM500.227 108.67H502.097V101.343H506.971C509.437 101.343 511.154 100.837 512.071 99.84C512.994 98.83 513.461 97.5867 513.461 96.1367C513.461 95.2933 513.287 94.51 512.941 93.8C512.597 93.0967 512.141 92.55 511.584 92.1667C511.017 91.7767 510.304 91.5067 509.461 91.3667C508.851 91.2533 507.944 91.2 506.764 91.2H500.224V108.673L500.227 108.67ZM507.011 99.76H502.101V92.7867H506.964C508.077 92.7867 508.827 92.8367 509.251 92.95C509.927 93.1367 510.484 93.53 510.901 94.1133C511.311 94.6933 511.521 95.4 511.521 96.21C511.521 97.3267 511.164 98.21 510.457 98.8367C509.764 99.4533 508.607 99.76 507.011 99.76ZM502.611 99.22H507.011C508.481 99.22 509.531 98.9533 510.127 98.4233C510.721 97.9033 511.007 97.1733 511.007 96.21C511.007 95.5167 510.831 94.9233 510.487 94.44C510.141 93.9467 509.694 93.63 509.121 93.4767C508.747 93.3767 508.021 93.3233 506.964 93.3233H502.611V99.2233V99.22Z" fill="#0052A3"/>
<path fill-rule="evenodd" clip-rule="evenodd" d="M88.7897 101.12H69.413V80.4867C69.413 75.3834 64.7897 70.7467 59.943 70.7467H40.1264C35.0664 70.7467 30.2197 75.3834 30.2197 80.4867V101.35H10.623V19.5167H30.2197V50.1167H74.0364C81.083 50.1167 88.7897 58.4634 88.7897 65.88V101.12Z" fill="white" stroke="white" stroke-width="6.78" stroke-miterlimit="10"/>
<path fill-rule="evenodd" clip-rule="evenodd" d="M59.6702 9.30667V39.9067H40.0735V9.30667H0.883489L0.660156 111.54H39.8535V80.7067H59.2302L59.4502 111.303H98.6402V9.30667H59.6702ZM88.7335 101.107H69.3602V80.4733C69.3602 75.37 64.7368 70.7333 59.8902 70.7333H40.0735C35.0102 70.7333 30.1668 75.37 30.1668 80.4733V101.337H10.5702V19.5067H30.1668V50.1067H73.9835C81.0268 50.1067 88.7335 58.45 88.7335 65.8733V101.107Z" fill="#E73534"/>
<path d="M106.69 2.80335H112.09C112.98 2.80335 113.714 2.94002 114.294 3.21002C115.387 3.73336 115.937 4.69335 115.937 6.09668C115.937 6.83002 115.79 7.43002 115.497 7.89335C115.204 8.36002 114.79 8.73669 114.264 9.01669C114.727 9.21335 115.077 9.46669 115.314 9.78336C115.547 10.1 115.68 10.61 115.704 11.32L115.76 12.96C115.777 13.4267 115.817 13.77 115.874 14C115.974 14.3867 116.144 14.6367 116.39 14.7467V15.02H114.417C114.36 14.9167 114.317 14.78 114.287 14.61C114.257 14.4434 114.23 14.1234 114.207 13.6467L114.107 11.61C114.074 10.8134 113.794 10.2767 113.267 10.0034C112.97 9.85335 112.5 9.78002 111.864 9.78002H108.3V15.02H106.69V2.80002V2.80335ZM111.92 8.40336C112.657 8.40336 113.237 8.24669 113.664 7.93669C114.09 7.63002 114.304 7.06669 114.304 6.25669C114.304 5.38669 114.004 4.79335 113.41 4.47668C113.087 4.31002 112.664 4.22668 112.13 4.22668H108.304V8.40336H111.924H111.92Z" fill="#E73534"/>
<path d="M110.836 17.7333C106.213 17.7333 102.453 13.7767 102.453 8.91001C102.453 4.04334 106.213 0.0833435 110.836 0.0833435C115.46 0.0833435 119.216 4.04334 119.216 8.91001C119.216 13.7767 115.456 17.7333 110.836 17.7333ZM110.836 0.716677C106.543 0.716677 103.053 4.39334 103.053 8.91001C103.053 13.4267 106.543 17.1033 110.836 17.1033C115.13 17.1033 118.616 13.43 118.616 8.91001C118.616 4.39001 115.126 0.716677 110.836 0.716677Z" fill="#E73534"/>
</svg>
