<svg width="437" height="115" viewBox="0 0 437 115" fill="none" xmlns="http://www.w3.org/2000/svg">
<path d="M291.628 36.5187V14.0028H283.568V36.5187H260.414V44.5968H283.568V67.7505H291.628V44.5968H314.162V36.5187H291.628Z" fill="#7AB800"/>
<path d="M75.8226 24.3307C73.2361 21.6557 69.268 20.4511 63.7763 20.4511H46.7875V30.2121H63.1031C68.5239 30.2121 69.5691 31.5585 69.64 35.2609V39.0697H58.8515C52.7398 39.0697 48.2224 40.2566 45.1577 42.7367C42.093 45.2168 40.6758 48.9902 40.6758 53.9681C40.6758 59.6724 42.1107 63.2862 44.8743 65.4475C47.6378 67.6087 51.606 68.2642 56.6371 68.2642C57.7709 68.2642 58.94 68.2642 60.1801 68.1756C64.1926 68.1809 67.9801 66.2872 70.384 63.0737V67.4316H79.4542V36.6959C79.4542 31.0802 78.3381 27.0234 75.7517 24.2953M69.6577 48.193V50.4782C69.6577 53.4012 67.7267 58.7157 59.5601 58.8043H58.4795C52.35 58.8043 50.3659 58.326 50.2596 53.8618V53.6846C50.2596 49.8228 52.0312 48.2461 58.2314 48.193H69.6577Z" fill="#636466"/>
<path d="M124.096 23.0198C120.643 20.7186 116.526 19.622 112.386 19.9019H110.509C106.126 19.7195 101.973 21.9356 99.6846 25.6771V20.5574H90.4551V67.343H100.216V40.292C100.216 29.911 107.798 30.0527 110.367 29.9996H110.739C114.654 29.9996 116.425 30.531 117.736 31.7711C119.047 33.0111 119.685 35.1901 119.685 38.5737V67.2721H129.287V36.6073C129.287 29.6984 127.285 25.4822 124.132 23.0198" fill="#636466"/>
<path d="M167.942 0.273621V22.949C165.497 20.9649 162.025 19.9374 156.905 19.9374C152.388 19.9374 148.048 20.4688 144.682 22.7718C141.316 25.0748 139.243 29.1493 139.243 35.9873V51.1337C139.243 56.8734 140.589 61.125 143.459 63.924C146.329 66.723 150.669 68.0339 156.551 68.0339H158.765C162.746 68.3563 166.594 66.4431 168.739 63.0737V67.4316H177.809V0.273621H167.942ZM148.986 40.2921C148.986 34.1803 149.341 29.9819 156.551 29.9287C166.117 29.9287 167.942 32.5683 168.012 37.6702V47.0061C168.012 57.4226 161.245 58.3438 157.862 58.3969C152.441 58.3969 149.004 57.954 149.004 51.1337L148.986 40.2921Z" fill="#636466"/>
<path d="M253.7 52.9229C253.953 48.232 251.689 43.7447 247.765 41.1601C244.922 39.7535 241.811 38.9688 238.642 38.8571L235.861 38.7331C227.003 38.5206 226.259 36.2353 226.188 34.0918C226.234 33.1458 226.64 32.2512 227.322 31.594C228.792 30.3008 231.06 30.3362 233.983 30.3007H250.245V20.5574H233.682C221.387 20.5574 216.835 26.988 216.764 33.0466V33.454C216.764 40.0263 218.943 42.5242 221.139 44.2248C224.682 46.9884 230.209 47.8564 238.536 48.0867C239.992 48.1275 241.412 48.542 242.663 49.2913C243.774 50.0726 244.412 51.3711 244.346 52.7281C244.357 52.9105 244.357 53.0948 244.346 53.2772C243.956 57.2809 241.529 57.5466 236.782 57.5997H218.393V67.3608H238.04C241.404 67.4298 244.725 66.599 247.659 64.9515C251.716 62.3863 254.068 57.8035 253.788 53.0115L253.7 52.9229Z" fill="#636466"/>
<path d="M205.922 20.5574V67.3076H196.037V30.2122H189.199V20.5574H205.922ZM194.868 15.048H205.851V5.6236H194.868V15.048Z" fill="#636466"/>
<path d="M15.9812 57.4934C13.5365 57.4934 10.4541 57.0683 10.4541 53.667V5.6236H0.356445V53.915C0.356445 62.5245 5.75956 67.3608 14.7234 67.3785H32.2968V57.4934H15.9812Z" fill="#636466"/>
<path d="M433.934 21.2838C428.708 21.2838 425.448 22.7718 422.809 26.8817V21.7975H413.951V67.4139H423.464V41.107C423.464 32.0191 428.779 31.1511 434.093 31.0802H436.751V21.2838H433.934Z" fill="#636466"/>
<path d="M397.883 21.3546L388.3 56.7848L376.218 21.3546H366.351L381.515 67.0773H385.837L384.278 72.7461C383.393 75.2794 380.47 77.4938 375.81 77.5115H371.665V87.2194H375.881C384.296 87.2194 389.15 84.1724 391.825 78.0429C393.008 74.7338 394.007 71.3644 394.819 67.9453L396.395 62.1348C396.466 61.7451 407.095 22.3289 407.095 22.0986V21.3015L397.883 21.3546Z" fill="#636466"/>
<path d="M342.347 31.1865V40.7703H353.366V55.4207C350.265 57.9363 348.636 58.4323 342.737 58.45H342.489C338.077 58.45 336.129 57.4225 334.464 55.8105C333.101 54.3011 332.421 52.2922 332.586 50.2656V24.9685C332.586 22.0632 333.046 20.0791 334.357 18.8036C336.046 17.4431 338.207 16.8053 340.363 17.0321H356.395V7.25336H342.843C337.9 7.25336 332.869 7.80252 329.043 10.2649C325.216 12.7273 322.63 17.1207 322.63 24.5433V51.116C322.63 65.9081 334.428 67.839 343.693 67.8567H343.87C355.049 67.8567 358.202 65.0578 363.02 59.6546H363.109V31.3105L342.347 31.1865Z" fill="#636466"/>
<path d="M3.06671 89.0617V91.7544C5.02777 88.8315 8.88258 87.7898 12.0483 89.3275C12.9925 89.8377 13.6958 90.7057 13.9969 91.7367C14.5833 90.7642 15.4212 89.9688 16.4239 89.4338C17.4354 88.8899 18.5692 88.61 19.7189 88.6189C20.5551 88.6082 21.3895 88.7092 22.199 88.92C22.897 89.0936 23.5489 89.4143 24.1123 89.8589C24.6543 90.2983 25.0795 90.8634 25.3523 91.5064C25.6641 92.277 25.8147 93.1026 25.7952 93.9334V107.361H22.8545V95.386C22.8545 94.851 22.8066 94.3178 22.7128 93.7917C22.6295 93.3275 22.4488 92.8864 22.1813 92.4985C21.9014 92.1229 21.5294 91.8235 21.1007 91.6304C20.5409 91.3966 19.935 91.2885 19.3292 91.3116C18.0236 91.2301 16.741 91.6924 15.7862 92.5871C14.9146 93.4905 14.4522 94.7164 14.5107 95.9706V107.361H11.5522V95.386C11.554 94.8386 11.5009 94.293 11.3928 93.7562C11.2971 93.2921 11.1111 92.8528 10.8436 92.463C10.5779 92.091 10.2165 91.7987 9.79846 91.6127C9.26346 91.3984 8.69125 91.2956 8.11551 91.3116C7.33251 91.2921 6.55659 91.4745 5.8657 91.843C5.2811 92.1601 4.76914 92.5941 4.35992 93.1185C3.99322 93.5809 3.70622 94.1017 3.50959 94.6597C3.35369 95.0867 3.26334 95.5348 3.24386 95.9884V107.361H0.25V89.0617" fill="#89C649"/>
<path d="M40.3926 98.5039C39.7725 98.6279 39.1348 98.7519 38.4616 98.8228L36.4244 99.1062C35.815 99.2054 35.2198 99.3772 34.6529 99.6199C34.1303 99.8361 33.6732 100.185 33.3242 100.63C32.9611 101.147 32.7804 101.771 32.8105 102.401C32.7963 102.842 32.9079 103.278 33.1294 103.659C33.3154 103.992 33.5758 104.277 33.8911 104.492C34.2383 104.711 34.6228 104.867 35.0249 104.952C35.4607 105.046 35.9071 105.094 36.3535 105.094C37.2163 105.11 38.0737 104.972 38.8868 104.686C39.5387 104.461 40.1393 104.113 40.6583 103.659C41.0799 103.285 41.4165 102.826 41.6503 102.313C41.847 101.884 41.955 101.42 41.9692 100.949V97.8661C41.5033 98.2027 40.9612 98.4224 40.3926 98.5039ZM44.5911 107.716C43.9391 107.725 43.3085 107.491 42.8195 107.06C42.3111 106.469 42.0613 105.694 42.1287 104.917C41.3722 105.865 40.3837 106.603 39.2588 107.06C38.1286 107.498 36.9275 107.721 35.7158 107.716C34.9009 107.702 34.0913 107.583 33.3065 107.361C32.6086 107.206 31.9496 106.903 31.3756 106.476C30.8229 106.063 30.3782 105.523 30.0824 104.899C29.4074 103.34 29.4074 101.569 30.0824 100.01C30.4455 99.4038 30.9416 98.8883 31.535 98.5039C32.1391 98.0805 32.8087 97.7634 33.5191 97.565C34.2454 97.3524 35.0072 97.193 35.7866 97.0335C36.5661 96.8741 37.3987 96.7501 38.125 96.6615C38.7894 96.5942 39.4466 96.4755 40.0914 96.3072C40.5874 96.1921 41.048 95.9618 41.4378 95.634C41.7867 95.2992 41.9692 94.8245 41.9338 94.3408C41.9621 93.7846 41.8328 93.2319 41.5618 92.7465C41.3279 92.3656 40.9984 92.0538 40.6052 91.843C40.1959 91.6251 39.7531 91.4816 39.2942 91.4178C38.8195 91.347 38.3394 91.3116 37.8593 91.3116C36.7574 91.2744 35.6644 91.5241 34.6883 92.0379C33.776 92.6349 33.2481 93.6765 33.3065 94.766H30.2595C30.2684 93.7722 30.5111 92.7961 30.9681 91.9139C31.3933 91.145 32.0009 90.4949 32.7396 90.0184C33.45 89.5241 34.2419 89.1574 35.078 88.9377C36.0258 88.7234 36.9948 88.6153 37.9656 88.6189C38.7894 88.6171 39.6131 88.6755 40.428 88.796C41.2057 88.8988 41.9568 89.145 42.6424 89.5223C43.2996 89.8873 43.8506 90.4187 44.2368 91.0636C44.6708 91.8483 44.878 92.7376 44.8391 93.6322V103.021C44.8267 103.544 44.8674 104.066 44.9631 104.58C44.9631 104.899 45.3351 105.076 45.7957 105.076C46.111 105.067 46.421 105.007 46.7169 104.899V107.237C46.0472 107.57 45.3032 107.728 44.5556 107.698" fill="#89C649"/>
<path d="M53.1473 89.0617V91.9493C54.3112 89.7898 56.6319 88.4931 59.0819 88.6366C60.1076 88.6012 61.1298 88.7624 62.0935 89.1149C62.8446 89.4125 63.5124 89.8873 64.0421 90.4967C64.547 91.1096 64.9049 91.8306 65.0873 92.6048C65.2981 93.4923 65.3991 94.4029 65.3885 95.3152V107.361H62.3946V94.9609C62.4478 93.9653 62.0881 92.991 61.4026 92.2682C60.6674 91.5791 59.6807 91.2194 58.6744 91.2761C57.8578 91.2566 57.0429 91.4019 56.2829 91.7013C55.6381 91.9688 55.0606 92.3816 54.6 92.9059C54.15 93.425 53.8063 94.0255 53.5902 94.6774C53.3599 95.4162 53.2448 96.1885 53.2536 96.9627V107.361H50.2598V89.0617" fill="#89C649"/>
<path d="M80.0922 98.5039C79.4722 98.6279 78.8345 98.7519 78.1613 98.8228L76.1241 99.1062C75.5147 99.2054 74.9212 99.379 74.3525 99.62C73.8299 99.8361 73.3729 100.185 73.0239 100.63C72.6607 101.147 72.4801 101.771 72.5102 102.401C72.4747 103.239 72.8875 104.036 73.5908 104.492C73.9362 104.717 74.3207 104.872 74.7246 104.952C75.1603 105.048 75.6068 105.096 76.0532 105.094C76.9212 105.112 77.7857 104.973 78.6042 104.686C79.2561 104.461 79.8566 104.113 80.3757 103.659C80.7973 103.285 81.1357 102.826 81.3677 102.313C81.5697 101.886 81.6777 101.42 81.6866 100.949V97.8662C81.2455 98.185 80.7353 98.3958 80.1985 98.4862M84.397 107.698C83.7451 107.712 83.1109 107.478 82.6255 107.043C82.11 106.454 81.8584 105.679 81.9346 104.899C81.1711 105.84 80.1844 106.577 79.0648 107.043C77.9363 107.482 76.7335 107.705 75.5217 107.698C74.7334 107.709 73.9486 107.618 73.1834 107.432C72.4836 107.278 71.8264 106.975 71.2524 106.547C70.6908 106.137 70.2409 105.595 69.9415 104.97C69.263 103.411 69.263 101.639 69.9415 100.081C70.2763 99.441 70.7546 98.8901 71.341 98.4685C71.9397 98.0486 72.6041 97.7315 73.3074 97.5296C74.0514 97.317 74.8131 97.1576 75.5926 96.9981C76.3721 96.8387 77.187 96.7147 77.931 96.6261C78.5882 96.5588 79.2401 96.4401 79.8797 96.2718C80.3739 96.1513 80.8327 95.921 81.226 95.5986C81.5715 95.2603 81.7522 94.7873 81.722 94.3054C81.7468 93.7492 81.6175 93.1982 81.35 92.7111C81.1126 92.3337 80.7831 92.022 80.3934 91.8076C79.9842 91.5897 79.5413 91.4462 79.0825 91.3824C78.6077 91.3116 78.1276 91.2761 77.6476 91.2761C76.5457 91.2389 75.4527 91.4887 74.4765 92.0025C73.5607 92.5977 73.0328 93.6411 73.0948 94.7306H70.1009C70.1133 93.7385 70.356 92.7607 70.8095 91.8785C71.2347 91.1096 71.8423 90.4595 72.581 89.9829C73.3251 89.4869 74.1541 89.1326 75.0257 88.9377C75.9735 88.7234 76.9425 88.6171 77.9133 88.6189C78.7317 88.6171 79.5484 88.6756 80.358 88.796C81.1357 88.897 81.8868 89.1432 82.5724 89.5223C83.2314 89.8837 83.7823 90.417 84.1667 91.0636C84.6043 91.8466 84.8116 92.7359 84.769 93.6323V103.021C84.7531 103.544 84.7938 104.066 84.893 104.58C84.893 104.899 85.2473 105.076 85.7256 105.076C86.041 105.067 86.351 105.007 86.6468 104.899V107.237C85.9772 107.572 85.2332 107.732 84.4856 107.698" fill="#89C649"/>
<path d="M99.9334 104.261C100.617 103.861 101.195 103.301 101.616 102.632C102.054 101.928 102.373 101.156 102.555 100.346C102.755 99.5101 102.856 98.6545 102.856 97.7953C102.862 97.0017 102.766 96.2098 102.573 95.4392C102.399 94.6916 102.1 93.9777 101.687 93.3311C101.273 92.7111 100.722 92.1956 100.075 91.8253C99.3346 91.4321 98.5038 91.2372 97.6659 91.2584C96.812 91.2372 95.967 91.425 95.2035 91.8076C94.5409 92.1601 93.9705 92.6633 93.5382 93.278C93.0847 93.9122 92.7605 94.6278 92.5816 95.3861C92.3779 96.208 92.2769 97.0531 92.2805 97.9016C92.2822 98.7342 92.3655 99.565 92.5285 100.382C92.6844 101.174 92.9714 101.934 93.3788 102.632C93.7721 103.294 94.3177 103.854 94.9732 104.261C95.7243 104.697 96.5852 104.911 97.4533 104.881C98.339 104.908 99.2142 104.694 99.9865 104.261M103.813 112.463C102.086 114.09 99.7456 114.901 97.3824 114.696C96.5073 114.696 95.6339 114.602 94.7783 114.412C93.9297 114.238 93.1166 113.927 92.369 113.491C91.6675 113.068 91.0634 112.501 90.5975 111.826C90.1104 111.075 89.8411 110.205 89.8181 109.31H92.8119C92.8119 109.813 92.9873 110.302 93.3079 110.692C93.6339 111.073 94.0307 111.386 94.4771 111.613C94.9484 111.849 95.4479 112.022 95.9652 112.127C96.4789 112.224 97.0015 112.277 97.5241 112.286C98.3904 112.311 99.2514 112.136 100.04 111.773C100.738 111.452 101.345 110.967 101.811 110.355C102.281 109.709 102.612 108.974 102.786 108.194C102.993 107.282 103.094 106.348 103.087 105.413V104.208C102.614 105.283 101.781 106.16 100.731 106.688C99.7031 107.222 98.5587 107.496 97.4001 107.485C96.1778 107.51 94.9661 107.257 93.8571 106.741C92.8722 106.267 92.0023 105.583 91.3061 104.74C90.6028 103.872 90.0785 102.871 89.7649 101.799C89.4177 100.651 89.2441 99.4552 89.2512 98.2559C89.2565 97.1275 89.4 96.0025 89.6763 94.9078C89.9492 93.7952 90.431 92.743 91.0936 91.8076C91.7827 90.8563 92.6791 90.0751 93.7154 89.5224C94.9448 88.8882 96.3178 88.5764 97.7013 88.6189C98.805 88.6065 99.8944 88.8687 100.872 89.3806C101.836 89.8873 102.623 90.6792 103.122 91.6482V89.0263H105.939V105.714C106.127 108.13 105.391 110.531 103.884 112.428" fill="#89C649"/>
<path d="M122.661 94.4294C122.404 93.8147 122.03 93.2549 121.563 92.7819C121.093 92.3178 120.541 91.9458 119.933 91.6836C119.278 91.4055 118.572 91.2673 117.86 91.2761C117.138 91.2637 116.418 91.4019 115.752 91.6836C115.146 91.9458 114.599 92.3249 114.14 92.7996C113.692 93.2833 113.332 93.8395 113.077 94.4471C112.82 95.0867 112.665 95.7616 112.617 96.4489H123.139C123.092 95.7545 122.93 95.0725 122.661 94.4294ZM123.387 106.139C121.891 107.218 120.077 107.767 118.232 107.698C116.929 107.725 115.632 107.484 114.424 106.989C113.385 106.543 112.459 105.872 111.713 105.023C110.966 104.128 110.404 103.092 110.066 101.976C109.697 100.727 109.495 99.4339 109.463 98.1319C109.451 96.8351 109.667 95.5455 110.101 94.3231C110.493 93.2195 111.095 92.2044 111.873 91.3293C112.627 90.4843 113.55 89.8093 114.583 89.3452C115.667 88.874 116.838 88.6384 118.02 88.6543C119.435 88.6012 120.835 88.9519 122.059 89.6641C123.106 90.3054 123.99 91.1769 124.645 92.215C125.299 93.2567 125.754 94.4099 125.992 95.6163C126.231 96.782 126.332 97.9707 126.293 99.1594H112.599C112.581 99.9264 112.682 100.692 112.9 101.427C113.104 102.125 113.455 102.771 113.928 103.322C114.415 103.884 115.019 104.332 115.699 104.633C116.518 104.977 117.398 105.145 118.286 105.129C119.398 105.17 120.495 104.86 121.421 104.244C122.282 103.585 122.86 102.621 123.033 101.551H125.992C125.726 103.377 124.775 105.037 123.334 106.192" fill="#89C649"/>
<path d="M153.06 94.4294C152.807 93.813 152.433 93.2532 151.962 92.7819C151.489 92.3213 150.936 91.9493 150.332 91.6836C149.677 91.4055 148.972 91.2673 148.26 91.2762C147.537 91.2673 146.819 91.4055 146.151 91.6836C145.547 91.9476 145 92.3267 144.539 92.7997C144.095 93.2815 143.74 93.8395 143.494 94.4472C143.225 95.0831 143.069 95.7598 143.034 96.449H153.539C153.494 95.7528 153.333 95.0707 153.06 94.4294ZM153.804 106.139C152.307 107.216 150.493 107.765 148.649 107.698C147.345 107.725 146.049 107.484 144.841 106.989C143.802 106.543 142.878 105.872 142.13 105.023C141.383 104.13 140.828 103.094 140.5 101.976C140.119 100.729 139.912 99.4357 139.88 98.1319C139.859 96.8334 140.075 95.5437 140.518 94.3232C140.908 93.2195 141.51 92.2027 142.29 91.3293C143.05 90.4825 143.98 89.8076 145.018 89.3452C146.1 88.8704 147.273 88.6348 148.454 88.6543C149.87 88.6012 151.271 88.9502 152.493 89.6641C153.535 90.3107 154.419 91.1823 155.08 92.2151C155.727 93.2602 156.184 94.4117 156.426 95.6164C156.657 96.782 156.752 97.9707 156.71 99.1594H143.034C143.005 99.9265 143.101 100.692 143.317 101.427C143.723 102.874 144.768 104.063 146.151 104.651C146.97 104.997 147.85 105.165 148.738 105.147C149.843 105.184 150.935 104.874 151.856 104.261C152.718 103.604 153.296 102.639 153.468 101.569H156.444C156.176 103.395 155.225 105.053 153.787 106.21" fill="#89C649"/>
<path d="M163.441 89.0617V91.9493C164.605 89.7898 166.926 88.4931 169.376 88.6366C170.401 88.6012 171.424 88.7624 172.387 89.1149C173.14 89.409 173.808 89.8837 174.336 90.4967C174.843 91.1096 175.2 91.8306 175.381 92.6048C175.592 93.4923 175.693 94.4029 175.682 95.3152V107.361H172.688V94.9609C172.752 93.9635 172.391 92.9857 171.696 92.2682C170.967 91.5808 169.987 91.223 168.986 91.2761C168.168 91.2566 167.354 91.4002 166.594 91.7013C165.946 91.9653 165.37 92.378 164.911 92.9059C164.458 93.4214 164.114 94.0237 163.902 94.6774C163.671 95.4179 163.558 96.1885 163.565 96.9627V107.361H160.571V89.0617" fill="#89C649"/>
<path d="M192.654 94.4294C192.4 93.8129 192.027 93.2531 191.555 92.7819C191.086 92.3178 190.533 91.9458 189.926 91.6836C188.585 91.1415 187.086 91.1415 185.745 91.6836C185.139 91.9458 184.592 92.3249 184.133 92.7996C183.683 93.2797 183.321 93.8377 183.07 94.4471C182.808 95.0849 182.652 95.7616 182.609 96.4489H193.114C193.072 95.7527 192.911 95.0707 192.636 94.4294M193.38 106.139C191.876 107.218 190.057 107.767 188.207 107.698C186.909 107.723 185.619 107.482 184.416 106.989C183.376 106.547 182.45 105.873 181.706 105.023C180.958 104.128 180.398 103.092 180.058 101.976C179.683 100.729 179.481 99.4339 179.456 98.1319C179.44 96.8351 179.656 95.5455 180.094 94.3231C180.483 93.2195 181.086 92.2026 181.865 91.3293C182.618 90.4825 183.541 89.8076 184.576 89.3452C185.665 88.8704 186.843 88.6348 188.03 88.6543C189.445 88.6029 190.845 88.9519 192.069 89.6641C193.112 90.3071 193.998 91.1805 194.655 92.215C195.306 93.2585 195.761 94.4117 196.002 95.6163C196.25 96.7802 196.353 97.9707 196.303 99.1594H182.627C182.599 99.9264 182.694 100.692 182.91 101.427C183.118 102.12 183.461 102.764 183.92 103.322C184.409 103.882 185.013 104.329 185.692 104.633C186.505 104.975 187.378 105.145 188.26 105.129C189.378 105.174 190.482 104.864 191.414 104.244C192.275 103.585 192.852 102.621 193.026 101.551H196.002C195.734 103.374 194.792 105.03 193.362 106.192" fill="#89C649"/>
<path d="M202.911 89.0618V92.9059C203.504 91.5915 204.434 90.4542 205.603 89.6109C206.815 88.8758 208.227 88.5339 209.642 88.6366V91.8076C208.594 91.781 207.549 91.9493 206.56 92.3036C205.765 92.5977 205.061 93.099 204.523 93.7563C203.984 94.433 203.598 95.2195 203.389 96.0592C203.15 97.0814 203.037 98.1284 203.052 99.1771V107.361H200.059V89.0618" fill="#89C649"/>
<path d="M221.654 104.261C222.337 103.861 222.915 103.303 223.336 102.632C223.769 101.925 224.086 101.152 224.275 100.346C224.474 99.5101 224.575 98.6545 224.577 97.7953C224.569 97.0016 224.474 96.2115 224.293 95.4392C224.112 94.688 223.801 93.9741 223.372 93.3311C222.963 92.7075 222.41 92.1902 221.76 91.8253C221.025 91.4338 220.201 91.2389 219.368 91.2584C218.509 91.2336 217.657 91.4214 216.888 91.8076C216.219 92.1566 215.641 92.6597 215.205 93.2779C214.753 93.9121 214.429 94.6278 214.249 95.386C214.043 96.208 213.942 97.053 213.947 97.9016C213.947 98.7342 214.031 99.565 214.195 100.382C214.346 101.175 214.635 101.937 215.046 102.632C215.439 103.294 215.986 103.852 216.64 104.261C217.386 104.695 218.24 104.91 219.103 104.881C219.988 104.908 220.863 104.694 221.636 104.261M225.462 112.463C223.731 114.083 221.393 114.894 219.032 114.695C218.157 114.695 217.283 114.602 216.428 114.412C215.581 114.237 214.766 113.925 214.018 113.491C213.317 113.066 212.714 112.499 212.247 111.826C211.758 111.076 211.487 110.205 211.467 109.31H214.461C214.472 109.815 214.653 110.302 214.975 110.692C215.301 111.071 215.698 111.385 216.144 111.613C216.622 111.849 217.127 112.022 217.65 112.127C218.164 112.226 218.686 112.279 219.209 112.286C220.075 112.309 220.936 112.134 221.724 111.772C222.419 111.447 223.026 110.961 223.496 110.355C223.965 109.709 224.297 108.974 224.47 108.194C224.679 107.282 224.78 106.348 224.771 105.413V104.208C224.302 105.285 223.468 106.164 222.415 106.688C221.386 107.22 220.243 107.493 219.085 107.485C217.862 107.508 216.651 107.253 215.542 106.741C214.557 106.267 213.685 105.585 212.991 104.74C212.293 103.87 211.776 102.871 211.467 101.799C211.117 100.651 210.943 99.457 210.954 98.2559C210.957 97.1274 211.101 96.0025 211.379 94.9077C211.646 93.7917 212.128 92.7394 212.796 91.8076C213.485 90.8563 214.381 90.075 215.418 89.5223C216.647 88.8863 218.02 88.5763 219.404 88.6188C220.507 88.6047 221.599 88.8651 222.575 89.3806C223.545 89.8855 224.337 90.6773 224.842 91.6481V89.0263H227.641V105.714C227.829 108.128 227.103 110.525 225.604 112.428" fill="#89C649"/>
<path d="M238.996 111.985C238.699 112.543 238.316 113.052 237.862 113.491C237.476 113.859 237.017 114.143 236.516 114.323C235.946 114.515 235.347 114.603 234.745 114.589C234.39 114.618 234.036 114.618 233.682 114.589C233.331 114.543 232.987 114.46 232.654 114.341V111.578L233.522 111.861C233.816 111.948 234.119 111.996 234.426 112.003C234.955 112.031 235.48 111.882 235.914 111.578C236.335 111.253 236.676 110.834 236.906 110.355L238.146 107.273L230.9 89.1149H234.302L239.616 104.066L244.736 89.1149H247.907L239.953 109.788C239.653 110.566 239.304 111.324 238.908 112.056" fill="#89C649"/>
<path d="M275.879 95.5277C275.666 94.7518 275.319 94.0202 274.852 93.3665C274.389 92.727 273.782 92.2044 273.08 91.843C272.299 91.4568 271.436 91.2619 270.564 91.2761C269.665 91.2478 268.774 91.455 267.978 91.8784C267.277 92.2646 266.671 92.8032 266.207 93.4551C265.758 94.1229 265.434 94.867 265.25 95.6517C265.048 96.4684 264.947 97.3081 264.949 98.1496C264.947 99.0282 265.055 99.9016 265.268 100.754C265.463 101.544 265.806 102.288 266.277 102.95C266.745 103.59 267.351 104.116 268.049 104.492C268.876 104.89 269.789 105.085 270.706 105.058C271.606 105.087 272.497 104.88 273.293 104.456C273.971 104.074 274.549 103.531 274.976 102.88C275.411 102.183 275.723 101.416 275.897 100.612C276.086 99.7563 276.182 98.883 276.18 98.0079C276.18 97.1646 276.069 96.3231 275.844 95.51M265.055 82.082V91.5241C265.528 90.525 266.355 89.7349 267.376 89.3097C268.497 88.8385 269.704 88.6029 270.919 88.6188C272.191 88.5869 273.454 88.8545 274.604 89.3983C275.62 89.8943 276.51 90.6153 277.208 91.5064C277.916 92.4152 278.451 93.4497 278.784 94.5534C279.146 95.7421 279.325 96.9786 279.316 98.2204C279.326 99.4623 279.155 100.697 278.802 101.887C278.488 102.984 277.957 104.008 277.243 104.899C276.54 105.76 275.649 106.451 274.639 106.919C273.493 107.432 272.246 107.687 270.99 107.663C270.485 107.664 269.98 107.617 269.484 107.521C268.926 107.431 268.38 107.282 267.854 107.078C267.296 106.862 266.772 106.571 266.295 106.21C265.812 105.834 265.404 105.372 265.091 104.846V107.361H262.097V82.0997" fill="#89C649"/>
<path d="M295.49 94.4294C295.237 93.8129 294.863 93.2531 294.392 92.7819C293.919 92.3213 293.368 91.9475 292.762 91.6836C292.106 91.4054 291.401 91.2672 290.689 91.2761C289.966 91.2672 289.249 91.4054 288.581 91.6836C287.975 91.9457 287.428 92.3248 286.969 92.7996C286.517 93.2797 286.158 93.8377 285.906 94.4471C285.644 95.0848 285.488 95.7616 285.445 96.4489H295.968C295.919 95.7545 295.757 95.0724 295.49 94.4294ZM296.216 106.139C294.719 107.22 292.905 107.767 291.061 107.698C289.756 107.726 288.461 107.485 287.252 106.989C286.214 106.541 285.29 105.87 284.542 105.023C283.789 104.132 283.228 103.094 282.894 101.976C282.519 100.727 282.31 99.4357 282.274 98.1319C282.257 96.8351 282.473 95.5437 282.912 94.3231C283.302 93.2194 283.904 92.2026 284.684 91.3292C285.444 90.4842 286.374 89.8093 287.412 89.3452C288.496 88.8739 289.667 88.6383 290.849 88.6543C292.269 88.5994 293.676 88.9501 294.905 89.664C295.952 90.3035 296.838 91.1769 297.492 92.215C298.14 93.2584 298.597 94.4117 298.838 95.6163C299.081 96.7802 299.182 97.9706 299.139 99.1593H285.463C285.44 99.9246 285.536 100.69 285.747 101.427C285.956 102.123 286.306 102.768 286.774 103.322C287.261 103.884 287.865 104.332 288.546 104.633C289.357 104.977 290.232 105.147 291.114 105.129C292.232 105.174 293.336 104.864 294.268 104.244C295.127 103.583 295.704 102.621 295.88 101.551H298.856C298.59 103.377 297.639 105.037 296.199 106.192" fill="#89C649"/>
<path d="M310.513 89.0441V91.6836H306.846V103.039C306.842 103.324 306.872 103.609 306.934 103.889C306.984 104.09 307.102 104.265 307.271 104.385C307.478 104.52 307.715 104.598 307.962 104.616C308.344 104.639 308.73 104.639 309.113 104.616H310.495V107.361H308.192C307.52 107.37 306.851 107.317 306.19 107.202C305.699 107.124 305.235 106.922 304.844 106.617C304.477 106.307 304.211 105.893 304.082 105.431C303.9 104.761 303.816 104.068 303.834 103.376V91.7368H300.805V89.0972H303.923V83.6232H306.899V89.0972" fill="#89C649"/>
<path d="M322.452 89.0441V91.6836H318.785V103.039C318.777 103.326 318.805 103.611 318.874 103.889C318.925 104.09 319.044 104.265 319.211 104.385C319.418 104.518 319.655 104.598 319.901 104.616C320.284 104.639 320.67 104.639 321.053 104.616H322.435V107.361H320.132C319.46 107.37 318.791 107.317 318.13 107.202C317.639 107.122 317.177 106.92 316.784 106.617C316.426 106.302 316.167 105.889 316.04 105.431C315.855 104.761 315.772 104.068 315.792 103.376V91.7368H312.691V89.0972H315.792V83.6232H318.785V89.0972" fill="#89C649"/>
<path d="M338.307 94.4294C338.054 93.813 337.68 93.2532 337.209 92.7819C336.745 92.3196 336.197 91.9476 335.597 91.6836C334.941 91.4055 334.236 91.2673 333.524 91.2762C332.801 91.2673 332.084 91.4055 331.416 91.6836C330.81 91.9458 330.263 92.3249 329.804 92.7997C329.356 93.2833 328.996 93.8395 328.741 94.4472C328.482 95.0849 328.326 95.7616 328.28 96.449H338.803C338.757 95.7545 338.596 95.0707 338.325 94.4294M339.051 106.139C337.554 107.216 335.74 107.765 333.896 107.698C332.592 107.726 331.296 107.484 330.087 106.989C329.047 106.545 328.121 105.873 327.377 105.023C326.622 104.134 326.061 103.096 325.729 101.976C325.349 100.729 325.141 99.4357 325.109 98.1319C325.092 96.8352 325.308 95.5437 325.747 94.3232C326.144 93.223 326.744 92.2062 327.519 91.3293C329.088 89.5879 331.34 88.61 333.684 88.6543C335.099 88.6012 336.5 88.9502 337.723 89.6641C338.77 90.3054 339.653 91.1787 340.309 92.2151C340.961 93.2567 341.418 94.41 341.655 95.6164C341.896 96.782 341.997 97.9707 341.956 99.1594H328.28C328.245 99.9265 328.341 100.692 328.564 101.427C328.766 102.125 329.117 102.771 329.591 103.322C330.075 103.888 330.681 104.336 331.363 104.633C332.181 104.979 333.062 105.147 333.949 105.129C335.062 105.17 336.158 104.86 337.085 104.244C337.948 103.586 338.527 102.623 338.697 101.551H341.673C341.409 103.379 340.458 105.039 339.016 106.192" fill="#89C649"/>
<path d="M348.636 89.0618V92.9059C349.227 91.5897 350.156 90.4524 351.328 89.6109C352.535 88.8758 353.941 88.5356 355.35 88.6366V91.8076C354.301 91.7793 353.256 91.9476 352.267 92.3036C351.465 92.5942 350.755 93.0973 350.212 93.7563C349.672 94.4294 349.289 95.2178 349.096 96.0592C348.838 97.0779 348.712 98.1266 348.724 99.1771V107.361H345.73V89.0618" fill="#89C649"/>
</svg>
