<svg width="600" height="340" viewBox="0 0 600 340" fill="none" xmlns="http://www.w3.org/2000/svg">
<rect width="600" height="340" fill="url(#paint0_linear_486_274)"/>
<path d="M68.2756 279V252.818H73.8111V274.436H85.0355V279H68.2756ZM94.1985 279.371C92.9457 279.371 91.8292 279.153 90.8491 278.719C89.869 278.276 89.0934 277.624 88.5224 276.763C87.9599 275.893 87.6786 274.811 87.6786 273.516C87.6786 272.425 87.8789 271.509 88.2795 270.767C88.68 270.026 89.2255 269.429 89.9158 268.977C90.6062 268.526 91.3903 268.185 92.2681 267.955C93.1545 267.724 94.0835 267.562 95.055 267.469C96.1971 267.349 97.1175 267.239 97.8164 267.136C98.5153 267.026 99.0224 266.864 99.3377 266.651C99.6531 266.437 99.8107 266.122 99.8107 265.705V265.628C99.8107 264.818 99.555 264.192 99.0437 263.749C98.5408 263.305 97.8249 263.084 96.896 263.084C95.9158 263.084 95.136 263.301 94.5565 263.736C93.9769 264.162 93.5934 264.699 93.4059 265.347L88.369 264.938C88.6246 263.744 89.1275 262.713 89.8775 261.844C90.6275 260.966 91.5948 260.293 92.7795 259.824C93.9727 259.347 95.3533 259.108 96.9215 259.108C98.0124 259.108 99.0565 259.236 100.054 259.491C101.059 259.747 101.95 260.143 102.725 260.68C103.51 261.217 104.127 261.908 104.579 262.751C105.031 263.587 105.257 264.588 105.257 265.756V279H100.092V276.277H99.9386C99.6232 276.891 99.2013 277.432 98.6729 277.901C98.1445 278.361 97.5096 278.723 96.7681 278.987C96.0266 279.243 95.1701 279.371 94.1985 279.371ZM95.7582 275.612C96.5593 275.612 97.2667 275.455 97.8803 275.139C98.494 274.815 98.9755 274.381 99.3249 273.835C99.6744 273.29 99.8491 272.672 99.8491 271.982V269.898C99.6786 270.009 99.4442 270.111 99.146 270.205C98.8562 270.29 98.5281 270.371 98.1616 270.447C97.7951 270.516 97.4286 270.58 97.0621 270.639C96.6957 270.69 96.3633 270.737 96.065 270.78C95.4258 270.874 94.8675 271.023 94.3903 271.227C93.913 271.432 93.5423 271.709 93.2781 272.058C93.0138 272.399 92.8817 272.825 92.8817 273.337C92.8817 274.078 93.1502 274.645 93.6871 275.037C94.2326 275.42 94.9229 275.612 95.7582 275.612ZM114.928 267.648V279H109.482V259.364H114.672V262.828H114.902C115.337 261.686 116.066 260.783 117.088 260.118C118.111 259.445 119.351 259.108 120.809 259.108C122.172 259.108 123.361 259.406 124.375 260.003C125.39 260.599 126.178 261.452 126.74 262.56C127.303 263.659 127.584 264.972 127.584 266.497V279H122.138V267.469C122.147 266.267 121.84 265.33 121.218 264.656C120.596 263.974 119.739 263.634 118.648 263.634C117.915 263.634 117.267 263.791 116.705 264.107C116.151 264.422 115.716 264.882 115.401 265.487C115.094 266.084 114.936 266.804 114.928 267.648ZM139.112 279.32C137.621 279.32 136.27 278.936 135.06 278.169C133.858 277.393 132.903 276.256 132.196 274.756C131.497 273.247 131.148 271.398 131.148 269.207C131.148 266.957 131.51 265.087 132.234 263.595C132.959 262.095 133.922 260.974 135.124 260.233C136.334 259.483 137.659 259.108 139.099 259.108C140.199 259.108 141.115 259.295 141.848 259.67C142.589 260.037 143.186 260.497 143.638 261.051C144.098 261.597 144.447 262.134 144.686 262.662H144.852V252.818H150.286V279H144.916V275.855H144.686C144.43 276.401 144.068 276.942 143.599 277.479C143.139 278.007 142.538 278.446 141.797 278.795C141.064 279.145 140.169 279.32 139.112 279.32ZM140.838 274.986C141.716 274.986 142.457 274.747 143.062 274.27C143.676 273.784 144.145 273.107 144.469 272.237C144.801 271.368 144.967 270.349 144.967 269.182C144.967 268.014 144.805 267 144.482 266.139C144.158 265.278 143.689 264.614 143.075 264.145C142.462 263.676 141.716 263.442 140.838 263.442C139.943 263.442 139.189 263.685 138.575 264.17C137.962 264.656 137.497 265.33 137.182 266.19C136.866 267.051 136.709 268.048 136.709 269.182C136.709 270.324 136.866 271.334 137.182 272.212C137.506 273.081 137.97 273.763 138.575 274.257C139.189 274.743 139.943 274.986 140.838 274.986ZM154.763 279V259.364H160.209V279H154.763ZM157.499 256.832C156.689 256.832 155.995 256.564 155.415 256.027C154.844 255.482 154.559 254.83 154.559 254.071C154.559 253.321 154.844 252.678 155.415 252.141C155.995 251.595 156.689 251.322 157.499 251.322C158.309 251.322 158.999 251.595 159.57 252.141C160.15 252.678 160.439 253.321 160.439 254.071C160.439 254.83 160.15 255.482 159.57 256.027C158.999 256.564 158.309 256.832 157.499 256.832ZM180.91 264.963L175.924 265.27C175.839 264.844 175.656 264.46 175.374 264.119C175.093 263.77 174.722 263.493 174.262 263.288C173.81 263.075 173.269 262.969 172.638 262.969C171.795 262.969 171.083 263.148 170.504 263.506C169.924 263.855 169.634 264.324 169.634 264.912C169.634 265.381 169.822 265.777 170.197 266.101C170.572 266.425 171.215 266.685 172.127 266.881L175.681 267.597C177.59 267.989 179.013 268.619 179.951 269.489C180.888 270.358 181.357 271.5 181.357 272.915C181.357 274.202 180.978 275.331 180.219 276.303C179.469 277.274 178.438 278.033 177.126 278.578C175.822 279.115 174.317 279.384 172.613 279.384C170.013 279.384 167.942 278.842 166.4 277.76C164.866 276.669 163.967 275.186 163.702 273.311L169.059 273.03C169.221 273.822 169.613 274.428 170.235 274.845C170.857 275.254 171.654 275.459 172.626 275.459C173.58 275.459 174.347 275.276 174.927 274.909C175.515 274.534 175.813 274.053 175.822 273.464C175.813 272.97 175.604 272.565 175.195 272.25C174.786 271.926 174.156 271.679 173.303 271.509L169.903 270.831C167.985 270.447 166.558 269.783 165.62 268.837C164.691 267.891 164.227 266.685 164.227 265.219C164.227 263.957 164.567 262.871 165.249 261.959C165.94 261.047 166.907 260.344 168.151 259.849C169.404 259.355 170.87 259.108 172.549 259.108C175.029 259.108 176.981 259.632 178.404 260.68C179.836 261.729 180.671 263.156 180.91 264.963ZM192.559 277.581V259.479H197.136V277.581H192.559ZM185.797 270.818V266.241H203.899V270.818H185.797ZM226.718 261.281C226.539 260.659 226.288 260.109 225.964 259.632C225.64 259.146 225.244 258.737 224.775 258.405C224.315 258.064 223.787 257.804 223.19 257.625C222.602 257.446 221.95 257.357 221.234 257.357C219.896 257.357 218.72 257.689 217.706 258.354C216.7 259.018 215.916 259.986 215.353 261.256C214.791 262.517 214.51 264.06 214.51 265.884C214.51 267.707 214.787 269.259 215.341 270.537C215.895 271.815 216.679 272.791 217.693 273.464C218.707 274.129 219.904 274.462 221.285 274.462C222.538 274.462 223.608 274.24 224.494 273.797C225.389 273.345 226.071 272.71 226.539 271.892C227.017 271.074 227.255 270.107 227.255 268.99L228.38 269.156H221.63V264.989H232.586V268.287C232.586 270.588 232.1 272.565 231.129 274.219C230.157 275.864 228.819 277.134 227.115 278.028C225.41 278.915 223.458 279.358 221.26 279.358C218.805 279.358 216.649 278.817 214.791 277.734C212.933 276.643 211.484 275.097 210.444 273.094C209.413 271.082 208.897 268.696 208.897 265.935C208.897 263.812 209.204 261.92 209.818 260.259C210.44 258.588 211.309 257.173 212.426 256.014C213.542 254.855 214.842 253.973 216.325 253.368C217.808 252.763 219.414 252.46 221.145 252.46C222.627 252.46 224.008 252.678 225.287 253.112C226.565 253.538 227.699 254.143 228.687 254.928C229.684 255.712 230.498 256.645 231.129 257.727C231.76 258.801 232.164 259.986 232.343 261.281H226.718ZM240.004 286.364C239.314 286.364 238.666 286.308 238.061 286.197C237.464 286.095 236.97 285.963 236.578 285.801L237.805 281.736C238.445 281.932 239.02 282.038 239.531 282.055C240.051 282.072 240.499 281.953 240.874 281.697C241.257 281.442 241.568 281.007 241.807 280.393L242.126 279.562L235.082 259.364H240.81L244.875 273.784H245.08L249.183 259.364H254.949L247.317 281.122C246.95 282.179 246.452 283.099 245.821 283.884C245.199 284.676 244.411 285.286 243.456 285.712C242.501 286.146 241.351 286.364 240.004 286.364ZM257.736 279V259.364H263.016V262.79H263.22C263.578 261.571 264.179 260.651 265.023 260.028C265.866 259.398 266.838 259.082 267.938 259.082C268.21 259.082 268.504 259.099 268.82 259.134C269.135 259.168 269.412 259.214 269.651 259.274V264.107C269.395 264.03 269.041 263.962 268.589 263.902C268.138 263.842 267.724 263.812 267.349 263.812C266.548 263.812 265.832 263.987 265.202 264.337C264.58 264.678 264.085 265.155 263.719 265.768C263.361 266.382 263.182 267.089 263.182 267.891V279H257.736Z" fill="black"/>
<path d="M378.788 279H372.857L381.895 252.818H389.028L398.054 279H392.122L385.564 258.801H385.359L378.788 279ZM378.418 268.709H392.429V273.03H378.418V268.709ZM416.984 264.963L411.998 265.27C411.913 264.844 411.73 264.46 411.449 264.119C411.167 263.77 410.797 263.493 410.336 263.288C409.885 263.075 409.343 262.969 408.713 262.969C407.869 262.969 407.157 263.148 406.578 263.506C405.998 263.855 405.708 264.324 405.708 264.912C405.708 265.381 405.896 265.777 406.271 266.101C406.646 266.425 407.289 266.685 408.201 266.881L411.755 267.597C413.664 267.989 415.088 268.619 416.025 269.489C416.963 270.358 417.431 271.5 417.431 272.915C417.431 274.202 417.052 275.331 416.294 276.303C415.544 277.274 414.512 278.033 413.2 278.578C411.896 279.115 410.392 279.384 408.687 279.384C406.088 279.384 404.017 278.842 402.474 277.76C400.94 276.669 400.041 275.186 399.777 273.311L405.133 273.03C405.295 273.822 405.687 274.428 406.309 274.845C406.931 275.254 407.728 275.459 408.7 275.459C409.654 275.459 410.422 275.276 411.001 274.909C411.589 274.534 411.887 274.053 411.896 273.464C411.887 272.97 411.679 272.565 411.27 272.25C410.86 271.926 410.23 271.679 409.377 271.509L405.977 270.831C404.059 270.447 402.632 269.783 401.694 268.837C400.765 267.891 400.301 266.685 400.301 265.219C400.301 263.957 400.642 262.871 401.324 261.959C402.014 261.047 402.981 260.344 404.225 259.849C405.478 259.355 406.944 259.108 408.623 259.108C411.103 259.108 413.055 259.632 414.478 260.68C415.91 261.729 416.745 263.156 416.984 264.963ZM437.199 264.963L432.213 265.27C432.128 264.844 431.945 264.46 431.663 264.119C431.382 263.77 431.011 263.493 430.551 263.288C430.099 263.075 429.558 262.969 428.928 262.969C428.084 262.969 427.372 263.148 426.793 263.506C426.213 263.855 425.923 264.324 425.923 264.912C425.923 265.381 426.111 265.777 426.486 266.101C426.861 266.425 427.504 266.685 428.416 266.881L431.97 267.597C433.879 267.989 435.303 268.619 436.24 269.489C437.178 270.358 437.646 271.5 437.646 272.915C437.646 274.202 437.267 275.331 436.509 276.303C435.759 277.274 434.727 278.033 433.415 278.578C432.111 279.115 430.607 279.384 428.902 279.384C426.303 279.384 424.232 278.842 422.689 277.76C421.155 276.669 420.256 275.186 419.991 273.311L425.348 273.03C425.51 273.822 425.902 274.428 426.524 274.845C427.146 275.254 427.943 275.459 428.915 275.459C429.869 275.459 430.636 275.276 431.216 274.909C431.804 274.534 432.102 274.053 432.111 273.464C432.102 272.97 431.893 272.565 431.484 272.25C431.075 271.926 430.445 271.679 429.592 271.509L426.192 270.831C424.274 270.447 422.847 269.783 421.909 268.837C420.98 267.891 420.516 266.685 420.516 265.219C420.516 263.957 420.857 262.871 421.538 261.959C422.229 261.047 423.196 260.344 424.44 259.849C425.693 259.355 427.159 259.108 428.838 259.108C431.318 259.108 433.27 259.632 434.693 260.68C436.125 261.729 436.96 263.156 437.199 264.963ZM450.025 279.384C448.005 279.384 446.266 278.974 444.809 278.156C443.36 277.33 442.243 276.162 441.459 274.653C440.675 273.136 440.283 271.342 440.283 269.271C440.283 267.251 440.675 265.479 441.459 263.953C442.243 262.428 443.347 261.239 444.77 260.386C446.202 259.534 447.881 259.108 449.807 259.108C451.103 259.108 452.309 259.317 453.425 259.734C454.55 260.143 455.53 260.761 456.365 261.588C457.209 262.415 457.865 263.455 458.334 264.707C458.803 265.952 459.037 267.409 459.037 269.08V270.575H442.456V267.2H453.911C453.911 266.416 453.74 265.722 453.4 265.116C453.059 264.511 452.586 264.038 451.98 263.697C451.384 263.348 450.689 263.173 449.897 263.173C449.07 263.173 448.337 263.365 447.698 263.749C447.067 264.124 446.573 264.631 446.215 265.27C445.857 265.901 445.674 266.604 445.665 267.379V270.588C445.665 271.56 445.844 272.399 446.202 273.107C446.569 273.814 447.084 274.359 447.749 274.743C448.414 275.126 449.202 275.318 450.114 275.318C450.719 275.318 451.273 275.233 451.776 275.062C452.279 274.892 452.709 274.636 453.067 274.295C453.425 273.955 453.698 273.537 453.885 273.043L458.922 273.375C458.667 274.585 458.142 275.642 457.35 276.545C456.566 277.44 455.551 278.139 454.307 278.642C453.071 279.136 451.644 279.384 450.025 279.384ZM462.591 279V259.364H467.871V262.79H468.076C468.434 261.571 469.034 260.651 469.878 260.028C470.722 259.398 471.694 259.082 472.793 259.082C473.066 259.082 473.36 259.099 473.675 259.134C473.99 259.168 474.267 259.214 474.506 259.274V264.107C474.25 264.03 473.897 263.962 473.445 263.902C472.993 263.842 472.58 263.812 472.205 263.812C471.404 263.812 470.688 263.987 470.057 264.337C469.435 264.678 468.941 265.155 468.574 265.768C468.216 266.382 468.037 267.089 468.037 267.891V279H462.591ZM488.751 259.364V263.455H476.925V259.364H488.751ZM479.61 254.659H485.056V272.966C485.056 273.469 485.133 273.861 485.286 274.142C485.44 274.415 485.653 274.607 485.925 274.717C486.207 274.828 486.531 274.884 486.897 274.884C487.153 274.884 487.408 274.862 487.664 274.82C487.92 274.768 488.116 274.73 488.252 274.705L489.109 278.757C488.836 278.842 488.452 278.94 487.958 279.051C487.464 279.17 486.863 279.243 486.156 279.268C484.843 279.32 483.692 279.145 482.704 278.744C481.724 278.344 480.961 277.722 480.415 276.878C479.87 276.034 479.602 274.969 479.61 273.682V254.659Z" fill="black"/>
<path d="M319.202 279.384C317.395 279.384 315.835 279.06 314.523 278.412C313.21 277.764 312.2 276.886 311.493 275.778C310.794 274.662 310.445 273.418 310.445 272.045C310.445 271.023 310.649 270.115 311.058 269.322C311.467 268.53 312.038 267.801 312.771 267.136C313.504 266.463 314.357 265.794 315.328 265.129L320.403 261.793C321.06 261.375 321.541 260.936 321.848 260.476C322.155 260.007 322.308 259.5 322.308 258.955C322.308 258.435 322.099 257.953 321.682 257.51C321.264 257.067 320.672 256.849 319.905 256.858C319.393 256.858 318.95 256.973 318.575 257.203C318.2 257.425 317.906 257.719 317.693 258.085C317.489 258.443 317.386 258.844 317.386 259.287C317.386 259.832 317.54 260.386 317.847 260.949C318.153 261.511 318.563 262.108 319.074 262.739C319.585 263.361 320.143 264.034 320.749 264.759L333.162 279H327.486L317.131 267.469C316.449 266.693 315.767 265.884 315.085 265.04C314.412 264.187 313.849 263.284 313.398 262.33C312.946 261.366 312.72 260.322 312.72 259.197C312.72 257.928 313.014 256.786 313.602 255.771C314.199 254.757 315.034 253.956 316.108 253.368C317.182 252.771 318.435 252.473 319.866 252.473C321.264 252.473 322.47 252.759 323.484 253.33C324.507 253.892 325.291 254.642 325.837 255.58C326.391 256.509 326.668 257.531 326.668 258.648C326.668 259.884 326.361 261.004 325.747 262.01C325.142 263.007 324.29 263.902 323.19 264.695L317.847 268.543C317.122 269.071 316.585 269.612 316.236 270.166C315.895 270.712 315.724 271.236 315.724 271.739C315.724 272.361 315.878 272.919 316.185 273.413C316.491 273.908 316.926 274.3 317.489 274.589C318.051 274.871 318.712 275.011 319.47 275.011C320.391 275.011 321.298 274.803 322.193 274.385C323.097 273.959 323.915 273.358 324.648 272.582C325.389 271.798 325.982 270.869 326.425 269.795C326.868 268.722 327.089 267.533 327.089 266.229H331.602C331.602 267.831 331.428 269.276 331.078 270.562C330.729 271.841 330.243 272.957 329.621 273.912C328.999 274.858 328.287 275.634 327.486 276.239C327.23 276.401 326.983 276.554 326.744 276.699C326.506 276.844 326.259 276.997 326.003 277.159C325.031 277.943 323.945 278.51 322.743 278.859C321.55 279.209 320.369 279.384 319.202 279.384Z" fill="black"/>
<path d="M327.275 96.8977L323.671 108.68C326.888 109.709 329.241 112.868 329.241 116.609C329.241 118.484 328.645 120.207 327.655 121.596L337.046 129.263C339.641 125.771 341.174 121.38 341.174 116.603C341.168 107.258 335.276 99.4206 327.275 96.8977Z" fill="black"/>
<path d="M319.477 125.397C315.204 125.358 311.751 121.649 311.751 117.127C311.751 112.612 315.197 108.903 319.477 108.87C320.283 108.864 321.049 108.988 321.79 109.224L325.374 97.4612C323.507 96.8715 321.528 96.57 319.49 96.6159C308.939 96.8321 300.519 106.026 300.519 117.12C300.519 128.221 308.933 137.428 319.49 137.645C325.8 137.782 331.469 134.689 335.106 129.768L325.754 122.107C324.3 124.119 322.039 125.417 319.477 125.397Z" fill="black"/>
<path d="M401.607 102.999C413.998 98.1953 413.998 97.73 413.998 96.4849V86.7733C413.998 85.5282 413.998 85.0039 401.6 80.5872L401.168 80.4299L399.418 76.2818L399.601 75.8624C404.877 63.9161 404.51 63.5623 403.631 62.6972L396.62 55.8362C396.331 55.5544 395.827 55.3512 395.388 55.3512C394.981 55.3512 393.802 55.3512 383.422 60.0498L383.009 60.2333L378.743 58.5098L378.572 58.0839C373.69 46 373.179 46 371.974 46H362.052C360.827 46 360.283 46 355.768 58.1035L355.597 58.5426L351.344 60.2792L350.938 60.1088C343.92 57.1468 339.824 55.6461 338.756 55.6461C338.33 55.6461 337.812 55.8427 337.524 56.1245L330.493 62.9987C329.601 63.8768 329.234 64.2438 334.772 75.941L334.968 76.3735L333.225 80.5151L332.793 80.6789C331.384 81.2228 330.165 81.7077 329.057 82.1468C328.645 82.3106 326.187 83.9096 324.647 84.8794L292.334 83.1101L281.22 136.387H281.213L280.997 136.419C278.31 131.858 273.304 129.263 266.325 129.263H263.271C259.175 133.261 252.013 135.941 243.808 135.941C235.604 135.941 228.441 133.267 224.346 129.263H221.292C210.525 129.263 204.359 135.345 204.359 145.489C204.359 155.64 204.031 183.372 204.031 188.903C204.031 194.434 203.369 200.194 208.14 200.194C209.903 200.194 215.512 200.194 222.786 200.194C229.726 200.194 236.39 200.194 242.504 200.194C243.35 200.194 244.287 200.194 245.106 200.194C252.943 200.194 259.457 200.194 263.206 200.194C263.874 200.194 264.339 200.194 264.824 200.194C265.034 200.194 265.348 200.194 265.519 200.194C271.613 200.194 276.292 200.194 277.852 200.194C278.5 200.194 279.11 200.194 279.47 200.194C284.247 200.194 283.579 194.434 283.579 188.903C283.579 188.051 283.566 186.616 283.559 184.86H413.841V176.046H283.487C283.461 173.562 283.435 170.908 283.409 168.208L295.827 172.959L357.262 163.189L363.415 137.658H372.373C373.618 137.658 374.143 137.658 378.658 125.548L378.828 125.115L383.088 123.392L383.494 123.556C390.506 126.524 394.601 128.025 395.663 128.025C396.082 128.025 396.613 127.835 396.895 127.553L403.926 120.666C404.818 119.781 405.178 119.421 399.634 107.737L399.438 107.298L401.174 103.169L401.607 102.999ZM295.42 88.0904L359.68 92.3827L345.617 151.76L285.407 134.722L295.42 88.0904ZM283.258 145.489C283.258 143.674 282.996 142.035 282.603 140.482L282.832 140.443L333.795 154.997L310.519 158.294L283.265 149.421C283.265 147.946 283.258 146.603 283.258 145.489ZM283.291 153.018L290.322 155.364L283.317 156.413C283.304 155.246 283.297 154.106 283.291 153.018ZM370.781 107.16L374.483 91.7798L370.761 89.1848L354.13 160.142L296.24 168.608V168.582L283.376 163.877C283.363 162.645 283.35 161.446 283.343 160.24L296.443 164.938L350.565 157.678L367.255 87.1927L352.36 86.3866C352.537 85.7248 352.727 85.0695 352.773 84.9712C355.368 79.7156 360.86 76.0786 367.216 76.0786C376.082 76.0786 383.278 83.1429 383.278 91.8322C383.278 99.3093 377.93 105.567 370.781 107.16Z" fill="black"/>
<path d="M214.601 96.1377C214.542 96.5178 214.464 96.8978 214.418 97.2845C212.629 113.955 224.418 128.956 240.709 130.718C257.006 132.488 271.731 120.345 273.54 103.674C273.808 101.098 273.73 98.5754 273.389 96.1246C275.302 96.1115 276.489 96.0852 276.751 96.0459C278.828 95.7838 280.486 95.6331 280.656 93.3395C280.689 90.2792 280.604 90.7707 280.65 90.3185C280.702 87.6711 279.149 87.9791 277.432 87.7956C275.715 87.6121 273.612 87.8742 273.612 87.8742C273.612 87.8742 268.664 54.6108 237.891 60.0433C228.69 61.6685 222.629 65.5544 218.644 70.194C226.502 66.2884 235.768 64.4142 243.828 65.5217C251.515 66.5833 257.544 70.1482 261.43 75.8166C258.841 73.8965 255.938 72.3893 252.766 71.4063C249.601 69.5387 246.24 68.6344 243.441 68.2478C234.149 66.924 223.199 69.8598 215.093 75.4299C209.896 85.3316 211.403 96.1246 211.403 96.1246C211.403 96.1246 212.603 96.1246 214.601 96.1377ZM219.89 97.8742C219.949 97.291 220.053 96.7209 220.165 96.1508C232.596 96.1704 255.296 96.2098 267.838 96.1573C268.225 98.3919 268.323 100.712 268.061 103.077C266.58 116.734 254.568 126.688 241.298 125.246C228.009 123.811 218.415 111.531 219.89 97.8742Z" fill="black"/>
<defs>
<linearGradient id="paint0_linear_486_274" x1="300" y1="0" x2="300" y2="340" gradientUnits="userSpaceOnUse">
<stop offset="0.355" stop-color="#7AB800"/>
<stop offset="1" stop-color="#365200"/>
</linearGradient>
</defs>
</svg>
