<svg width="600" height="340" viewBox="0 0 600 340" fill="none" xmlns="http://www.w3.org/2000/svg">
<rect width="600" height="340" fill="url(#paint0_linear_487_291)"/>
<path d="M110.276 279V252.818H127.611V257.382H115.811V263.621H126.46V268.185H115.811V279H110.276ZM138.663 279.384C136.677 279.384 134.96 278.962 133.511 278.118C132.07 277.266 130.958 276.081 130.174 274.564C129.39 273.038 128.998 271.27 128.998 269.259C128.998 267.23 129.39 265.457 130.174 263.94C130.958 262.415 132.07 261.23 133.511 260.386C134.96 259.534 136.677 259.108 138.663 259.108C140.648 259.108 142.362 259.534 143.802 260.386C145.251 261.23 146.367 262.415 147.151 263.94C147.935 265.457 148.327 267.23 148.327 269.259C148.327 271.27 147.935 273.038 147.151 274.564C146.367 276.081 145.251 277.266 143.802 278.118C142.362 278.962 140.648 279.384 138.663 279.384ZM138.688 275.165C139.592 275.165 140.346 274.909 140.951 274.398C141.556 273.878 142.012 273.17 142.319 272.276C142.634 271.381 142.792 270.362 142.792 269.22C142.792 268.078 142.634 267.06 142.319 266.165C142.012 265.27 141.556 264.562 140.951 264.043C140.346 263.523 139.592 263.263 138.688 263.263C137.776 263.263 137.009 263.523 136.387 264.043C135.773 264.562 135.309 265.27 134.994 266.165C134.687 267.06 134.533 268.078 134.533 269.22C134.533 270.362 134.687 271.381 134.994 272.276C135.309 273.17 135.773 273.878 136.387 274.398C137.009 274.909 137.776 275.165 138.688 275.165ZM155.717 259.364L159.322 266.229L163.016 259.364H168.603L162.914 269.182L168.756 279H163.195L159.322 272.212L155.512 279H149.887L155.717 269.182L150.092 259.364H155.717ZM180.006 279.384C177.995 279.384 176.265 278.957 174.816 278.105C173.376 277.244 172.268 276.051 171.492 274.526C170.725 273 170.342 271.244 170.342 269.259C170.342 267.247 170.729 265.483 171.505 263.966C172.289 262.44 173.401 261.251 174.842 260.399C176.282 259.538 177.995 259.108 179.981 259.108C181.694 259.108 183.194 259.419 184.481 260.041C185.768 260.663 186.786 261.537 187.536 262.662C188.286 263.787 188.7 265.108 188.776 266.625H183.637C183.492 265.645 183.109 264.857 182.487 264.26C181.873 263.655 181.067 263.352 180.07 263.352C179.227 263.352 178.489 263.582 177.859 264.043C177.237 264.494 176.751 265.155 176.401 266.024C176.052 266.893 175.877 267.946 175.877 269.182C175.877 270.435 176.048 271.5 176.388 272.378C176.738 273.256 177.228 273.925 177.859 274.385C178.489 274.845 179.227 275.075 180.07 275.075C180.692 275.075 181.251 274.947 181.745 274.692C182.248 274.436 182.661 274.065 182.985 273.58C183.317 273.085 183.535 272.493 183.637 271.803H188.776C188.691 273.303 188.282 274.624 187.549 275.766C186.825 276.899 185.823 277.786 184.545 278.425C183.266 279.064 181.754 279.384 180.006 279.384ZM201.135 279.384C199.15 279.384 197.432 278.962 195.983 278.118C194.543 277.266 193.431 276.081 192.647 274.564C191.863 273.038 191.471 271.27 191.471 269.259C191.471 267.23 191.863 265.457 192.647 263.94C193.431 262.415 194.543 261.23 195.983 260.386C197.432 259.534 199.15 259.108 201.135 259.108C203.121 259.108 204.834 259.534 206.275 260.386C207.723 261.23 208.84 262.415 209.624 263.94C210.408 265.457 210.8 267.23 210.8 269.259C210.8 271.27 210.408 273.038 209.624 274.564C208.84 276.081 207.723 277.266 206.275 278.118C204.834 278.962 203.121 279.384 201.135 279.384ZM201.161 275.165C202.064 275.165 202.819 274.909 203.424 274.398C204.029 273.878 204.485 273.17 204.792 272.276C205.107 271.381 205.265 270.362 205.265 269.22C205.265 268.078 205.107 267.06 204.792 266.165C204.485 265.27 204.029 264.562 203.424 264.043C202.819 263.523 202.064 263.263 201.161 263.263C200.249 263.263 199.482 263.523 198.86 264.043C198.246 264.562 197.782 265.27 197.466 266.165C197.159 267.06 197.006 268.078 197.006 269.22C197.006 270.362 197.159 271.381 197.466 272.276C197.782 273.17 198.246 273.878 198.86 274.398C199.482 274.909 200.249 275.165 201.161 275.165ZM219.787 267.648V279H214.341V259.364H219.532V262.828H219.762C220.196 261.686 220.925 260.783 221.948 260.118C222.971 259.445 224.211 259.108 225.668 259.108C227.032 259.108 228.221 259.406 229.235 260.003C230.249 260.599 231.037 261.452 231.6 262.56C232.162 263.659 232.444 264.972 232.444 266.497V279H226.998V267.469C227.006 266.267 226.699 265.33 226.077 264.656C225.455 263.974 224.598 263.634 223.507 263.634C222.775 263.634 222.127 263.791 221.564 264.107C221.01 264.422 220.576 264.882 220.26 265.487C219.953 266.084 219.796 266.804 219.787 267.648ZM242.182 267.648V279H236.736V259.364H241.926V262.828H242.156C242.591 261.686 243.32 260.783 244.342 260.118C245.365 259.445 246.605 259.108 248.062 259.108C249.426 259.108 250.615 259.406 251.629 260.003C252.643 260.599 253.432 261.452 253.994 262.56C254.557 263.659 254.838 264.972 254.838 266.497V279H249.392V267.469C249.401 266.267 249.094 265.33 248.472 264.656C247.849 263.974 246.993 263.634 245.902 263.634C245.169 263.634 244.521 263.791 243.959 264.107C243.405 264.422 242.97 264.882 242.655 265.487C242.348 266.084 242.19 266.804 242.182 267.648Z" fill="black"/>
<path d="M364.788 279H358.857L367.895 252.818H375.028L384.054 279H378.122L371.564 258.801H371.359L364.788 279ZM364.418 268.709H378.429V273.03H364.418V268.709ZM402.984 264.963L397.998 265.27C397.913 264.844 397.73 264.46 397.449 264.119C397.167 263.77 396.797 263.493 396.336 263.288C395.885 263.075 395.343 262.969 394.713 262.969C393.869 262.969 393.157 263.148 392.578 263.506C391.998 263.855 391.708 264.324 391.708 264.912C391.708 265.381 391.896 265.777 392.271 266.101C392.646 266.425 393.289 266.685 394.201 266.881L397.755 267.597C399.664 267.989 401.088 268.619 402.025 269.489C402.963 270.358 403.431 271.5 403.431 272.915C403.431 274.202 403.052 275.331 402.294 276.303C401.544 277.274 400.512 278.033 399.2 278.578C397.896 279.115 396.392 279.384 394.687 279.384C392.088 279.384 390.017 278.842 388.474 277.76C386.94 276.669 386.041 275.186 385.777 273.311L391.133 273.03C391.295 273.822 391.687 274.428 392.309 274.845C392.931 275.254 393.728 275.459 394.7 275.459C395.654 275.459 396.422 275.276 397.001 274.909C397.589 274.534 397.887 274.053 397.896 273.464C397.887 272.97 397.679 272.565 397.27 272.25C396.86 271.926 396.23 271.679 395.377 271.509L391.977 270.831C390.059 270.447 388.632 269.783 387.694 268.837C386.765 267.891 386.301 266.685 386.301 265.219C386.301 263.957 386.642 262.871 387.324 261.959C388.014 261.047 388.981 260.344 390.225 259.849C391.478 259.355 392.944 259.108 394.623 259.108C397.103 259.108 399.055 259.632 400.478 260.68C401.91 261.729 402.745 263.156 402.984 264.963ZM423.199 264.963L418.213 265.27C418.128 264.844 417.945 264.46 417.663 264.119C417.382 263.77 417.011 263.493 416.551 263.288C416.099 263.075 415.558 262.969 414.928 262.969C414.084 262.969 413.372 263.148 412.793 263.506C412.213 263.855 411.923 264.324 411.923 264.912C411.923 265.381 412.111 265.777 412.486 266.101C412.861 266.425 413.504 266.685 414.416 266.881L417.97 267.597C419.879 267.989 421.303 268.619 422.24 269.489C423.178 270.358 423.646 271.5 423.646 272.915C423.646 274.202 423.267 275.331 422.509 276.303C421.759 277.274 420.727 278.033 419.415 278.578C418.111 279.115 416.607 279.384 414.902 279.384C412.303 279.384 410.232 278.842 408.689 277.76C407.155 276.669 406.256 275.186 405.991 273.311L411.348 273.03C411.51 273.822 411.902 274.428 412.524 274.845C413.146 275.254 413.943 275.459 414.915 275.459C415.869 275.459 416.636 275.276 417.216 274.909C417.804 274.534 418.102 274.053 418.111 273.464C418.102 272.97 417.893 272.565 417.484 272.25C417.075 271.926 416.445 271.679 415.592 271.509L412.192 270.831C410.274 270.447 408.847 269.783 407.909 268.837C406.98 267.891 406.516 266.685 406.516 265.219C406.516 263.957 406.857 262.871 407.538 261.959C408.229 261.047 409.196 260.344 410.44 259.849C411.693 259.355 413.159 259.108 414.838 259.108C417.318 259.108 419.27 259.632 420.693 260.68C422.125 261.729 422.96 263.156 423.199 264.963ZM436.025 279.384C434.005 279.384 432.266 278.974 430.809 278.156C429.36 277.33 428.243 276.162 427.459 274.653C426.675 273.136 426.283 271.342 426.283 269.271C426.283 267.251 426.675 265.479 427.459 263.953C428.243 262.428 429.347 261.239 430.77 260.386C432.202 259.534 433.881 259.108 435.807 259.108C437.103 259.108 438.309 259.317 439.425 259.734C440.55 260.143 441.53 260.761 442.365 261.588C443.209 262.415 443.865 263.455 444.334 264.707C444.803 265.952 445.037 267.409 445.037 269.08V270.575H428.456V267.2H439.911C439.911 266.416 439.74 265.722 439.4 265.116C439.059 264.511 438.586 264.038 437.98 263.697C437.384 263.348 436.689 263.173 435.897 263.173C435.07 263.173 434.337 263.365 433.698 263.749C433.067 264.124 432.573 264.631 432.215 265.27C431.857 265.901 431.674 266.604 431.665 267.379V270.588C431.665 271.56 431.844 272.399 432.202 273.107C432.569 273.814 433.084 274.359 433.749 274.743C434.414 275.126 435.202 275.318 436.114 275.318C436.719 275.318 437.273 275.233 437.776 275.062C438.279 274.892 438.709 274.636 439.067 274.295C439.425 273.955 439.698 273.537 439.885 273.043L444.922 273.375C444.667 274.585 444.142 275.642 443.35 276.545C442.566 277.44 441.551 278.139 440.307 278.642C439.071 279.136 437.644 279.384 436.025 279.384ZM448.591 279V259.364H453.871V262.79H454.076C454.434 261.571 455.034 260.651 455.878 260.028C456.722 259.398 457.694 259.082 458.793 259.082C459.066 259.082 459.36 259.099 459.675 259.134C459.99 259.168 460.267 259.214 460.506 259.274V264.107C460.25 264.03 459.897 263.962 459.445 263.902C458.993 263.842 458.58 263.812 458.205 263.812C457.404 263.812 456.688 263.987 456.057 264.337C455.435 264.678 454.941 265.155 454.574 265.768C454.216 266.382 454.037 267.089 454.037 267.891V279H448.591ZM474.751 259.364V263.455H462.925V259.364H474.751ZM465.61 254.659H471.056V272.966C471.056 273.469 471.133 273.861 471.286 274.142C471.44 274.415 471.653 274.607 471.925 274.717C472.207 274.828 472.531 274.884 472.897 274.884C473.153 274.884 473.408 274.862 473.664 274.82C473.92 274.768 474.116 274.73 474.252 274.705L475.109 278.757C474.836 278.842 474.452 278.94 473.958 279.051C473.464 279.17 472.863 279.243 472.156 279.268C470.843 279.32 469.692 279.145 468.704 278.744C467.724 278.344 466.961 277.722 466.415 276.878C465.87 276.034 465.602 274.969 465.61 273.682V254.659Z" fill="black"/>
<path d="M305.202 279.384C303.395 279.384 301.835 279.06 300.523 278.412C299.21 277.764 298.2 276.886 297.493 275.778C296.794 274.662 296.445 273.418 296.445 272.045C296.445 271.023 296.649 270.115 297.058 269.322C297.467 268.53 298.038 267.801 298.771 267.136C299.504 266.463 300.357 265.794 301.328 265.129L306.403 261.793C307.06 261.375 307.541 260.936 307.848 260.476C308.155 260.007 308.308 259.5 308.308 258.955C308.308 258.435 308.099 257.953 307.682 257.51C307.264 257.067 306.672 256.849 305.905 256.858C305.393 256.858 304.95 256.973 304.575 257.203C304.2 257.425 303.906 257.719 303.693 258.085C303.489 258.443 303.386 258.844 303.386 259.287C303.386 259.832 303.54 260.386 303.847 260.949C304.153 261.511 304.563 262.108 305.074 262.739C305.585 263.361 306.143 264.034 306.749 264.759L319.162 279H313.486L303.131 267.469C302.449 266.693 301.767 265.884 301.085 265.04C300.412 264.187 299.849 263.284 299.398 262.33C298.946 261.366 298.72 260.322 298.72 259.197C298.72 257.928 299.014 256.786 299.602 255.771C300.199 254.757 301.034 253.956 302.108 253.368C303.182 252.771 304.435 252.473 305.866 252.473C307.264 252.473 308.47 252.759 309.484 253.33C310.507 253.892 311.291 254.642 311.837 255.58C312.391 256.509 312.668 257.531 312.668 258.648C312.668 259.884 312.361 261.004 311.747 262.01C311.142 263.007 310.29 263.902 309.19 264.695L303.847 268.543C303.122 269.071 302.585 269.612 302.236 270.166C301.895 270.712 301.724 271.236 301.724 271.739C301.724 272.361 301.878 272.919 302.185 273.413C302.491 273.908 302.926 274.3 303.489 274.589C304.051 274.871 304.712 275.011 305.47 275.011C306.391 275.011 307.298 274.803 308.193 274.385C309.097 273.959 309.915 273.358 310.648 272.582C311.389 271.798 311.982 270.869 312.425 269.795C312.868 268.722 313.089 267.533 313.089 266.229H317.602C317.602 267.831 317.428 269.276 317.078 270.562C316.729 271.841 316.243 272.957 315.621 273.912C314.999 274.858 314.287 275.634 313.486 276.239C313.23 276.401 312.983 276.554 312.744 276.699C312.506 276.844 312.259 276.997 312.003 277.159C311.031 277.943 309.945 278.51 308.743 278.859C307.55 279.209 306.369 279.384 305.202 279.384Z" fill="black"/>
<path d="M273.665 50.2671C263.175 51.901 253.797 58.7307 248.993 68.2401C246.117 73.9262 245.398 78.0763 245.398 88.8928V96.6703H252.882H260.365L260.496 88.2393C260.692 78.7299 260.986 77.2267 263.339 73.5667C269.678 63.7632 282.848 62.26 291.017 70.3969C293.632 72.9785 295.56 76.8019 296.115 80.3965L296.507 82.9454H303.991H311.507L311.311 80.2331C310.69 72.4556 307.291 65.3318 301.474 59.5804C296.965 55.1034 292.161 52.3911 286.083 50.8879C283.044 50.1363 276.574 49.8096 273.665 50.2671Z" fill="black"/>
<path d="M235.758 102.52C234.092 103.304 232.719 104.742 232.327 106.18C232.131 106.866 232 119.676 232 140.23C232 175.915 231.935 174.412 233.732 176.34C235.562 178.301 233.602 178.203 266.705 178.301C293.174 178.366 297.03 178.333 297.03 177.909C297.03 177.647 296.801 176.373 296.54 175.098C295.364 169.51 295.364 160.85 296.573 155.001C297.814 148.858 300.461 142.551 304.121 137.028C308.304 130.721 316.474 123.466 322.944 120.329L324.807 119.414V113.042C324.807 105.689 324.513 104.546 322.094 102.944L320.755 102.062L278.926 101.997C238.699 101.899 237 101.931 235.758 102.52ZM283.371 118.303C285.723 119.414 287.848 121.506 289.057 123.989C289.906 125.689 290.004 126.277 290.004 128.858C290.004 131.538 289.906 132.028 288.926 133.989C288.24 135.361 287.259 136.701 286.246 137.616L284.612 139.087V148.531C284.612 156.994 284.547 158.073 283.992 159.249C283.273 160.818 282.227 161.831 280.626 162.517C277.391 163.857 273.502 161.929 272.521 158.498C272.325 157.811 272.195 153.4 272.195 148.106V138.891L271.051 138.008C269.45 136.832 267.783 134.152 267.097 131.832C265.528 126.211 268.927 119.872 274.58 117.846C277.096 116.963 280.92 117.16 283.371 118.303Z" fill="black"/>
<path d="M342.29 120.264C321.735 121.735 305.004 137.159 301.409 157.942C300.625 162.452 300.919 171.242 302.063 175.621C303.631 181.928 306.67 188.202 310.428 192.908C312.749 195.816 317.748 200.489 320.559 202.385C325.983 206.012 332.617 208.626 338.924 209.607C342.976 210.26 351.472 210.064 355.034 209.28C364.217 207.221 370.916 203.528 377.582 196.829C383.04 191.372 386.471 185.947 388.66 179.216C390.36 174.085 390.654 171.83 390.654 164.805C390.621 159.119 390.523 157.877 389.869 155.164C384.478 133.009 364.903 118.63 342.29 120.264ZM351.668 135.786C354.544 137.126 356.897 139.479 358.237 142.355C359.217 144.413 359.283 144.773 359.283 148.139C359.283 151.57 359.217 151.864 358.204 153.955C356.799 156.766 354.512 159.053 351.701 160.458C349.61 161.471 349.316 161.537 345.884 161.537C342.453 161.537 342.159 161.471 340.068 160.458C337.257 159.053 334.97 156.766 333.565 153.955C332.552 151.864 332.486 151.57 332.486 148.139C332.486 144.773 332.552 144.413 333.532 142.355C335.199 138.825 338.107 136.276 341.963 135.002C342.78 134.741 344.447 134.61 346.375 134.675C349.087 134.741 349.773 134.904 351.668 135.786ZM352.583 165.981C357.812 167.288 363.596 170.948 366.831 175.033C369.576 178.497 371.864 183.268 372.354 186.634C372.779 189.379 375.033 189.15 345.884 189.15C316.735 189.15 318.99 189.379 319.415 186.634C320.199 181.372 324.349 174.641 329.022 171.013C335.95 165.72 344.283 163.922 352.583 165.981Z" fill="black"/>
<defs>
<linearGradient id="paint0_linear_487_291" x1="300" y1="0" x2="300" y2="340" gradientUnits="userSpaceOnUse">
<stop offset="0.545" stop-color="#006DDD"/>
<stop offset="1" stop-color="#003B77"/>
</linearGradient>
</defs>
</svg>
