<svg width="600" height="340" viewBox="0 0 600 340" fill="none" xmlns="http://www.w3.org/2000/svg">
<rect width="600" height="340" fill="url(#paint0_linear_487_290)"/>
<path d="M110.276 279V252.818H127.611V257.382H115.811V263.621H126.46V268.185H115.811V279H110.276ZM138.663 279.384C136.677 279.384 134.96 278.962 133.511 278.118C132.07 277.266 130.958 276.081 130.174 274.564C129.39 273.038 128.998 271.27 128.998 269.259C128.998 267.23 129.39 265.457 130.174 263.94C130.958 262.415 132.07 261.23 133.511 260.386C134.96 259.534 136.677 259.108 138.663 259.108C140.648 259.108 142.362 259.534 143.802 260.386C145.251 261.23 146.367 262.415 147.151 263.94C147.935 265.457 148.327 267.23 148.327 269.259C148.327 271.27 147.935 273.038 147.151 274.564C146.367 276.081 145.251 277.266 143.802 278.118C142.362 278.962 140.648 279.384 138.663 279.384ZM138.688 275.165C139.592 275.165 140.346 274.909 140.951 274.398C141.556 273.878 142.012 273.17 142.319 272.276C142.634 271.381 142.792 270.362 142.792 269.22C142.792 268.078 142.634 267.06 142.319 266.165C142.012 265.27 141.556 264.562 140.951 264.043C140.346 263.523 139.592 263.263 138.688 263.263C137.776 263.263 137.009 263.523 136.387 264.043C135.773 264.562 135.309 265.27 134.994 266.165C134.687 267.06 134.533 268.078 134.533 269.22C134.533 270.362 134.687 271.381 134.994 272.276C135.309 273.17 135.773 273.878 136.387 274.398C137.009 274.909 137.776 275.165 138.688 275.165ZM155.717 259.364L159.322 266.229L163.016 259.364H168.603L162.914 269.182L168.756 279H163.195L159.322 272.212L155.512 279H149.887L155.717 269.182L150.092 259.364H155.717ZM180.006 279.384C177.995 279.384 176.265 278.957 174.816 278.105C173.376 277.244 172.268 276.051 171.492 274.526C170.725 273 170.342 271.244 170.342 269.259C170.342 267.247 170.729 265.483 171.505 263.966C172.289 262.44 173.401 261.251 174.842 260.399C176.282 259.538 177.995 259.108 179.981 259.108C181.694 259.108 183.194 259.419 184.481 260.041C185.768 260.663 186.786 261.537 187.536 262.662C188.286 263.787 188.7 265.108 188.776 266.625H183.637C183.492 265.645 183.109 264.857 182.487 264.26C181.873 263.655 181.067 263.352 180.07 263.352C179.227 263.352 178.489 263.582 177.859 264.043C177.237 264.494 176.751 265.155 176.401 266.024C176.052 266.893 175.877 267.946 175.877 269.182C175.877 270.435 176.048 271.5 176.388 272.378C176.738 273.256 177.228 273.925 177.859 274.385C178.489 274.845 179.227 275.075 180.07 275.075C180.692 275.075 181.251 274.947 181.745 274.692C182.248 274.436 182.661 274.065 182.985 273.58C183.317 273.085 183.535 272.493 183.637 271.803H188.776C188.691 273.303 188.282 274.624 187.549 275.766C186.825 276.899 185.823 277.786 184.545 278.425C183.266 279.064 181.754 279.384 180.006 279.384ZM201.135 279.384C199.15 279.384 197.432 278.962 195.983 278.118C194.543 277.266 193.431 276.081 192.647 274.564C191.863 273.038 191.471 271.27 191.471 269.259C191.471 267.23 191.863 265.457 192.647 263.94C193.431 262.415 194.543 261.23 195.983 260.386C197.432 259.534 199.15 259.108 201.135 259.108C203.121 259.108 204.834 259.534 206.275 260.386C207.723 261.23 208.84 262.415 209.624 263.94C210.408 265.457 210.8 267.23 210.8 269.259C210.8 271.27 210.408 273.038 209.624 274.564C208.84 276.081 207.723 277.266 206.275 278.118C204.834 278.962 203.121 279.384 201.135 279.384ZM201.161 275.165C202.064 275.165 202.819 274.909 203.424 274.398C204.029 273.878 204.485 273.17 204.792 272.276C205.107 271.381 205.265 270.362 205.265 269.22C205.265 268.078 205.107 267.06 204.792 266.165C204.485 265.27 204.029 264.562 203.424 264.043C202.819 263.523 202.064 263.263 201.161 263.263C200.249 263.263 199.482 263.523 198.86 264.043C198.246 264.562 197.782 265.27 197.466 266.165C197.159 267.06 197.006 268.078 197.006 269.22C197.006 270.362 197.159 271.381 197.466 272.276C197.782 273.17 198.246 273.878 198.86 274.398C199.482 274.909 200.249 275.165 201.161 275.165ZM219.787 267.648V279H214.341V259.364H219.532V262.828H219.762C220.196 261.686 220.925 260.783 221.948 260.118C222.971 259.445 224.211 259.108 225.668 259.108C227.032 259.108 228.221 259.406 229.235 260.003C230.249 260.599 231.037 261.452 231.6 262.56C232.162 263.659 232.444 264.972 232.444 266.497V279H226.998V267.469C227.006 266.267 226.699 265.33 226.077 264.656C225.455 263.974 224.598 263.634 223.507 263.634C222.775 263.634 222.127 263.791 221.564 264.107C221.01 264.422 220.576 264.882 220.26 265.487C219.953 266.084 219.796 266.804 219.787 267.648ZM242.182 267.648V279H236.736V259.364H241.926V262.828H242.156C242.591 261.686 243.32 260.783 244.342 260.118C245.365 259.445 246.605 259.108 248.062 259.108C249.426 259.108 250.615 259.406 251.629 260.003C252.643 260.599 253.432 261.452 253.994 262.56C254.557 263.659 254.838 264.972 254.838 266.497V279H249.392V267.469C249.401 266.267 249.094 265.33 248.472 264.656C247.849 263.974 246.993 263.634 245.902 263.634C245.169 263.634 244.521 263.791 243.959 264.107C243.405 264.422 242.97 264.882 242.655 265.487C242.348 266.084 242.19 266.804 242.182 267.648Z" fill="black"/>
<path d="M364.788 279H358.857L367.895 252.818H375.028L384.054 279H378.122L371.564 258.801H371.359L364.788 279ZM364.418 268.709H378.429V273.03H364.418V268.709ZM402.984 264.963L397.998 265.27C397.913 264.844 397.73 264.46 397.449 264.119C397.167 263.77 396.797 263.493 396.336 263.288C395.885 263.075 395.343 262.969 394.713 262.969C393.869 262.969 393.157 263.148 392.578 263.506C391.998 263.855 391.708 264.324 391.708 264.912C391.708 265.381 391.896 265.777 392.271 266.101C392.646 266.425 393.289 266.685 394.201 266.881L397.755 267.597C399.664 267.989 401.088 268.619 402.025 269.489C402.963 270.358 403.431 271.5 403.431 272.915C403.431 274.202 403.052 275.331 402.294 276.303C401.544 277.274 400.512 278.033 399.2 278.578C397.896 279.115 396.392 279.384 394.687 279.384C392.088 279.384 390.017 278.842 388.474 277.76C386.94 276.669 386.041 275.186 385.777 273.311L391.133 273.03C391.295 273.822 391.687 274.428 392.309 274.845C392.931 275.254 393.728 275.459 394.7 275.459C395.654 275.459 396.422 275.276 397.001 274.909C397.589 274.534 397.887 274.053 397.896 273.464C397.887 272.97 397.679 272.565 397.27 272.25C396.86 271.926 396.23 271.679 395.377 271.509L391.977 270.831C390.059 270.447 388.632 269.783 387.694 268.837C386.765 267.891 386.301 266.685 386.301 265.219C386.301 263.957 386.642 262.871 387.324 261.959C388.014 261.047 388.981 260.344 390.225 259.849C391.478 259.355 392.944 259.108 394.623 259.108C397.103 259.108 399.055 259.632 400.478 260.68C401.91 261.729 402.745 263.156 402.984 264.963ZM423.199 264.963L418.213 265.27C418.128 264.844 417.945 264.46 417.663 264.119C417.382 263.77 417.011 263.493 416.551 263.288C416.099 263.075 415.558 262.969 414.928 262.969C414.084 262.969 413.372 263.148 412.793 263.506C412.213 263.855 411.923 264.324 411.923 264.912C411.923 265.381 412.111 265.777 412.486 266.101C412.861 266.425 413.504 266.685 414.416 266.881L417.97 267.597C419.879 267.989 421.303 268.619 422.24 269.489C423.178 270.358 423.646 271.5 423.646 272.915C423.646 274.202 423.267 275.331 422.509 276.303C421.759 277.274 420.727 278.033 419.415 278.578C418.111 279.115 416.607 279.384 414.902 279.384C412.303 279.384 410.232 278.842 408.689 277.76C407.155 276.669 406.256 275.186 405.991 273.311L411.348 273.03C411.51 273.822 411.902 274.428 412.524 274.845C413.146 275.254 413.943 275.459 414.915 275.459C415.869 275.459 416.636 275.276 417.216 274.909C417.804 274.534 418.102 274.053 418.111 273.464C418.102 272.97 417.893 272.565 417.484 272.25C417.075 271.926 416.445 271.679 415.592 271.509L412.192 270.831C410.274 270.447 408.847 269.783 407.909 268.837C406.98 267.891 406.516 266.685 406.516 265.219C406.516 263.957 406.857 262.871 407.538 261.959C408.229 261.047 409.196 260.344 410.44 259.849C411.693 259.355 413.159 259.108 414.838 259.108C417.318 259.108 419.27 259.632 420.693 260.68C422.125 261.729 422.96 263.156 423.199 264.963ZM436.025 279.384C434.005 279.384 432.266 278.974 430.809 278.156C429.36 277.33 428.243 276.162 427.459 274.653C426.675 273.136 426.283 271.342 426.283 269.271C426.283 267.251 426.675 265.479 427.459 263.953C428.243 262.428 429.347 261.239 430.77 260.386C432.202 259.534 433.881 259.108 435.807 259.108C437.103 259.108 438.309 259.317 439.425 259.734C440.55 260.143 441.53 260.761 442.365 261.588C443.209 262.415 443.865 263.455 444.334 264.707C444.803 265.952 445.037 267.409 445.037 269.08V270.575H428.456V267.2H439.911C439.911 266.416 439.74 265.722 439.4 265.116C439.059 264.511 438.586 264.038 437.98 263.697C437.384 263.348 436.689 263.173 435.897 263.173C435.07 263.173 434.337 263.365 433.698 263.749C433.067 264.124 432.573 264.631 432.215 265.27C431.857 265.901 431.674 266.604 431.665 267.379V270.588C431.665 271.56 431.844 272.399 432.202 273.107C432.569 273.814 433.084 274.359 433.749 274.743C434.414 275.126 435.202 275.318 436.114 275.318C436.719 275.318 437.273 275.233 437.776 275.062C438.279 274.892 438.709 274.636 439.067 274.295C439.425 273.955 439.698 273.537 439.885 273.043L444.922 273.375C444.667 274.585 444.142 275.642 443.35 276.545C442.566 277.44 441.551 278.139 440.307 278.642C439.071 279.136 437.644 279.384 436.025 279.384ZM448.591 279V259.364H453.871V262.79H454.076C454.434 261.571 455.034 260.651 455.878 260.028C456.722 259.398 457.694 259.082 458.793 259.082C459.066 259.082 459.36 259.099 459.675 259.134C459.99 259.168 460.267 259.214 460.506 259.274V264.107C460.25 264.03 459.897 263.962 459.445 263.902C458.993 263.842 458.58 263.812 458.205 263.812C457.404 263.812 456.688 263.987 456.057 264.337C455.435 264.678 454.941 265.155 454.574 265.768C454.216 266.382 454.037 267.089 454.037 267.891V279H448.591ZM474.751 259.364V263.455H462.925V259.364H474.751ZM465.61 254.659H471.056V272.966C471.056 273.469 471.133 273.861 471.286 274.142C471.44 274.415 471.653 274.607 471.925 274.717C472.207 274.828 472.531 274.884 472.897 274.884C473.153 274.884 473.408 274.862 473.664 274.82C473.92 274.768 474.116 274.73 474.252 274.705L475.109 278.757C474.836 278.842 474.452 278.94 473.958 279.051C473.464 279.17 472.863 279.243 472.156 279.268C470.843 279.32 469.692 279.145 468.704 278.744C467.724 278.344 466.961 277.722 466.415 276.878C465.87 276.034 465.602 274.969 465.61 273.682V254.659Z" fill="black"/>
<path d="M305.202 279.384C303.395 279.384 301.835 279.06 300.523 278.412C299.21 277.764 298.2 276.886 297.493 275.778C296.794 274.662 296.445 273.418 296.445 272.045C296.445 271.023 296.649 270.115 297.058 269.322C297.467 268.53 298.038 267.801 298.771 267.136C299.504 266.463 300.357 265.794 301.328 265.129L306.403 261.793C307.06 261.375 307.541 260.936 307.848 260.476C308.155 260.007 308.308 259.5 308.308 258.955C308.308 258.435 308.099 257.953 307.682 257.51C307.264 257.067 306.672 256.849 305.905 256.858C305.393 256.858 304.95 256.973 304.575 257.203C304.2 257.425 303.906 257.719 303.693 258.085C303.489 258.443 303.386 258.844 303.386 259.287C303.386 259.832 303.54 260.386 303.847 260.949C304.153 261.511 304.563 262.108 305.074 262.739C305.585 263.361 306.143 264.034 306.749 264.759L319.162 279H313.486L303.131 267.469C302.449 266.693 301.767 265.884 301.085 265.04C300.412 264.187 299.849 263.284 299.398 262.33C298.946 261.366 298.72 260.322 298.72 259.197C298.72 257.928 299.014 256.786 299.602 255.771C300.199 254.757 301.034 253.956 302.108 253.368C303.182 252.771 304.435 252.473 305.866 252.473C307.264 252.473 308.47 252.759 309.484 253.33C310.507 253.892 311.291 254.642 311.837 255.58C312.391 256.509 312.668 257.531 312.668 258.648C312.668 259.884 312.361 261.004 311.747 262.01C311.142 263.007 310.29 263.902 309.19 264.695L303.847 268.543C303.122 269.071 302.585 269.612 302.236 270.166C301.895 270.712 301.724 271.236 301.724 271.739C301.724 272.361 301.878 272.919 302.185 273.413C302.491 273.908 302.926 274.3 303.489 274.589C304.051 274.871 304.712 275.011 305.47 275.011C306.391 275.011 307.298 274.803 308.193 274.385C309.097 273.959 309.915 273.358 310.648 272.582C311.389 271.798 311.982 270.869 312.425 269.795C312.868 268.722 313.089 267.533 313.089 266.229H317.602C317.602 267.831 317.428 269.276 317.078 270.562C316.729 271.841 316.243 272.957 315.621 273.912C314.999 274.858 314.287 275.634 313.486 276.239C313.23 276.401 312.983 276.554 312.744 276.699C312.506 276.844 312.259 276.997 312.003 277.159C311.031 277.943 309.945 278.51 308.743 278.859C307.55 279.209 306.369 279.384 305.202 279.384Z" fill="black"/>
<g clip-path="url(#clip0_487_290)">
<path fill-rule="evenodd" clip-rule="evenodd" d="M191.775 200.438H215.443C213.694 199.985 212.378 198.363 212.378 196.477V126.183C212.886 126.24 213.394 126.258 213.901 126.258C214.409 126.258 214.916 126.24 215.424 126.183C215.931 126.919 216.495 127.598 217.116 128.239C217.567 128.691 218.037 129.088 218.526 129.446C218.789 129.653 219.052 129.842 219.334 130.031V195.308H385.121V83.4258H270.749C270.072 81.8415 269.113 80.4269 267.873 79.1444L267.591 78.8615C267.271 78.5597 266.951 78.2579 266.613 77.975C266.669 77.6544 266.726 77.3338 266.763 77.0131H387.471C389.727 77.0131 391.55 78.8615 391.55 81.1059V196.458C391.55 198.363 390.253 199.966 388.486 200.419H413.225C415.857 200.419 418 202.569 418 205.209C418 207.85 415.857 210 413.225 210H191.775C189.143 210 187 207.85 187 205.209C187 202.588 189.143 200.438 191.775 200.438ZM295.112 110.887C294.736 110.51 294.285 110.321 293.759 110.321C293.251 110.321 292.781 110.51 292.405 110.887L290.375 112.924C289.83 112.566 289.247 112.264 288.626 111.981C288.025 111.698 287.405 111.472 286.765 111.245V108.096C286.765 107.567 286.577 107.115 286.22 106.738C285.844 106.36 285.412 106.191 284.867 106.191H280.919C280.411 106.191 279.979 106.379 279.584 106.738C279.208 107.115 279.02 107.549 279.02 108.096V110.981C278.362 111.132 277.723 111.34 277.103 111.566C276.482 111.811 275.9 112.075 275.336 112.377L273.061 110.133C272.704 109.755 272.271 109.567 271.745 109.567C271.219 109.567 270.786 109.755 270.392 110.133L267.666 112.924C267.29 113.301 267.102 113.754 267.102 114.282C267.102 114.81 267.29 115.263 267.666 115.64L269.715 117.696C269.358 118.243 269.057 118.827 268.775 119.45C268.493 120.053 268.249 120.676 268.042 121.317H264.902C264.376 121.317 263.925 121.506 263.549 121.864C263.173 122.241 263.004 122.675 263.004 123.222V127.183C263.004 127.692 263.192 128.126 263.549 128.522C263.925 128.899 264.357 129.088 264.902 129.088H267.779C267.929 129.748 268.136 130.389 268.361 131.011C268.606 131.634 268.869 132.237 269.17 132.822L266.933 135.066C266.557 135.425 266.369 135.859 266.369 136.387C266.369 136.915 266.557 137.349 266.933 137.745L269.715 140.517C270.091 140.875 270.542 141.045 271.068 141.045C271.595 141.045 272.046 140.875 272.422 140.517L274.471 138.424C275.016 138.782 275.599 139.084 276.219 139.367C276.821 139.65 277.441 139.895 278.08 140.083V143.233C278.08 143.761 278.268 144.214 278.625 144.572C279.001 144.949 279.434 145.119 279.979 145.119H283.927C284.434 145.119 284.867 144.931 285.261 144.572C285.637 144.195 285.825 143.761 285.825 143.233V140.347C286.483 140.197 287.123 139.989 287.743 139.763C288.363 139.518 288.965 139.253 289.548 138.952L291.785 141.196C292.142 141.573 292.574 141.762 293.119 141.762C293.665 141.762 294.097 141.573 294.454 141.196L297.255 138.424C297.612 138.046 297.781 137.594 297.781 137.066C297.781 136.538 297.612 136.085 297.255 135.708L295.168 133.652C295.526 133.105 295.826 132.52 296.108 131.898C296.39 131.294 296.616 130.672 296.823 130.031H299.962C300.489 130.031 300.94 129.842 301.316 129.484C301.692 129.106 301.861 128.673 301.861 128.126V124.165C301.861 123.656 301.673 123.222 301.316 122.826C300.94 122.449 300.507 122.26 299.962 122.26H297.086C296.936 121.619 296.729 120.996 296.503 120.355C296.259 119.714 295.996 119.129 295.695 118.563L297.932 116.281C298.308 115.923 298.496 115.489 298.496 114.961C298.496 114.433 298.308 113.999 297.932 113.603L295.112 110.887ZM282.423 117.922C283.476 117.922 284.491 118.129 285.431 118.526C286.371 118.94 287.198 119.487 287.893 120.185C288.589 120.883 289.134 121.713 289.548 122.656C289.942 123.618 290.149 124.618 290.149 125.674C290.149 126.73 289.942 127.748 289.548 128.691C289.134 129.635 288.589 130.464 287.893 131.162C287.198 131.86 286.371 132.407 285.431 132.822C284.472 133.218 283.476 133.426 282.423 133.426C281.37 133.426 280.355 133.218 279.415 132.822C278.475 132.407 277.648 131.86 276.952 131.162C276.257 130.464 275.712 129.635 275.298 128.691C274.903 127.73 274.697 126.73 274.697 125.674C274.697 124.618 274.903 123.599 275.298 122.656C275.712 121.713 276.257 120.883 276.952 120.185C277.648 119.487 278.475 118.94 279.415 118.526C280.355 118.111 281.351 117.922 282.423 117.922ZM250.258 69.0728C249.675 68.4881 248.999 68.2052 248.228 68.2052C247.438 68.2052 246.761 68.4881 246.198 69.0728L243.096 72.1659C242.269 71.619 241.385 71.1474 240.464 70.7325C239.543 70.3176 238.603 69.9404 237.663 69.6386V64.8668C237.663 64.0558 237.4 63.3957 236.836 62.8299C236.272 62.2829 235.595 62 234.787 62H228.827C228.057 62 227.399 62.2829 226.816 62.8299C226.252 63.3957 225.97 64.0558 225.97 64.8668V69.2425C224.974 69.4688 223.996 69.7706 223.075 70.129C222.135 70.4873 221.251 70.9023 220.406 71.3738L216.965 67.9788C216.42 67.413 215.781 67.1113 214.973 67.1113C214.183 67.1113 213.506 67.413 212.942 67.9788L208.769 72.1848C208.186 72.7695 207.904 73.4485 207.904 74.2217C207.904 75.0139 208.186 75.6929 208.769 76.2587L211.852 79.3707C211.307 80.2006 210.837 81.087 210.423 82.0112C210.01 82.9354 209.634 83.8784 209.333 84.8215H204.596C203.787 84.8215 203.111 85.1044 202.565 85.6513C202.001 86.2172 201.738 86.8961 201.738 87.6883V93.6671C201.738 94.4216 202.02 95.1005 202.565 95.6852C203.129 96.2511 203.806 96.534 204.596 96.534H208.938C209.183 97.5336 209.465 98.4955 209.822 99.4385C210.179 100.382 210.593 101.287 211.063 102.173L207.679 105.568C207.115 106.115 206.814 106.756 206.814 107.567C206.814 108.36 207.115 109.039 207.679 109.604L211.871 113.848C212.454 114.395 213.13 114.659 213.901 114.659C214.691 114.659 215.367 114.395 215.931 113.848L219.033 110.679C219.86 111.226 220.744 111.698 221.665 112.113C222.586 112.528 223.526 112.905 224.466 113.207V117.979C224.466 118.79 224.748 119.45 225.293 120.016C225.857 120.581 226.534 120.845 227.323 120.845H233.283C234.053 120.845 234.711 120.563 235.294 120.016C235.858 119.45 236.14 118.79 236.14 117.979V113.622C237.136 113.395 238.095 113.094 239.035 112.735C239.975 112.377 240.877 111.962 241.761 111.509L245.126 114.904C245.671 115.47 246.329 115.772 247.137 115.772C247.946 115.772 248.623 115.47 249.149 114.904L253.379 110.698C253.924 110.114 254.187 109.435 254.187 108.661C254.187 107.869 253.924 107.19 253.379 106.624L250.258 103.494C250.803 102.664 251.273 101.777 251.687 100.853C252.1 99.9289 252.476 98.9859 252.777 98.0428H257.533C258.342 98.0428 259 97.7599 259.563 97.2129C260.127 96.6471 260.391 95.9681 260.391 95.176V89.1971C260.391 88.4239 260.109 87.7637 259.563 87.179C259 86.6132 258.342 86.3303 257.533 86.3303H253.172C252.927 85.3684 252.646 84.4065 252.288 83.4635C251.931 82.5016 251.518 81.5963 251.066 80.7475L254.45 77.3149C255.014 76.7679 255.315 76.1078 255.315 75.3157C255.315 74.5235 255.014 73.8445 254.45 73.2787L250.258 69.0728ZM231.064 79.7102C232.662 79.7102 234.185 80.012 235.614 80.6155C237.042 81.2379 238.283 82.0678 239.336 83.124C240.389 84.1802 241.216 85.425 241.836 86.8584C242.438 88.3107 242.739 89.8195 242.739 91.4227C242.739 93.0259 242.438 94.5536 241.836 95.987C241.216 97.4204 240.389 98.6652 239.336 99.7214C238.283 100.778 237.042 101.607 235.614 102.23C234.185 102.833 232.662 103.135 231.064 103.135C229.467 103.135 227.944 102.833 226.515 102.23C225.086 101.607 223.846 100.778 222.793 99.7214C221.74 98.6652 220.913 97.4204 220.293 95.987C219.691 94.5536 219.39 93.0259 219.39 91.4227C219.39 89.8195 219.691 88.2918 220.293 86.8584C220.913 85.425 221.74 84.1802 222.793 83.124C223.846 82.0678 225.086 81.2379 226.515 80.6155C227.944 80.012 229.467 79.7102 231.064 79.7102ZM311.768 116.847L328.63 100.476C334.646 106.511 336.883 108.756 342.955 114.772L355.344 102.154L347.88 94.6668L368.879 94.4781V115.715L361.716 108.529C354.253 116.111 350.512 119.978 343.011 127.503L328.518 113.188L318.141 123.241L311.768 116.847ZM256.48 154.719H282.761V161.528H266.331V166.602H281.558V173.108H266.331V179.389H283.25V186.613H256.48V154.719ZM287.931 186.613V154.719H304.286C307.312 154.719 309.644 154.983 311.241 155.511C312.839 156.04 314.136 157.001 315.133 158.416C316.11 159.831 316.599 161.566 316.599 163.603C316.599 165.376 316.223 166.903 315.471 168.186C314.719 169.468 313.685 170.525 312.369 171.317C311.542 171.826 310.377 172.241 308.929 172.58C310.095 172.976 310.941 173.354 311.486 173.75C311.843 174.014 312.369 174.58 313.046 175.428C313.723 176.277 314.193 176.937 314.418 177.409L319.193 186.613H308.102L302.857 176.881C302.199 175.617 301.598 174.806 301.09 174.429C300.376 173.938 299.567 173.693 298.684 173.693H297.819V186.613H287.931ZM297.781 167.677H301.936C302.387 167.677 303.252 167.526 304.549 167.243C305.207 167.111 305.733 166.79 306.147 166.243C306.561 165.696 306.767 165.093 306.767 164.395C306.767 163.357 306.448 162.565 305.79 162.018C305.132 161.471 303.91 161.188 302.124 161.188H297.8V167.677H297.781ZM321.543 154.719H337.879C341.432 154.719 344.102 155.568 345.869 157.265C347.636 158.963 348.52 161.377 348.52 164.527C348.52 167.752 347.542 170.279 345.625 172.09C343.688 173.901 340.737 174.806 336.77 174.806H331.375V186.613H321.524V154.719H321.543ZM331.394 168.356H333.819C335.736 168.356 337.071 168.016 337.842 167.356C338.613 166.696 339.007 165.847 339.007 164.81C339.007 163.81 338.669 162.961 337.992 162.264C337.315 161.566 336.075 161.226 334.214 161.226H331.394V168.356ZM295.789 202.229H309.211C310.471 202.229 311.505 203.267 311.505 204.53C311.505 205.794 310.471 206.831 309.211 206.831H295.789C294.529 206.831 293.495 205.794 293.495 204.53C293.495 203.248 294.529 202.229 295.789 202.229Z" fill="black"/>
</g>
<defs>
<linearGradient id="paint0_linear_487_290" x1="300" y1="0" x2="300" y2="340" gradientUnits="userSpaceOnUse">
<stop offset="0.545" stop-color="#006DDD"/>
<stop offset="1" stop-color="#003B77"/>
</linearGradient>
<clipPath id="clip0_487_290">
<rect width="231" height="148" fill="white" transform="translate(187 62)"/>
</clipPath>
</defs>
</svg>
