<svg width="100" height="76" viewBox="0 0 100 76" fill="none" xmlns="http://www.w3.org/2000/svg">
<path d="M77.1377 16.35L78.0752 14.9313L79.7127 15.925L80.4377 16.4438C82.1877 17.7938 85.8689 21.2438 86.6627 26.9688C88.0564 26.7188 89.4627 26.5938 90.8689 26.5938C94.2064 26.5938 96.4502 27.3687 97.7252 28.0125L98.3814 28.3688L98.8064 28.65L100 29.625L99.5877 30.875C98.9465 32.5886 97.9448 34.1446 96.6502 35.4375C94.8377 37.3063 91.6502 39.5125 86.5939 39.8L85.4814 39.8313H84.5564C82.2439 45.9375 79.1377 52.8188 73.9189 58.9938C70.8224 62.6631 67.1494 65.8042 63.0439 68.2938C58.122 71.2138 52.7322 73.2607 47.1127 74.3437C43.0877 75.125 39.0002 75.5125 34.9064 75.5C25.8439 75.5 17.8439 73.7 12.9252 70.55C8.53143 67.7438 5.15643 63.1625 2.88768 56.9438C0.902222 51.2613 -0.072919 45.2751 0.00643411 39.2563C-0.00384928 38.4846 0.262938 37.7348 0.758354 37.143C1.25377 36.5513 1.94497 36.1568 2.70643 36.0312L3.13143 36H69.0064L69.5814 35.9562L70.5127 35.8563C72.1127 35.6438 74.5502 35.1688 76.2627 34.1688C74.2127 30.775 73.6314 26.8062 74.5877 22.5812C74.9882 20.8189 75.6186 19.1168 76.4627 17.5188L77.1377 16.35ZM18.0627 24.15L18.3127 24.1937C18.4269 24.2365 18.5297 24.3049 18.6131 24.3938C18.6966 24.4827 18.7585 24.5896 18.7939 24.7063L18.8314 24.9563V33.175L18.7939 33.4313C18.7578 33.5485 18.695 33.6559 18.6104 33.7448C18.5258 33.8337 18.4218 33.9018 18.3064 33.9437L18.0627 33.9812H9.23768C9.0732 33.979 8.91369 33.9246 8.78223 33.8257C8.65077 33.7268 8.55418 33.5887 8.50643 33.4313L8.46268 33.1813V24.95L8.50643 24.7C8.5417 24.5816 8.60413 24.473 8.68877 24.3829C8.7734 24.2929 8.8779 24.2238 8.99393 24.1813L9.23768 24.1437L18.0627 24.15ZM30.2314 24.15L30.4752 24.1937C30.5905 24.2357 30.6946 24.3038 30.7792 24.3927C30.8638 24.4816 30.9266 24.589 30.9627 24.7063L31.0002 24.9563V33.175L30.9564 33.4313C30.9203 33.5485 30.8575 33.6559 30.7729 33.7448C30.6883 33.8337 30.5843 33.9018 30.4689 33.9437L30.2252 33.9812H21.4002C21.236 33.9781 21.0769 33.9232 20.9456 33.8245C20.8143 33.7258 20.7175 33.5882 20.6689 33.4313L20.6252 33.1875V24.9563C20.6239 24.789 20.6742 24.6254 20.7692 24.4879C20.8643 24.3503 20.9995 24.2454 21.1564 24.1875L21.4002 24.1437L30.2314 24.15ZM42.5814 24.15L42.8252 24.1937C42.9394 24.2365 43.0422 24.3049 43.1256 24.3938C43.2091 24.4827 43.271 24.5896 43.3064 24.7063L43.3502 24.9563V33.175L43.3064 33.4313C43.2703 33.5485 43.2075 33.6559 43.1229 33.7448C43.0383 33.8337 42.9343 33.9018 42.8189 33.9437L42.5752 33.9812H33.7502C33.5857 33.979 33.4262 33.9246 33.2947 33.8257C33.1633 33.7268 33.0667 33.5887 33.0189 33.4313L32.9814 33.1813V24.95L33.0189 24.7C33.0542 24.5816 33.1166 24.473 33.2013 24.3829C33.2859 24.2929 33.3904 24.2238 33.5064 24.1813L33.7502 24.1437L42.5814 24.15ZM54.7814 24.15L55.0252 24.1937C55.1405 24.2357 55.2446 24.3038 55.3292 24.3927C55.4138 24.4816 55.4766 24.589 55.5127 24.7063L55.5564 24.9563V33.175C55.5578 33.3422 55.5075 33.5058 55.4124 33.6434C55.3173 33.781 55.1821 33.8859 55.0252 33.9437L54.7752 33.9812H45.9564C45.792 33.979 45.6324 33.9246 45.501 33.8257C45.3695 33.7268 45.2729 33.5887 45.2252 33.4313L45.1877 33.1813V24.95L45.2252 24.7C45.2604 24.5816 45.3229 24.473 45.4075 24.3829C45.4922 24.2929 45.5966 24.2238 45.7127 24.1813L45.9627 24.1437H54.7877L54.7814 24.15ZM67.0939 24.15L67.3377 24.1937C67.453 24.2357 67.5571 24.3038 67.6417 24.3927C67.7263 24.4816 67.7891 24.589 67.8252 24.7063L67.8627 24.9563V33.175C67.864 33.3422 67.8137 33.5058 67.7186 33.6434C67.6236 33.781 67.4883 33.8859 67.3314 33.9437L67.0877 33.9812H58.2627C58.0982 33.979 57.9387 33.9246 57.8072 33.8257C57.6758 33.7268 57.5792 33.5887 57.5314 33.4313L57.4939 33.1813V24.95L57.5314 24.7C57.5667 24.5816 57.6291 24.473 57.7138 24.3829C57.7984 24.2929 57.9029 24.2238 58.0189 24.1813L58.2689 24.1437H67.0877L67.0939 24.15ZM30.2189 12.325L30.4689 12.3687C30.5824 12.4108 30.6848 12.4783 30.7682 12.5661C30.8517 12.6538 30.9139 12.7595 30.9502 12.875L30.9939 13.1312V21.35C30.9953 21.5172 30.945 21.6808 30.8499 21.8184C30.7548 21.956 30.6196 22.0609 30.4627 22.1188L30.2189 22.1625H21.4002C21.2344 22.1585 21.0741 22.1018 20.9427 22.0007C20.8112 21.8996 20.7153 21.7592 20.6689 21.6L20.6252 21.35V13.1312C20.6251 12.9651 20.676 12.8029 20.771 12.6665C20.866 12.5302 21.0005 12.4263 21.1564 12.3687L21.4002 12.325H30.2189ZM42.5689 12.325L42.8189 12.3687C42.9324 12.4108 43.0348 12.4783 43.1182 12.5661C43.2016 12.6538 43.2639 12.7595 43.3002 12.875L43.3439 13.1312V21.35C43.3453 21.5172 43.295 21.6808 43.1999 21.8184C43.1048 21.956 42.9696 22.0609 42.8127 22.1188L42.5689 22.1625H33.7502C33.5844 22.1585 33.4241 22.1018 33.2927 22.0007C33.1612 21.8996 33.0653 21.7592 33.0189 21.6L32.9814 21.35V13.1312L33.0189 12.8812C33.055 12.764 33.1179 12.6566 33.2024 12.5677C33.287 12.4788 33.3911 12.4107 33.5064 12.3687L33.7502 12.325H42.5689ZM54.7752 12.325C55.1127 12.325 55.4002 12.5563 55.5064 12.875L55.5502 13.1312V21.35C55.5515 21.5172 55.5012 21.6808 55.4061 21.8184C55.3111 21.956 55.1758 22.0609 55.0189 22.1188L54.7689 22.1625H45.9564C45.7906 22.1585 45.6304 22.1018 45.4989 22.0007C45.3674 21.8996 45.2716 21.7592 45.2252 21.6L45.1877 21.35V13.1312L45.2252 12.8812C45.2613 12.764 45.3241 12.6566 45.4087 12.5677C45.4933 12.4788 45.5973 12.4107 45.7127 12.3687L45.9627 12.325H54.7877H54.7752ZM54.7752 0.5C55.1127 0.5 55.4002 0.73125 55.5064 1.05L55.5502 1.3V9.525C55.5515 9.69223 55.5012 9.8558 55.4061 9.99339C55.3111 10.131 55.1758 10.2359 55.0189 10.2937L54.7689 10.3312H45.9564C45.792 10.329 45.6324 10.2746 45.501 10.1757C45.3695 10.0768 45.2729 9.93866 45.2252 9.78125L45.1877 9.53125V1.3L45.2252 1.05C45.2613 0.932701 45.3241 0.825371 45.4087 0.736446C45.4933 0.64752 45.5973 0.579422 45.7127 0.5375L45.9564 0.5H54.7814H54.7752Z" fill="#2396ED"/>
</svg>
