<svg width="71" height="63" viewBox="0 0 71 63" fill="none" xmlns="http://www.w3.org/2000/svg">
<path fill-rule="evenodd" clip-rule="evenodd" d="M20.0197 13.3636C19.7777 11.2679 21.6639 12.1562 21.4229 13.4198C21.069 13.7565 20.4151 13.4803 20.0197 13.3636ZM22.2649 12.9706C22.7399 12.9221 23.1928 12.8509 23.3316 12.4655C22.6744 12.0605 21.6925 13.0599 22.0965 13.5322C22.3208 13.5132 22.1224 13.0717 22.2649 12.9706ZM15.9779 14.2617C16.3735 14.0777 17.0235 14.1472 17.213 13.7566C16.0354 13.3465 13.9149 13.6492 13.5639 14.4302C14.4616 14.3747 15.2123 13.6624 15.9779 14.2617ZM13.3394 14.4865C13.0843 14.4329 12.986 14.7226 13.115 14.8792C13.3143 14.8726 13.3409 14.6935 13.3394 14.4865ZM12.7219 15.6092C12.686 15.0737 11.3907 14.6462 11.2626 15.3847C11.3746 15.804 12.4194 16.0737 12.7219 15.6092ZM10.5329 15.1041C10.2653 15.1166 10.1278 15.2606 9.97135 15.3847C10.1749 15.5033 10.6259 15.4609 10.5329 15.1041ZM9.85943 16.6195C10.8482 16.55 11.1492 17.4592 11.9922 17.3492C12.1493 16.3706 10.1381 15.0244 9.85943 16.6195ZM23.2191 21.5029C22.9243 20.5245 23.827 19.6848 23.2751 18.9206C22.511 18.9815 21.8502 22.528 22.9384 22.5137C23.7198 22.5029 23.9953 20.3578 24.0609 19.651C23.4888 19.9762 23.738 21.1238 23.2191 21.5029ZM13.8448 21.1104C13.8617 20.9621 13.7669 20.9259 13.6202 20.9415C13.6239 21.093 13.7485 21.2115 13.8448 21.1104ZM16.5954 22.7382C16.6063 22.3904 16.5926 22.0674 16.3149 22.0085C16.1035 21.9845 16.1161 22.184 15.9779 22.2333C16.055 22.53 16.2117 22.748 16.5954 22.7382ZM13.9009 24.5347C14.9772 24.6558 15.6979 25.4322 16.7076 25.4325C15.9024 24.8904 15.0658 24.38 13.7886 24.31C13.7479 24.4631 13.9001 24.423 13.9009 24.5347ZM22.3772 25.3766C22.2935 24.9923 22.1268 24.691 21.9283 24.4221C22.0013 24.8166 22.102 25.1836 22.3772 25.3766ZM16.2023 26.6114C15.4978 25.6686 14.3753 24.8471 13.115 24.6466C13.293 26.1525 14.9669 26.1633 16.2023 26.6114ZM14.2939 26.9479C13.8128 26.1382 12.988 25.6716 11.9922 25.3766C12.5519 26.0722 13.0646 27.1089 14.2939 26.9479ZM11.7116 26.1625C11.9033 26.4952 12.385 26.8353 12.2731 27.2851C11.7809 27.1412 11.5416 26.7441 11.0381 26.6115C11.3055 26.9829 12.326 28.6292 12.9464 28.5766C13.3424 28.5423 13.5215 28.1052 13.4516 27.3977C13.1482 26.7463 12.1823 26.4589 11.7116 26.1625ZM14.5745 27.6219C14.6993 27.9651 14.7431 28.3887 15.1921 28.4075C15.1157 28.0164 14.8872 27.7768 14.5745 27.6219ZM14.1815 27.7905C13.9722 27.7677 13.8523 27.8349 13.8449 28.0146C13.9078 28.027 13.9323 28.0768 13.9569 28.1268C14.1364 28.1198 14.2043 27.9998 14.1815 27.7905ZM23.7805 29.0813C23.839 28.7641 23.8984 28.1529 23.7805 27.8463C23.7084 28.1616 23.4373 28.8709 23.7805 29.0813ZM19.8512 27.9024C19.894 28.2342 19.7336 28.7686 20.0195 28.8572C20.032 28.6116 20.0893 28.0585 19.8512 27.9024ZM22.4894 29.1937C22.3265 29.0493 22.0928 29.2675 21.9842 29.1378C21.8694 28.7661 21.9169 28.2323 21.5913 28.0711C21.5542 28.0711 21.5165 28.0711 21.4792 28.0711C21.0169 29.0286 21.0625 31.0857 21.872 31.6072C22.0249 31.8663 22.0398 32.263 22.4334 32.2812C22.7569 32.0243 22.8364 31.5245 22.8825 30.9897C22.1799 30.8422 22.8344 29.6311 22.4894 29.1937ZM24.1736 29.8108C24.2428 29.3138 24.6677 28.5909 24.342 28.0711C24.2344 28.563 24.0309 29.2563 24.1736 29.8108ZM14.2939 30.2605C14.3834 30.0039 14.3131 29.5687 14.1254 29.4183C13.9945 29.6641 13.9183 30.2301 14.2939 30.2605ZM15.3042 30.4848C15.5309 30.6323 15.5483 30.9889 15.8657 31.0461C16.2606 30.542 15.5115 29.6535 15.3042 30.4848ZM24.9032 31.6072C24.9036 31.7793 24.6781 32.0146 24.8472 32.1685C24.8796 32.0294 25.0505 31.7401 24.9032 31.6072ZM25.4083 33.7965C25.4059 33.5374 25.4399 33.2417 25.2962 33.1233C25.271 33.3231 25.1229 33.7657 25.4083 33.7965ZM18.2794 36.0984C18.3127 36.3075 18.3468 36.5172 18.5599 36.5473C18.6976 36.3547 18.596 36.0136 18.2794 36.0984ZM20.8054 36.3793C20.8835 36.5275 21.1079 36.8219 21.2543 36.7154C21.1245 36.6197 20.9746 36.2495 20.8054 36.3793ZM26.138 36.9968C25.9803 37.6652 26.3536 38.2741 26.6433 38.6808C26.762 38.0291 26.7509 37.096 26.138 36.9968ZM27.5417 41.3183C27.6265 41.1486 27.6565 40.6255 27.4855 40.5334C27.3377 40.7361 27.2059 41.2214 27.5417 41.3183ZM30.0672 44.0133C29.9859 43.6009 29.6628 43.1554 29.3377 43.1709C29.4514 43.5809 29.4711 44.0857 30.0672 44.0133ZM30.5729 44.799C30.5752 45.0587 30.5415 45.355 30.685 45.4722C30.6922 45.2039 30.6884 44.9453 30.5729 44.799ZM12.0483 44.8553C12.0491 45.0609 12.1591 45.1561 12.2731 45.2483C12.2507 45.0643 12.2244 44.8855 12.0483 44.8553ZM32.5937 47.9422C32.4555 46.8837 31.8988 46.2431 31.1904 45.7536C31.2918 46.8491 31.8287 47.5105 32.5937 47.9422ZM41.6315 53.4999C41.5974 53.4681 41.3649 53.3689 41.3507 53.4999C41.4351 53.5648 41.5871 53.697 41.6315 53.4999ZM70.0918 57.6538C70.0918 57.8601 70.0918 58.0652 70.0918 58.2714C70.0006 58.4611 69.971 58.7118 69.9232 58.9448C68.3622 59.9473 65.4296 59.5782 64.1411 60.8537C61.8813 59.6363 59.781 61.5538 57.4055 61.7522C57.0131 61.7845 56.5766 61.7192 56.1698 61.7522C54.7662 61.8655 53.3956 62.1937 51.9601 62.3133C50.4882 62.4359 49.0132 62.5257 47.4696 62.5941C46.9078 62.5941 46.3468 62.5941 45.7856 62.5941C38.8233 62.2285 31.9395 61.2919 26.812 59.0012C24.2557 57.859 21.9027 56.4578 19.7391 54.791C17.6336 53.1697 15.4724 51.3673 13.9569 49.3462C12.3435 47.194 10.7293 45.1011 9.29779 42.7227C7.91683 40.4269 6.62602 38.0087 5.48082 35.3126C4.3511 32.6539 3.54617 30.0231 2.78603 26.7801C2.28919 24.659 1.7648 22.2575 0.877547 20.2686C0.532069 19.4941 0.129879 18.8602 0.0917969 18.1352C0.0917969 17.9671 0.0917969 17.7982 0.0917969 17.6302C0.368645 15.2724 2.20234 13.9037 4.35794 13.2514C4.89767 13.0883 5.42246 12.9324 5.92972 12.6339C5.96273 12.6148 6.28616 12.5818 6.15451 12.4095C5.19411 12.1784 4.40397 13.5924 3.34781 13.1954C2.41014 12.8428 2.95 11.391 3.96534 10.9501C4.43931 10.7442 5.38041 10.6906 5.81753 10.4449C6.57122 10.0213 6.91328 9.12636 6.77204 8.31171C6.68835 7.83034 6.18876 7.57692 6.21068 7.18897C6.24136 6.64802 7.20862 6.17761 7.66999 5.84172C8.2345 5.4309 8.90272 4.91775 8.84889 4.26994C8.79217 3.59323 7.99629 3.37762 7.61382 2.86666C7.01341 2.06475 6.91821 0.866121 7.89437 0.396397C8.91779 -0.0960667 10.8245 0.172289 11.0381 1.46311C11.2263 2.60077 10.4186 3.03419 10.7571 3.87679C11.3878 5.44473 16.2926 2.96283 15.0798 6.23459C16.1584 7.92541 20.3736 6.47898 20.4687 9.15362C22.2268 9.18896 23.0347 10.5231 24.4542 11.0622C24.8346 11.2066 25.2876 11.2066 25.6892 11.3428C28.0832 12.1565 31.0498 13.0294 32.0324 15.3284C31.1444 15.9266 29.9326 15.5261 28.8891 15.16C27.9813 14.8413 26.658 14.21 25.7454 14.5985C24.8406 14.9839 24.889 16.5298 25.0157 18.0787C25.3527 22.2022 25.5503 26.4555 26.1381 30.1476C26.9591 35.3015 28.7139 39.4293 31.1906 42.666C33.5865 45.7973 36.4011 49.0763 40.0595 51.367C43.1464 53.2992 46.6146 54.8237 51.006 55.8012C51.6572 55.9466 52.4445 56.2638 52.8021 56.1943C53.3324 56.0923 54.4735 54.5503 54.8797 54.1737C55.8453 53.2759 57.1446 52.0197 58.5277 53.1067C58.3398 54.6033 56.9988 54.9469 56.6753 56.307C57.5069 56.8362 58.3888 56.3571 59.4262 56.4186C60.6333 56.4904 61.559 57.1826 62.5702 57.0362C63.2155 56.9427 63.5385 56.4621 64.0295 56.1384C65.1448 57.7689 69.4451 55.6463 70.0918 57.6538ZM57.9101 53.4999C57.8862 53.3188 57.9842 53.0145 57.798 52.9952C57.6361 53.0773 57.4761 53.5933 57.9101 53.4999ZM29.675 13.9811C30.2248 14.3105 30.7089 14.7061 31.1904 15.1043C31.4803 14.2507 30.6484 13.7047 29.675 13.7568C29.675 13.8313 29.675 13.9062 29.675 13.9811ZM44.775 55.3523C44.9892 55.3974 45.1441 55.4401 45.1681 55.1843C44.9681 55.1712 44.832 55.2214 44.775 55.3523ZM37.0282 50.4122C37.0093 50.6766 37.5426 50.6817 37.6463 50.6367C37.5585 50.4613 37.2925 50.2335 37.0282 50.4122ZM35.681 49.3459C35.7744 49.4404 36.0107 49.3903 36.1862 49.4022C36.2049 49.1966 36.1234 49.0902 36.074 48.9528C35.7789 48.9204 35.6974 49.1003 35.681 49.3459ZM24.9032 26.3866C24.7509 26.2575 24.6403 26.494 24.5664 26.3866C24.7492 24.994 25.0431 22.8499 24.4542 21.6718C24.3086 21.5447 24.0781 21.7164 24.0053 21.6154C24.3972 20.6797 24.6618 18.7284 24.5103 17.5737C24.457 17.1667 24.2457 16.4429 24.0053 16.2826C23.4012 15.8804 22.8514 16.4985 22.4332 16.6195C22.1701 16.6962 21.8775 16.6414 21.5913 16.6754C20.4594 16.8118 19.2583 17.1493 18.5041 17.5173C18.8972 17.7793 19.4545 17.8767 19.6265 18.3592C18.6484 18.29 17.8854 18.0054 17.0442 17.7981C17.1339 19.0645 15.5808 18.6677 14.6306 18.7526C14.9589 18.7597 15.0115 18.9184 15.0237 19.1454C15.0627 19.8904 12.6109 20.7734 11.7678 20.2123C10.5652 21.1819 12.297 22.1723 12.2168 23.4121C11.9804 23.5873 11.8712 23.8895 11.6555 24.0851C10.4602 24.1141 9.20313 24.3545 9.4097 25.601C9.2482 25.5067 8.99341 25.4438 8.79217 25.5445C8.4867 26.3315 8.99957 27.1857 9.69066 27.3412C9.86477 27.2905 9.90532 27.1068 10.1397 27.1167C11.7008 27.4152 12.2504 28.4505 12.1607 30.4282C12.145 30.7687 12.1789 31.2131 11.9361 31.439C11.0502 31.3783 10.2289 29.1918 11.6553 29.1376C11.3133 28.6344 11.0542 27.8835 10.4202 27.9023C9.69354 27.924 9.36738 29.0724 8.84847 29.4742C9.59642 29.8875 11.353 31.0281 9.91491 31.7757C10.6268 31.8824 11.0241 32.1648 11.3182 32.5612C11.8083 33.2231 11.7927 34.2149 12.1604 34.7509C12.9043 35.8361 13.2971 33.7775 14.1809 34.6382C14.3897 34.71 14.089 34.4354 14.0687 34.4142C13.3105 33.5956 12.1541 32.9246 11.7112 31.9442C12.0516 31.7882 12.5079 31.9585 12.8337 32.0001C12.9624 31.3407 12.5042 30.5944 12.6653 30.0911C12.7813 29.7303 12.9954 29.8892 13.2268 29.7546C13.3628 29.6755 13.2564 29.3807 13.5076 29.4741C13.5061 30.2448 13.0417 31.5417 13.5634 32.1123C14.3252 32.249 14.5452 30.939 15.1916 30.9335C15.5527 30.9304 15.8939 31.566 16.1457 31.8878C16.4482 32.2739 16.8593 32.7485 16.7632 33.1786C16.561 34.0854 15.038 33.395 14.5179 33.0101C14.8349 34.2685 16.7854 34.4638 16.8754 36.0982C16.8857 36.2805 16.7936 36.5134 16.8194 36.7152C16.9297 37.5776 17.7339 38.2186 18.5594 37.6699C18.6808 37.9793 18.6967 38.3939 19.0088 38.5119C19.2823 38.2806 19.1851 37.6778 19.3454 37.3327C20.3249 37.5378 20.8362 38.0094 21.1416 38.7921C21.2928 39.1794 21.2538 39.8972 21.8713 39.9149C21.9658 38.9579 21.216 38.3649 21.0857 37.4449C21.5888 38.2567 23.4038 39.135 23.3312 40.4202C23.2829 41.2679 22.2755 41.3601 21.3102 41.4866C22.2302 41.8028 22.6155 42.8332 23.6117 43.1705C23.8794 43.2617 24.2232 43.1836 24.5098 43.2832C25.2387 43.5368 26.4042 45.031 26.0818 45.9777C24.5287 46.7605 23.3169 44.6448 21.5909 44.6869C22.3187 45.6148 23.5092 45.9236 24.5099 46.3709C25.5869 46.8517 26.6653 47.3443 27.7096 47.8302C30.1715 48.9752 31.8804 50.4735 33.4917 52.3771C32.3737 52.9867 28.9852 51.9728 31.0217 51.2539C30.3133 51.2299 29.5636 50.7856 28.9444 51.03C29.2726 53.1719 32.0907 52.8239 34.2214 53.1628C34.0274 53.5302 33.754 53.8184 33.5476 54.1733C33.7118 54.2702 33.9388 54.3055 34.2214 54.2855C34.085 54.5043 33.7297 54.5048 33.7159 54.8466C33.9888 55.21 34.5289 55.3063 34.8948 55.5763C36.3374 54.5418 36.4992 56.8888 37.4208 56.9236C38.2918 56.956 38.4588 55.7045 39.3299 55.5763C39.111 56.0315 38.6826 56.2764 38.4879 56.7555C39.3408 56.5493 39.584 56.0901 40.2834 55.913C42.79 55.2789 44.8448 57.3667 46.9074 57.5975C47.649 57.6801 48.3863 58.0966 49.0406 58.2151C49.8867 58.3677 50.4068 58.0892 51.0613 57.7662C50.0645 56.8353 47.7756 57.1978 46.9638 56.0817C46.9952 55.8886 47.1272 55.7963 47.2446 55.6892C44.6172 56.2663 42.963 54.6918 41.8556 53.2192C38.6143 52.3819 35.7706 51.1462 34.3893 48.4478C34.323 48.1937 34.6382 48.3225 34.5582 48.0547C33.4187 46.7866 32.2796 45.4992 31.3585 44.0129C31.0402 43.4998 30.8222 42.8549 30.4602 42.4413C30.2309 42.1792 29.8461 42.035 29.6183 41.7673C29.3688 41.4739 29.3348 41.1065 28.9443 40.9819C28.7942 41.2057 28.8948 41.6802 28.7762 41.936C28.5062 40.852 27.9047 39.8225 26.7554 39.8027C26.734 39.0143 27.3709 38.8845 27.7095 38.4554C27.2637 37.9194 27.1563 37.2443 26.9237 36.4349C26.3583 34.4679 25.891 32.4131 25.4079 30.5965C24.7676 30.8356 24.5979 31.5453 24.2854 32.1123C24.3162 31.3013 24.3542 30.497 24.7907 30.0911C24.9903 30.1161 25.0122 30.319 25.1273 30.4281C25.2328 30.0456 25.5947 29.6889 25.4079 29.1933C25.2629 28.9694 24.8392 29.0738 24.7346 29.0811C25.0116 28.4031 25.2442 27.1727 24.9032 26.3866ZM47.4694 59.6751C47.9548 59.4677 48.3916 59.2125 48.5916 58.7203C48.0641 58.8525 47.3202 59.0518 47.4694 59.6751ZM47.5253 58.5522C47.2007 58.732 46.8354 58.8729 46.6275 59.1697C47.0928 59.1975 47.6381 58.7304 47.5253 58.5522ZM45.7855 59.3941C46.1033 59.3093 46.4434 58.9811 46.403 58.7203C46.0339 58.7573 45.4631 59.0204 45.7855 59.3941ZM46.01 58.1027C45.5048 57.9432 45.0923 58.3386 45.0552 58.833C45.5053 58.7214 45.81 58.4645 46.01 58.1027ZM44.4378 58.2155C43.9444 58.3015 43.5753 58.5116 43.4272 58.9447C44.0304 59.184 44.3392 58.6656 44.4378 58.2155ZM43.6522 59.6751C43.7912 59.683 43.9244 59.6852 43.933 59.5623C43.8487 59.4733 43.6129 59.4801 43.6522 59.6751ZM44.5505 57.2608C43.7651 57.2006 42.8256 57.7103 43.3155 58.3836C43.8385 58.1204 44.3682 57.8647 44.5505 57.2608ZM40.6768 58.3278C41.1674 58.3967 41.2956 57.8356 41.6316 57.9341C41.8266 58.0571 41.7081 58.4941 42.0241 58.4959C42.7583 58.3466 43.0227 57.3447 42.5853 56.6434C41.5957 56.8175 40.6904 57.3622 40.6768 58.3278ZM40.9012 56.8682C40.6033 57.0192 40.286 57.1503 40.1157 57.4293C40.483 57.4134 41.03 57.0084 40.9012 56.8682ZM39.3301 57.149C39.3615 57.2984 39.0989 57.4345 39.2731 57.5415C39.3199 57.471 39.6151 57.1934 39.3301 57.149ZM38.3196 58.4958C38.3019 58.5722 38.2393 58.6029 38.2638 58.7203C38.3379 58.7203 38.4132 58.7203 38.4884 58.7203C38.5036 58.5733 38.4671 58.4792 38.3196 58.4958ZM37.4777 58.2155C37.194 58.2314 37.0867 58.4234 37.0845 58.7203C37.3289 58.666 37.5516 58.5892 37.4777 58.2155ZM31.8074 55.3523C31.4615 55.3371 31.3561 55.3906 31.7517 55.4652C32.1285 55.5347 32.7933 55.5711 33.0429 55.4652C32.7466 55.4618 31.981 55.3604 31.8074 55.3523ZM33.4919 54.4545C33.1982 54.2312 32.6078 54.393 32.3132 54.5104C32.4832 54.9775 33.318 54.7701 33.4919 54.4545ZM31.6959 58.6644C33.0959 59.3981 35.0236 60.199 37.0282 59.9553C35.5715 59.242 33.4052 58.9378 31.6959 58.6644ZM29.6187 58.0468C29.7528 58.231 30.0695 58.2321 30.292 58.3278C30.7063 57.9273 29.7955 57.7016 29.6187 58.0468ZM24.3418 53.4999C23.9629 53.5329 23.5506 53.5318 23.4438 53.8371C23.8047 53.971 24.327 53.8878 24.3418 53.4999ZM23.2751 54.9593C23.407 55.0789 23.6497 55.2214 23.7243 54.9593C23.6662 54.9 23.3236 54.8437 23.2751 54.9593ZM23.9488 50.1878C23.9998 49.9532 23.5528 49.8644 23.4999 50.0758C23.6229 50.1393 23.7295 50.2203 23.9488 50.1878ZM24.6788 52.0962C24.6761 52.0192 24.7053 51.9732 24.7349 51.9281C24.5676 51.7554 24.2294 51.7247 23.9488 51.8159C23.9938 52.0859 24.4433 52.1987 24.6788 52.0962ZM24.735 55.6896C24.8068 55.766 24.9999 55.766 25.0717 55.6896C25.0981 55.513 25.0016 55.46 24.9033 55.4082C24.8529 55.508 24.7677 55.5722 24.735 55.6896ZM26.4753 49.2337C26.2924 48.7051 25.6961 48.8446 25.2962 48.6725C24.6536 48.3957 24.105 47.7348 23.2753 47.7184C23.238 47.7184 23.2003 47.7184 23.1634 47.7184C23.885 48.5688 24.8401 49.4826 26.4753 49.2337ZM23.556 47.1573C23.032 46.8013 22.458 46.4954 21.7035 46.3713C21.9434 46.9733 22.8771 47.1807 23.556 47.1573ZM25.2961 49.7948C25.6896 50.2062 26.1836 50.5172 27.0364 50.4682C26.7085 50.0284 25.9253 49.7463 25.2961 49.7948ZM27.4292 52.3213C26.8513 51.9207 25.9422 51.2708 25.1839 51.4228C25.6225 51.9948 26.5043 52.4232 27.4292 52.3213ZM25.2961 54.4545C25.2825 54.5344 25.2038 54.5486 25.1839 54.6221C25.3222 54.8026 25.5305 54.4922 25.2961 54.4545ZM26.5872 56.1385C26.6348 56.3526 26.841 56.4085 27.0364 56.4752C27.1124 56.3453 27.2618 56.2889 27.2047 56.0263C27.0683 55.9443 26.5776 55.897 26.5872 56.1385ZM27.6539 53.6685C27.48 53.5621 26.8461 53.443 26.6994 53.6685C26.9717 53.7791 27.5066 54.0651 27.6539 53.6685ZM27.8222 51.7595C27.8784 51.3419 27.4061 51.3402 27.2047 51.4787C27.2236 51.7595 27.5951 51.6878 27.8222 51.7595ZM28.4396 48.7284C28.1861 48.3455 27.4818 48.4139 26.9802 48.2795C26.6128 47.8181 25.7343 47.6506 24.9594 47.7743C25.8469 48.3655 26.8563 48.8337 28.4396 48.7284ZM28.3274 54.1173C28.5685 54.3254 28.9465 54.3965 29.2817 54.5104C29.2996 54.3782 29.3702 54.2996 29.3377 54.1173C29.1743 53.9288 28.4651 53.8314 28.3274 54.1173ZM23.556 45.0233C23.6121 44.7614 23.458 44.7101 23.2191 44.7431C23.1344 45.0336 23.4144 44.959 23.556 45.0233ZM24.9032 45.6973C24.7392 45.6557 24.7944 45.3948 24.5664 45.4165C24.3595 45.6062 24.7321 45.895 24.9032 45.6973ZM21.0299 46.0903C20.8436 45.6784 20.4238 45.4991 20.1319 45.192C20.6793 44.399 19.4579 44.0743 19.2336 43.508C19.231 43.3372 19.3521 43.2898 19.402 43.1707C18.9304 42.8944 18.3857 42.6906 18.1108 42.2172C18.3279 42.0601 18.9067 42.2639 19.121 42.1044C18.781 41.958 18.4139 41.839 18.2791 41.4869C18.476 41.0288 19.2762 41.1747 19.4579 40.7013C18.4909 40.4877 17.5302 39.9739 16.4826 40.0275C16.4945 40.4273 16.8504 40.4831 16.9878 40.7572C16.6772 40.6192 16.426 40.4205 15.9775 40.4205C15.9439 40.6973 16.1232 40.7612 16.09 41.038C15.7838 41.0631 15.6286 40.9379 15.3038 40.9823C15.5353 41.4988 16.129 41.6538 16.3145 42.2173C16.0849 42.2754 15.7732 42.1261 15.6969 42.2173C16.2895 42.7095 17.155 43.2284 17.493 43.7884C16.9416 43.6859 16.626 43.3464 16.09 43.2273C16.5387 44.1159 17.6315 44.3012 18.4475 44.7431C19.2828 45.1953 20.0313 45.9246 21.0299 46.0903ZM19.7949 46.7637C20.0295 46.892 20.4966 47.2991 20.8054 46.9888C20.5451 46.8735 20.1357 46.6116 19.7949 46.7637ZM19.346 46.4828C19.188 46.227 18.3821 46.0909 18.1673 46.2583C18.5336 46.3637 18.8788 46.648 19.346 46.4828ZM18.3354 46.6514C18.3178 46.7277 18.2557 46.7584 18.2794 46.8765C18.3782 46.844 18.6091 46.9436 18.6162 46.82C18.5291 46.7574 18.4991 46.6377 18.3354 46.6514ZM17.6057 39.1854C17.4526 38.6579 17.248 38.0798 16.82 37.6701C16.5894 37.4491 16.3661 37.4536 16.2024 37.1642C15.7686 36.4009 15.9765 35.3232 15.4165 34.5267C15.2841 34.4835 15.0286 34.4156 14.9113 34.5267C14.9219 34.8947 15.7761 35.7675 15.1923 36.2106C13.9013 36.2619 13.4043 35.2342 12.1611 35.4245C11.8811 36.1497 12.8709 36.5223 12.6098 37.0527C14.3956 37.6258 15.8138 38.8676 17.6057 39.1854ZM13.5639 40.8694C13.8938 41.1206 14.3706 41.5223 14.799 41.4869C14.4597 41.2465 14.1475 40.6803 13.5639 40.8694ZM12.9464 40.3647C12.8008 39.9117 12.5483 39.5654 11.9922 39.5228C12.1053 40.008 12.6326 40.0799 12.9464 40.3647ZM11.9922 41.8242C12.2927 42.0298 12.5912 42.5339 12.8904 42.5539C12.6716 42.2673 12.405 41.7302 11.9922 41.8242ZM12.3853 37.9505C12.4144 37.8673 12.468 37.8093 12.4975 37.726C12.3535 37.5278 11.9986 37.636 11.9363 37.8387C12.0467 37.9151 12.2568 37.8924 12.3853 37.9505ZM21.0862 40.196C21.0783 39.713 20.5417 39.4327 20.1319 39.6912C20.2617 40.0479 20.6531 40.1425 21.0862 40.196ZM15.8091 32.843C15.8186 32.7501 15.4635 32.7501 15.4726 32.843C15.5495 32.86 15.8112 33.0964 15.8091 32.843ZM13.6204 32.6179C13.5454 32.6179 13.4705 32.6179 13.3956 32.6179C13.3185 32.6901 13.3401 32.8623 13.3394 33.0104C13.442 33.0257 13.6542 33.2131 13.7326 33.0672C13.5937 33.0183 13.7487 32.6765 13.6204 32.6179ZM9.40984 32.5615C9.59587 32.9848 10.3489 32.9534 10.4766 32.5057C10.1571 32.382 9.68655 32.468 9.40984 32.5615ZM9.57861 30.9897C9.36149 30.9789 9.16477 30.9879 9.01683 31.0461C9.06053 31.2911 9.5771 31.2475 9.57861 30.9897ZM10.0835 21.9523C9.79505 22.0856 9.1934 21.8188 8.90491 21.9523C9.16039 22.9637 11.0539 22.4192 10.9259 21.6154C10.8171 20.9334 9.01642 21.1023 8.39971 21.1664C8.87765 21.5117 9.63738 21.5752 10.0835 21.9523ZM7.83834 23.0188C7.94396 23.1752 8.23423 23.1467 8.39971 23.2433C8.43217 23.1263 8.53902 23.0833 8.5119 22.9066C8.36464 22.8288 7.83478 22.7675 7.83834 23.0188ZM10.7013 22.7944C10.6711 22.9169 10.5652 23.1575 10.7571 23.1874C10.8908 23.0932 10.8629 22.8758 10.7013 22.7944ZM12.2731 19.4262C12.2583 19.2621 12.3998 19.2541 12.3853 19.0895C12.1571 19.0671 11.9939 19.1099 11.9922 19.3139C12.099 19.3382 12.1331 19.4348 12.2731 19.4262ZM12.217 6.96432C11.9934 8.33417 13.2276 9.99129 14.6867 9.4902C14.7548 8.97321 14.5189 8.7602 14.5183 8.31157C14.8906 8.2213 15.1098 8.57883 15.3041 8.47993C14.758 7.49185 13.3056 7.41007 12.217 6.96432ZM11.5991 5.67323C12.0926 5.7709 12.867 5.72144 13.0589 5.33638C12.6861 5.08734 11.5678 5.02063 11.5991 5.67323ZM10.2519 1.74365C10.3598 0.653382 9.02752 0.0509193 8.23135 0.789547C7.73368 1.25091 7.51752 2.36516 8.28738 2.75433C8.19998 2.46721 7.94478 2.34844 8.00683 1.91242C8.5919 1.5779 9.66464 2.07557 10.2519 1.74365ZM9.85943 5.33624C10.0022 5.25473 10.2166 5.24501 10.1961 4.99953C10.0235 5.01693 9.72943 5.20295 9.85943 5.33624ZM8.68026 9.4902C9.38025 9.50677 9.90806 9.11198 10.5889 9.09746C11.1782 9.08499 11.7398 9.26033 12.4413 9.20965C11.9404 7.73938 9.50628 9.02335 8.68026 9.4902ZM7.61382 12.0725C8.93834 11.9042 10.7837 11.0327 12.5537 11.2306C13.2213 11.3051 13.8061 11.6809 14.1815 11.9603C13.9901 11.7561 13.7634 10.9179 14.1815 10.7817C15.1027 10.9572 15.1334 12.6977 16.2584 12.4657C16.8316 12.3474 17.0061 11.2357 16.7076 10.557C17.136 10.8584 17.3567 11.3674 17.9427 11.5114C17.809 10.9714 17.4204 10.6864 17.1569 10.2764C17.3224 10.0679 17.5391 9.91006 17.4935 9.4902C15.8871 9.33581 14.4612 10.2029 12.9465 10.5007C11.7711 10.7322 10.8963 10.9616 9.85957 11.2305C9.08012 11.4325 8.21286 11.5743 7.61382 12.0725ZM2.8985 23.6926C2.82138 23.7641 2.80069 24.0279 2.95453 24.0293C3.00069 23.9886 3.10521 23.6408 2.8985 23.6926ZM4.86287 17.0126C2.40138 17.4032 5.02507 20.021 6.49109 19.3704C6.6767 19.0854 6.61903 18.8241 6.60328 18.4156C7.45738 18.4993 8.09998 18.0833 8.84889 18.2476C8.96971 18.5085 8.74121 18.7295 8.68039 18.977C11.2274 18.8155 12.4885 16.8143 15.2479 16.5073C15.5908 16.4691 15.9816 16.5298 16.3709 16.5073C17.533 16.4395 18.8202 16.2241 20.0197 16.002C21.1965 15.7844 22.2725 15.3517 23.2753 15.1041C24.5338 14.7931 26.4483 13.9711 26.1946 12.2972C26.1655 12.1066 26.0333 11.9354 25.9138 11.7358C19.2242 11.089 14.2226 13.7114 8.96121 14.7672C8.32916 14.8939 7.56067 14.8096 7.05245 15.3283C7.23629 15.7806 7.88231 15.7709 8.17492 16.1141C8.02862 16.2856 7.66684 16.2418 7.61382 16.5073C7.73766 16.9821 8.44149 16.8763 8.5119 17.4056C7.39451 18.1933 5.0515 17.1887 5.59287 15.6092C3.90452 15.9792 1.44631 16.3469 1.43905 18.2476C1.43563 19.0852 1.93494 19.86 2.50535 20.3245C2.11891 18.556 2.77576 15.941 4.86287 17.0126ZM6.94013 27.5097C6.99122 27.1296 6.36643 26.8634 6.15438 27.117C6.36122 27.3029 6.68506 27.3715 6.94013 27.5097ZM4.97534 28.2394C5.37232 29.6197 5.5015 31.2686 6.54711 32.0005C6.38972 30.3802 5.81479 29.1777 4.97534 28.2394ZM7.333 26.78C7.5078 25.9875 6.3452 25.6771 6.26657 26.2185C6.19794 26.69 6.94136 26.6352 7.333 26.78ZM7.55766 25.2641C7.30423 24.987 6.66821 24.8152 6.21054 24.9274C6.37205 25.3248 7.36574 25.9129 7.55766 25.2641ZM6.8841 22.7944C7.13766 22.6363 7.4067 22.4933 7.44519 22.1204C7.11944 21.8766 6.33958 21.8422 6.26657 22.2333C6.21136 22.5289 6.60752 22.6488 6.8841 22.7944ZM7.61382 23.7485C7.63834 23.5556 7.59163 23.4341 7.55766 23.2993C7.26971 23.2922 7.13533 23.4384 7.10862 23.6926C7.24834 23.7397 7.4093 23.7659 7.61382 23.7485ZM3.68439 23.4679C3.6411 23.3241 3.62822 23.1497 3.51603 23.0751C3.37644 23.2262 3.3711 23.4975 3.68439 23.4679ZM4.24575 19.651C3.99384 19.5528 3.62096 19.6576 3.51603 19.8754C3.63384 19.9817 3.80343 20.0371 3.96507 20.0996C4.02178 19.9139 4.27562 19.9241 4.24575 19.651ZM4.86287 26.8922C4.71767 26.5697 4.69945 26.1203 4.41411 25.9381C3.64548 26.0474 4.40699 27.1516 4.86287 26.8922ZM5.92958 32.9545C6.47766 34.2795 7.05615 35.7117 8.23135 36.3224C7.35259 35.3447 7.14519 33.7271 6.54711 32.5615C6.34027 32.1593 6.01027 31.8465 5.81739 31.4391C5.36356 30.4798 5.15438 29.3605 4.24575 28.913C4.60383 30.3246 5.37082 31.6022 5.92958 32.9545ZM21.3669 54.0052C21.0272 52.8482 20.1153 52.2625 18.8408 52.0404C18.5257 51.2891 17.6164 51.1324 17.4375 50.2443C17.4084 50.062 17.7852 49.9976 17.6623 49.9076C15.9538 50.2311 15.8935 48.4203 15.08 47.662C13.027 47.6991 13.4089 45.159 12.2733 43.8453C11.9489 43.4694 11.6272 43.3827 11.2627 43.0033C10.7018 41.2649 9.23779 40.3829 8.39985 38.8495C7.6556 37.4869 7.49903 35.95 6.26684 34.9758C7.24177 38.2765 9.33039 41.0666 11.2067 43.8454C12.7086 46.0687 13.73 48.1862 15.4167 49.9636C15.9898 50.5667 16.6369 50.9707 17.3254 51.5352C18.4965 52.4955 19.303 54.2769 21.3669 54.0052ZM21.1421 50.1878C21.0817 49.9474 20.6487 49.7852 20.4124 49.9076C20.6301 50.0273 20.8693 50.1241 21.1421 50.1878ZM23.2191 48.7284C22.8388 48.2852 22.0427 48.1165 21.3106 47.8305C20.4025 47.475 19.1069 47.1384 18.4479 47.5496C18.5142 48.1004 18.953 48.2794 19.2336 48.6161C20.0135 48.7362 20.4598 49.1167 21.1982 49.1772C22.0684 49.2491 22.8812 49.2103 23.2191 48.7284ZM49.9953 61.5275C48.2967 60.7529 45.8055 61.6244 43.9887 61.1903C43.6459 61.1082 43.3427 60.8725 43.0346 60.8536C42.7282 60.8348 42.3715 60.9966 42.0804 61.0222C40.5247 61.1605 39.1044 61.0068 37.6462 60.7971C36.623 60.6501 35.5333 60.5926 34.6144 60.3482C33.7343 60.1146 32.824 59.5757 31.9199 59.2255C31.0025 58.8705 30.0474 58.5168 29.1694 58.159C27.437 57.4533 25.5959 56.2319 23.7803 55.7455C25.0051 57.0466 27.1137 57.4647 28.5521 58.5522C26.5195 57.9837 24.9858 56.9167 23.1631 56.1385C24.5832 57.41 26.5648 58.1801 28.5521 59.001C30.5311 59.819 32.6817 60.5111 35.0071 60.8534C39.6264 61.5338 45.0444 62.5444 49.9953 61.5275ZM51.4547 61.3589C51.1665 61.3704 50.8075 61.3104 50.7815 61.5834C51.0257 61.793 51.4365 61.7712 51.4547 61.3589ZM54.486 54.7348C54.5657 55.1496 55.1679 55.0259 55.104 54.5663C54.798 54.5229 54.6654 54.6529 54.486 54.7348ZM59.1451 57.6538C57.6361 57.6174 55.7746 57.0962 54.205 57.149C53.6028 57.169 52.8709 57.3132 52.6897 57.934C53.1528 58.1219 53.649 58.0092 54.205 57.991C56.0257 57.9295 58.2503 58.7475 59.1451 57.6538ZM60.661 57.5415C60.3984 57.541 60.321 57.7262 60.268 57.934C60.3402 58.0114 60.5117 57.9904 60.661 57.991C60.6343 57.7426 60.738 57.7114 60.661 57.5415ZM63.9731 57.3173C63.6991 57.2756 63.597 57.6163 63.6922 57.7666C63.8688 57.7933 63.9115 57.6863 64.0294 57.6538C64.0699 57.4823 63.9325 57.4886 63.9731 57.3173ZM68.6318 57.6538C67.4826 57.5314 66.1406 57.6071 65.0958 57.7666C65.711 58.3459 67.9207 57.9762 68.6318 57.6538ZM14.6306 23.5237C15.1843 23.8314 15.6953 24.4796 16.4271 24.4221C16.2294 24.1521 15.9491 23.9644 15.7531 23.6926C15.9616 23.6762 16.1387 23.6292 16.2023 23.4679C15.5195 22.9903 14.6439 22.4069 14.2938 21.7834C14.5249 22.2312 14.8786 22.9447 14.6306 23.5237ZM21.816 23.9733C21.6958 23.8503 21.7499 23.5523 21.5912 23.4681C21.5554 23.7123 21.7135 24.0538 21.816 23.9733ZM16.6515 28.8572C16.7375 29.7815 17.3282 30.2005 17.3812 31.1586C16.725 30.4115 16.3587 29.3741 15.9217 28.4075C15.8789 29.5767 16.2323 30.3011 16.5393 31.1026C16.7756 31.7185 16.9971 32.4413 17.6057 32.618C17.8899 32.565 17.8741 32.2117 18.1675 32.1686C18.4795 32.2135 18.642 32.7034 18.8408 32.6743C18.6909 32.5059 18.6442 32.2346 18.6162 31.9446C18.6705 31.7367 18.9678 31.772 19.0651 31.6074C18.5006 30.4508 17.6915 29.5382 16.6515 28.8572Z" fill="black"/>
</svg>
