<svg width="327" height="327" viewBox="0 0 327 327" fill="none" xmlns="http://www.w3.org/2000/svg">
<g clip-path="url(#clip0_450_221)">
<path d="M0 0H327V327H0V0Z" fill="#F0DB4F"/>
<path d="M300.237 249.011C297.844 234.091 288.114 221.564 259.3 209.877C249.291 205.276 238.132 201.982 234.806 194.397C233.625 189.983 233.469 187.497 234.215 184.823C236.36 176.151 246.711 173.447 254.917 175.933C260.201 177.705 265.206 181.777 268.221 188.274C282.333 179.135 282.302 179.197 292.155 172.919C288.55 167.324 286.622 164.743 284.26 162.35C275.774 152.87 264.211 147.99 245.716 148.363C242.515 148.767 239.282 149.201 236.08 149.606C226.849 151.937 218.052 156.786 212.892 163.283C197.412 180.845 201.826 211.586 220.663 224.238C239.22 238.163 266.48 241.334 269.961 254.358C273.35 270.304 258.243 275.463 243.23 273.63C232.164 271.329 226.01 265.703 219.357 255.477C207.111 262.564 207.111 262.564 194.522 269.806C197.506 276.334 200.645 279.287 205.65 284.944C229.335 308.972 288.612 307.791 299.243 271.423C299.677 270.179 302.537 261.849 300.237 249.011ZM177.767 150.289H147.181C147.181 176.711 147.057 202.945 147.057 229.366C147.057 246.182 147.927 261.6 145.192 266.325C140.716 275.618 129.122 274.469 123.838 272.665C118.46 270.023 115.725 266.262 112.554 260.947C111.684 259.424 111.031 258.243 110.813 258.15C102.514 263.216 94.2456 268.314 85.9463 273.381C90.0807 281.867 96.1728 289.233 103.975 294.02C115.631 301.014 131.297 303.158 147.679 299.397C158.34 296.289 167.541 289.855 172.359 280.064C179.322 267.226 177.83 251.684 177.767 234.495C177.923 206.458 177.767 178.42 177.767 150.289Z" fill="#323330"/>
</g>
<defs>
<clipPath id="clip0_450_221">
<rect width="327" height="327" rx="30" fill="white"/>
</clipPath>
</defs>
</svg>
