<svg width="79" height="87" viewBox="0 0 79 87" fill="none" xmlns="http://www.w3.org/2000/svg">
<path d="M73.7936 42.7193C73.7936 38.2591 70.1779 34.6434 65.7175 34.6434C65.4307 34.6434 65.1477 34.6588 64.8688 34.688L75.9611 1.9724H28.8224L39.8993 34.6596C39.7368 34.6497 39.5734 34.6434 39.4085 34.6434C34.9483 34.6434 31.3325 38.2591 31.3325 42.7193C31.3325 46.3247 33.6952 49.3768 36.9562 50.4153C35.2339 53.3988 33.0666 56.0858 30.606 58.4073C27.2602 61.5638 23.4309 63.9571 19.2893 65.4321C14.3584 62.8989 12.0298 57.2655 14.131 52.326C14.3681 51.7682 14.6105 51.2029 14.8418 50.6399C18.4143 49.8062 21.0761 46.6038 21.0761 42.7773C21.0761 38.317 17.4604 34.7014 13 34.7014C8.53975 34.7014 4.9239 38.317 4.9239 42.7773C4.9239 45.5124 6.28487 47.9283 8.36499 49.3892C6.36614 53.9404 3.42782 58.7034 2.51242 64.2238C1.41536 70.8397 2.50887 77.8623 8.23086 81.8283C21.5569 91.0643 36.0223 76.1025 51.274 72.3415C56.8016 70.9784 62.8689 71.1981 67.7388 68.3775C71.3959 66.2594 73.8068 62.7492 74.491 58.8083C75.167 54.9152 74.1816 51.039 71.9152 47.8959C73.0875 46.4941 73.7936 44.6895 73.7936 42.7193Z" fill="#99425B"/>
<path d="M72.548 58.4708C71.9539 61.8922 69.8408 64.8808 66.7504 66.6708C63.8697 68.3392 60.4176 68.8373 56.7627 69.3643C54.8046 69.6466 52.7799 69.9387 50.802 70.4265C45.5721 71.716 40.5065 74.2323 35.6078 76.6654C25.8043 81.535 17.3379 85.7398 9.3547 80.2071C3.50706 76.1542 3.77708 68.6556 4.45835 64.5465C5.08973 60.7395 6.79666 57.2335 8.44738 53.8427C8.73259 53.2565 9.01209 52.6812 9.28408 52.1107C10.1022 52.4376 10.9725 52.6607 11.8796 52.762C10.1993 58.3075 12.8417 64.3372 18.3882 67.1866L19.1472 67.5765L19.9511 67.2903C24.3358 65.7288 28.3761 63.223 31.9598 59.8419C34.2763 57.6564 36.268 55.2386 37.9049 52.6551C38.3957 52.7291 38.8976 52.768 39.4087 52.768C44.4991 52.768 48.7146 48.9624 49.3669 44.0473C51.4505 43.971 53.6638 43.9704 55.7595 44.0465C56.4114 48.962 60.627 52.768 65.7177 52.768C67.8461 52.768 69.8205 52.1009 71.4469 50.9677C72.5762 53.2792 72.9977 55.88 72.548 58.4708ZM13.0001 36.6738C16.3659 36.6738 19.1038 39.4119 19.1038 42.7774C19.1038 43.9863 18.7491 45.1136 18.1401 46.0629C17.1253 47.6452 15.4012 48.7298 13.4195 48.8651C13.2808 48.8746 13.1412 48.8811 13.0001 48.8811C12.2502 48.8811 11.5317 48.7442 10.8673 48.4959C9.52354 47.9929 8.40379 47.0288 7.69944 45.7976C7.18957 44.9063 6.89647 43.8757 6.89647 42.7774C6.89647 39.4119 9.63458 36.6738 13.0001 36.6738ZM33.305 42.7195C33.305 39.6616 35.5654 37.1225 38.5028 36.6834C38.7984 36.6391 39.101 36.6158 39.4087 36.6158C41.3653 36.6158 43.1074 37.5428 44.2248 38.9791C44.5025 39.336 44.7433 39.7232 44.9372 40.1366C45.3054 40.9216 45.5124 41.7966 45.5124 42.7195C45.5124 43.2074 45.4532 43.6818 45.3445 44.1368C44.7496 46.627 42.6263 48.5302 40.0245 48.7921C39.8221 48.8125 39.6166 48.8231 39.4087 48.8231C38.1901 48.8231 37.0548 48.4628 36.1007 47.845C34.4202 46.7564 33.305 44.8662 33.305 42.7195ZM58.7795 35.4615C57.4719 36.7126 56.4995 38.3111 56.0153 40.1086C53.7551 40.0237 51.3584 40.0237 49.1112 40.1086C48.5951 38.1927 47.5244 36.5026 46.0844 35.2187L52.4001 22.4479L58.7795 35.4615ZM31.5736 3.94498H73.2097L63.3758 32.9487C62.9496 33.051 62.5338 33.1798 62.1302 33.3347L52.4156 13.5173L42.6736 33.2163C42.2525 33.0713 41.8186 32.9546 41.3744 32.866L31.5736 3.94498ZM71.8213 42.7195C71.8213 43.3315 71.7298 43.9222 71.5615 44.48C71.1608 45.8071 70.3197 46.9442 69.209 47.7217C68.2189 48.4148 67.0153 48.8231 65.7177 48.8231C62.8995 48.8231 60.5221 46.9026 59.8233 44.3017C59.6876 43.7968 59.614 43.2666 59.614 42.7195C59.614 41.8851 59.7826 41.0896 60.087 40.3648C60.2438 39.9912 60.4395 39.6381 60.6641 39.3064C61.7626 37.6852 63.6162 36.6158 65.7177 36.6158C65.9104 36.6158 66.1005 36.6259 66.2887 36.6434C69.3875 36.9322 71.8213 39.5464 71.8213 42.7195ZM75.7662 42.7195C75.7662 37.8136 72.2316 33.7205 67.5761 32.8459L78.7126 0.000137329H26.0716L37.225 32.9128C32.7311 33.9128 29.3602 37.9286 29.3602 42.7195C29.3602 46.3168 31.2614 49.4768 34.1106 51.2524C32.7401 53.2942 31.1149 55.2155 29.2527 56.9726C26.299 59.759 23.0086 61.8721 19.4612 63.2624C15.8881 61.018 14.3777 56.7854 15.9463 53.0979L16.0692 52.809C16.1461 52.6285 16.2231 52.4476 16.2998 52.2668C20.2243 50.8979 23.0486 47.1625 23.0486 42.7774C23.0486 37.2365 18.5409 32.7289 13.0001 32.7289C7.4594 32.7289 2.95162 37.2365 2.95162 42.7774C2.95162 45.5741 4.10115 48.1067 5.95128 49.9302C5.61597 50.6448 5.26291 51.3717 4.90057 52.1159C3.20902 55.5903 1.29183 59.5282 0.566766 63.9011C-0.8733 72.5857 1.44962 79.528 7.10752 83.4494C10.5409 85.8289 14.0274 86.7644 17.5361 86.7644C24.1429 86.7644 30.8261 83.4452 37.3627 80.1984C42.0703 77.8603 46.9382 75.4423 51.7466 74.2565C53.5356 73.8153 55.3766 73.5498 57.3258 73.2687C61.1907 72.7111 65.1875 72.1348 68.7276 70.0844C72.8312 67.7075 75.6403 63.7204 76.4346 59.1458C77.1165 55.2185 76.296 51.2849 74.2945 47.9491C75.2275 46.4247 75.7662 44.6339 75.7662 42.7195Z" fill="white"/>
</svg>
