<svg width="58" height="38" viewBox="0 0 58 38" fill="none" xmlns="http://www.w3.org/2000/svg">
<path d="M32.3788 37.8151H53.2144C53.8792 37.8151 54.5157 37.5815 55.0914 37.252C55.6673 36.9225 56.2608 36.5088 56.5931 35.938C56.9254 35.3673 57.1565 34.7197 57.1562 34.0608C57.156 33.4018 56.926 32.7545 56.5931 32.184L42.515 7.96952C42.1827 7.39883 41.7767 6.98498 41.2011 6.65548C40.6253 6.3261 39.801 6.09235 39.1363 6.09235C38.4715 6.09235 37.8348 6.3261 37.2592 6.65548C36.6835 6.98498 36.2775 7.39883 35.9452 7.96952L32.3788 14.1639L25.2458 2.15008C24.9132 1.57952 24.5078 0.978274 23.9319 0.648899C23.356 0.319391 22.7197 0.273438 22.0548 0.273438C21.39 0.273438 20.7535 0.319391 20.1777 0.648899C19.6019 0.978274 19.0087 1.57952 18.6761 2.15008L1.21917 32.184C0.886357 32.7545 0.844044 33.4018 0.843751 34.0608C0.843459 34.7197 0.886862 35.3671 1.21917 35.938C1.55148 36.5087 2.14504 36.9225 2.72083 37.252C3.29664 37.5815 3.93301 37.8151 4.59792 37.8151H17.7375C22.9439 37.8151 26.7334 35.4796 29.3755 31.0576L35.7575 19.9828L39.1363 14.1639L49.4602 31.8084H35.7575L32.3788 37.8151ZM17.5498 31.8084H8.35204L22.0548 8.15719L29 19.9828L24.3995 28.0026C22.6451 30.8717 20.6446 31.8084 17.5498 31.8084Z" fill="#00DC82"/>
</svg>
