<svg width="93" height="95" viewBox="0 0 93 95" fill="none" xmlns="http://www.w3.org/2000/svg">
<path d="M92.2036 56.8869C91.6513 55.2142 90.2044 54.049 88.333 53.7692C87.4507 53.6375 86.4402 53.6937 85.2445 53.9403C83.1604 54.3702 81.6141 54.5338 80.4857 54.5658C84.745 47.3741 88.2086 39.173 90.2025 31.4531C93.4265 18.9706 91.7036 13.284 89.6904 10.7116C84.3622 3.90355 76.5885 0.245938 67.2098 0.133818C62.2072 0.0727588 57.8149 1.06056 55.524 1.77073C53.3908 1.39458 51.0969 1.18438 48.69 1.14545C44.1791 1.07354 40.193 2.05688 36.787 4.07801C34.901 3.44061 31.8751 2.54173 28.3802 1.96795C20.1603 0.618465 13.5357 1.67009 8.69008 5.09326C2.82241 9.23808 0.102172 16.4393 0.605328 26.4971C0.764891 29.6905 2.55136 39.4062 5.36393 48.6206C6.98041 53.9167 8.70412 58.3149 10.4872 61.6938C13.0157 66.4851 15.7213 69.3068 18.7587 70.32C20.4614 70.8874 23.5546 71.2844 26.8082 68.5752C27.2205 69.0743 27.7704 69.5707 28.5008 70.0315C29.428 70.6163 30.562 71.0942 31.6942 71.3773C35.7754 72.3977 39.5981 72.1424 42.8594 70.7125C42.8794 71.2925 42.8949 71.8467 42.9081 72.3252C42.9298 73.1015 42.9511 73.8625 42.9796 74.5741C43.1728 79.387 43.5002 83.1291 44.4703 85.7472C44.5235 85.8914 44.5952 86.1108 44.671 86.3433C45.1548 87.8253 45.9643 90.306 48.0231 92.2491C50.1555 94.2615 52.7344 94.8789 55.0964 94.8787C56.281 94.8787 57.4113 94.7234 58.4026 94.5108C61.9366 93.7537 65.9499 92.5997 68.8531 88.4659C71.5978 84.5579 72.9322 78.6719 73.1736 69.3973C73.2049 69.1352 73.2339 68.8848 73.2617 68.646C73.2804 68.485 73.2996 68.3203 73.319 68.1561L73.9657 68.2129L74.1323 68.2242C77.7316 68.3882 82.1326 67.6248 84.8354 66.3694C86.9712 65.3782 93.815 61.7653 92.2036 56.8869Z" fill="black"/>
<path d="M86.0491 57.8357C75.3473 60.0432 74.6116 56.4199 74.6116 56.4199C85.9111 39.6534 90.6346 18.3708 86.5583 13.1621C75.4378 -1.04653 56.1876 5.67321 55.8664 5.84767L55.763 5.86618C53.6486 5.42727 51.2824 5.1658 48.623 5.1224C43.7806 5.04305 40.1075 6.39189 37.3202 8.50557C37.3202 8.50557 2.97986 -5.64131 4.57698 26.2979C4.91674 33.0928 14.3159 77.7107 25.5268 64.234C29.6244 59.3061 33.5835 55.1393 33.5835 55.1393C35.5499 56.4456 37.904 57.112 40.3719 56.8726L40.5636 56.7099C40.504 57.3217 40.5313 57.9202 40.6404 58.6287C37.7523 61.8554 38.601 62.422 32.8276 63.6104C26.9856 64.8144 30.4175 66.9579 32.6582 67.518C35.3746 68.1973 41.6591 69.1596 45.9054 63.2154L45.736 63.8936C46.8676 64.7999 47.6623 69.7891 47.5291 74.3118C47.3959 78.8347 47.307 81.9398 48.1986 84.3651C49.0902 86.7905 49.9789 92.2476 57.5686 90.6213C63.9105 89.2623 67.1968 85.7404 67.6541 79.8657C67.9785 75.6892 68.7127 76.3066 68.7591 72.5726L69.348 70.8048C70.0271 65.1433 69.4558 63.3168 73.363 64.1664L74.3125 64.2497C77.1883 64.3806 80.9521 63.7872 83.1611 62.7605C87.9177 60.553 90.7388 56.8673 86.0487 57.8357H86.0491Z" fill="#336791"/>
<path d="M39.3307 29.3367C38.3665 29.2024 37.493 29.3267 37.0511 29.6611C36.8024 29.8494 36.7256 30.0675 36.7049 30.2177C36.6494 30.6153 36.9281 31.0548 37.0992 31.2816C37.5834 31.9235 38.291 32.3648 38.9914 32.462C39.0929 32.476 39.1937 32.4828 39.2941 32.4828C40.4621 32.4828 41.5238 31.5735 41.6174 30.9023C41.7344 30.0617 40.514 29.5013 39.3307 29.3367Z" fill="white"/>
<path d="M71.2792 29.3633C71.1873 28.7044 70.0144 28.5165 68.9017 28.6712C67.7907 28.8261 66.7131 29.3275 66.8031 29.9879C66.8755 30.5015 67.8024 31.3782 68.9002 31.378C68.9928 31.378 69.0864 31.3718 69.1806 31.3587C69.9133 31.2572 70.4509 30.7919 70.7062 30.5236C71.0954 30.1151 71.3203 29.6594 71.2792 29.3633Z" fill="white"/>
<path d="M89.6107 57.5849C89.2027 56.3509 87.8893 55.9537 85.7072 56.4046C79.228 57.7417 76.9078 56.8154 76.1457 56.2544C81.1819 48.5821 85.3248 39.3085 87.5598 30.6557C88.6187 26.5571 89.2035 22.7507 89.2512 19.6484C89.3039 16.2427 88.7242 13.7405 87.5279 12.2119C82.705 6.04936 75.627 2.74385 67.0589 2.65301C61.1687 2.58684 56.192 4.09439 55.2272 4.51819C53.1954 4.01291 50.9804 3.70272 48.5693 3.66315C44.1473 3.59166 40.3252 4.65031 37.1605 6.80803C35.786 6.29658 32.2334 5.07709 27.8893 4.37735C20.3783 3.16786 14.41 4.08418 10.1507 7.10163C5.06854 10.7022 2.72232 17.1384 3.17697 26.2309C3.32994 29.2903 5.07279 38.7009 7.82366 47.7135C11.4445 59.5754 15.3802 66.2907 19.5216 67.6719C20.0062 67.8336 20.5653 67.9467 21.1815 67.9467C22.6922 67.9467 24.5442 67.2657 26.4713 64.9491C29.6721 61.0983 32.6606 57.8715 33.7623 56.699C35.3902 57.573 37.1784 58.0608 39.0079 58.1098C39.0111 58.1576 39.0159 58.2055 39.0202 58.2532C38.6532 58.6884 38.3522 59.0699 38.0956 59.3956C36.8282 61.0045 36.5644 61.3393 32.4847 62.1795C31.3244 62.4188 28.2418 63.0541 28.1969 65.2146C28.1478 67.5751 31.8401 68.5665 32.2609 68.6716C33.727 69.0386 35.1392 69.2196 36.4861 69.2196C39.7621 69.2194 42.6446 68.1429 44.9485 66.0598C44.8775 74.4752 45.2285 82.7676 46.2388 85.2942C47.0662 87.3624 49.088 92.4174 55.4742 92.4169C56.4109 92.4169 57.4425 92.308 58.5771 92.0648C65.2418 90.6358 68.1358 87.6902 69.2555 81.1962C69.8546 77.7256 70.8829 69.4377 71.3662 64.9923C72.3868 65.3105 73.7008 65.4563 75.1211 65.4561C78.0834 65.4561 81.5015 64.8267 83.6452 63.8317C86.0531 62.7135 90.3987 59.969 89.6107 57.5849ZM73.7393 27.5445C73.7171 28.8569 73.5365 30.0483 73.345 31.2921C73.1391 32.6296 72.9259 34.0125 72.8723 35.6913C72.8193 37.3251 73.0234 39.0237 73.2208 40.6661C73.6195 43.9837 74.0286 47.3994 72.4447 50.7699C72.1985 50.3326 71.9609 49.8557 71.743 49.3274C71.5462 48.8502 71.1188 48.0837 70.5271 47.0227C68.2243 42.8932 62.8319 33.2228 65.5924 29.2767C66.4145 28.1019 68.5011 26.8945 73.7393 27.5445ZM67.3901 5.31069C75.067 5.48026 81.1396 8.35218 85.4393 13.8463C88.7369 18.0604 85.1057 37.2357 74.5935 53.7782C74.4896 53.6462 74.3839 53.5131 74.2745 53.3765C74.2309 53.3218 74.1865 53.2663 74.1416 53.2101C76.858 48.7238 76.3267 44.2852 75.854 40.3497C75.6598 38.7347 75.4764 37.2093 75.523 35.7766C75.5713 34.2576 75.7721 32.9554 75.9661 31.6959C76.205 30.1436 76.4478 28.5378 76.3808 26.6445C76.4308 26.446 76.451 26.2114 76.4248 25.9329C76.2538 24.1173 74.1811 18.6842 69.9563 13.7661C67.6456 11.0765 64.2755 8.06624 59.6741 6.03596C61.6533 5.62578 64.3599 5.24325 67.3901 5.31069ZM24.4321 63.2534C22.309 65.806 20.8428 65.3169 20.3607 65.1563C17.219 64.1083 13.5739 57.4685 10.3601 46.9393C7.57921 37.8286 5.95401 28.6674 5.82551 26.0984C5.41936 17.9738 7.3888 12.3115 11.6794 9.26871C18.6618 4.31693 30.1419 7.28077 34.7548 8.78407C34.6884 8.84938 34.6194 8.91065 34.5537 8.97703C26.9842 16.6218 27.1638 29.683 27.1823 30.4813C27.1817 30.7893 27.2074 31.2255 27.2429 31.8254C27.3731 34.0221 27.6155 38.1107 26.9681 42.7411C26.3662 47.0437 27.6925 51.2551 30.6063 54.2953C30.908 54.61 31.2229 54.9055 31.5482 55.1836C30.251 56.5726 27.4323 59.6441 24.4321 63.2534ZM32.5211 52.4604C30.1725 50.0101 29.106 46.6016 29.5945 43.1083C30.2783 38.2169 30.0257 33.957 29.8902 31.6684C29.8713 31.3482 29.8545 31.0676 29.8445 30.8461C30.9503 29.8658 36.0749 27.1198 39.7293 27.9572C41.3973 28.3393 42.4132 29.4747 42.8357 31.4282C45.0223 41.5409 43.1252 45.7559 41.6009 49.1429C41.2866 49.8408 40.9899 50.5003 40.7363 51.1828L40.5399 51.7102C40.0425 53.0439 39.5797 54.2839 39.293 55.4614C36.7965 55.4538 34.3678 54.3875 32.5211 52.4604ZM32.9042 66.0988C32.1754 65.9167 31.5197 65.6003 31.135 65.338C31.4563 65.1867 32.0281 64.9812 33.0198 64.777C37.8192 63.7887 38.5602 63.0915 40.1788 61.0364C40.5501 60.5653 40.9707 60.0311 41.5532 59.3805L41.5539 59.3797C42.4217 58.4083 42.8184 58.5729 43.5382 58.8714C44.1216 59.1129 44.6896 59.8439 44.92 60.6485C45.0289 61.0285 45.1515 61.7499 44.7509 62.311C41.3696 67.0451 36.4427 66.9843 32.9042 66.0988ZM58.0212 89.4718C52.1499 90.7298 50.0711 87.7341 48.7012 84.3094C47.817 82.0983 47.3826 72.1281 47.6909 61.1181C47.6949 60.9715 47.6741 60.83 47.6336 60.697C47.5985 60.4402 47.5445 60.1805 47.4696 59.919C47.0109 58.317 45.8938 56.9769 44.5534 56.4214C44.0209 56.2007 43.0433 55.7959 41.8687 56.0963C42.1193 55.0642 42.5538 53.899 43.0246 52.637L43.2223 52.1059C43.4448 51.5075 43.7237 50.8875 44.019 50.2314C45.6142 46.6874 47.799 41.8335 45.4278 30.8676C44.5396 26.7605 41.5739 24.7549 37.0778 25.2206C34.3822 25.4995 31.9164 26.5871 30.6865 27.2107C30.4221 27.3447 30.1802 27.474 29.9542 27.6002C30.2974 23.4618 31.5946 15.728 36.4461 10.835C39.5006 7.75435 43.5688 6.23297 48.5255 6.31488C58.2918 6.47487 64.5546 11.4869 68.089 15.6634C71.1346 19.2625 72.7838 22.8878 73.442 24.8429C68.4924 24.3398 65.126 25.317 63.4193 27.7566C59.7068 33.0634 65.4505 43.364 68.2109 48.3143C68.7171 49.2217 69.1541 50.0057 69.2915 50.3388C70.1904 52.5174 71.3541 53.9718 72.2038 55.0336C72.4642 55.3589 72.717 55.6744 72.9091 55.9499C71.4101 56.3822 68.7173 57.3807 68.9626 62.372C68.7647 64.8767 67.3572 76.6027 66.6423 80.7456C65.6986 86.2189 63.6844 88.2577 58.0212 89.4718ZM82.5284 61.4263C80.9956 62.138 78.4302 62.6718 75.9931 62.7862C73.3014 62.9124 71.9313 62.4848 71.609 62.2218C71.4575 59.1114 72.6155 58.7863 73.8407 58.4423C74.0333 58.388 74.2211 58.3355 74.4024 58.2721C74.5152 58.3638 74.6386 58.4548 74.7737 58.544C76.9371 59.972 80.796 60.126 86.2435 59.0016C86.2635 58.9974 86.2835 58.9935 86.3033 58.9895C85.5686 59.6765 84.3113 60.5985 82.5284 61.4263Z" fill="white"/>
</svg>
