<svg width="82" height="94" viewBox="0 0 82 94" fill="none" xmlns="http://www.w3.org/2000/svg">
<g clip-path="url(#clip0_455_270)">
<path d="M3.66002 7.42105H78.34C80.3614 7.42105 82 9.06288 82 11.0882C82 13.1135 80.3614 14.7553 78.34 14.7553H3.66002C1.63865 14.7553 0 13.1135 0 11.0882C0 9.06288 1.63865 7.42105 3.66002 7.42105Z" fill="#696969"/>
<path d="M4.31104 0H19.3266V3.47184H4.31104V0Z" fill="#009FE3"/>
<path d="M23.9468 0H38.9621V3.47184H23.9468V0Z" fill="#C7D302"/>
<path d="M43.3223 0H58.3378V3.47184H43.3223V0Z" fill="#F07E16"/>
<path d="M62.6162 0H77.6317V3.47184H62.6162V0Z" fill="#DF2815"/>
<path d="M62.6162 18.5743H77.6317V44.0055H62.6162V18.5743Z" fill="#DF2815"/>
<path d="M43.3223 18.5743H58.3657V59.8892H43.3223V18.5743Z" fill="#F07E16"/>
<path d="M23.9468 18.5743H38.9613V80.4598H23.9468V18.5743Z" fill="#C7D302"/>
<path d="M4.31104 18.5743H19.3266V94H4.31104V18.5743Z" fill="#009FE3"/>
</g>
<defs>
<clipPath id="clip0_455_270">
<rect width="82" height="94" fill="white"/>
</clipPath>
</defs>
</svg>
