<svg width="101" height="101" viewBox="0 0 101 101" fill="none" xmlns="http://www.w3.org/2000/svg">
<g clip-path="url(#clip0_452_227)">
<path d="M0 50.5V101H50.5H101V50.5V0H50.5H0V50.5Z" fill="#007ACC"/>
<path d="M22.3347 50.835L22.3026 54.9712H28.8756L35.4486 54.9712V73.6482V92.3252H40.0978H44.747V73.6482L44.747 54.9712H51.3201H57.8931V50.9152C57.8931 48.6707 57.845 46.795 57.7808 46.7469C57.7327 46.6828 49.7329 46.6507 40.0337 46.6668L22.3827 46.7148L22.3347 50.835Z" fill="white"/>
<path d="M81.4971 46.5974C84.0622 47.2387 86.0181 48.3769 87.8136 50.2366C88.7435 51.2306 90.1222 53.0422 90.2344 53.475C90.2665 53.6033 85.8738 56.5531 83.2125 58.2044C83.1163 58.2685 82.7316 57.8517 82.2987 57.2104C81.0001 55.3187 79.6374 54.5011 77.5533 54.3568C74.4913 54.1484 72.5194 55.7515 72.5354 58.4288C72.5354 59.2144 72.6476 59.6793 72.9682 60.3206C73.6416 61.7154 74.892 62.549 78.8198 64.2484C86.0501 67.3585 89.1443 69.4106 91.0681 72.3284C93.2163 75.5828 93.6973 80.7771 92.2384 84.6407C90.6352 88.8411 86.6593 91.6947 81.0643 92.6406C79.3328 92.9452 75.2287 92.8971 73.369 92.5604C69.313 91.839 65.4654 89.835 63.0927 87.2058C62.1628 86.1798 60.3513 83.5025 60.4635 83.3101C60.5116 83.246 60.9284 82.9895 61.3933 82.7169C61.8422 82.4604 63.5416 81.4825 65.1447 80.5527L68.0465 78.8693L68.6557 79.7671C69.5054 81.0657 71.3651 82.8452 72.4873 83.4384C75.7097 85.1377 80.1344 84.8973 82.3147 82.9414C83.2446 82.0917 83.6293 81.21 83.6293 79.9114C83.6293 78.7411 83.4851 78.228 82.8759 77.3463C82.0903 76.2241 80.4871 75.2782 75.9341 73.3063C70.7238 71.0619 68.4794 69.6671 66.4273 67.4547C65.2409 66.1722 64.1187 64.1201 63.6538 62.4047C63.269 60.9779 63.1728 57.4028 63.4774 55.96C64.5516 50.926 68.3511 47.415 73.834 46.373C75.6135 46.0363 79.7497 46.1646 81.4971 46.5974Z" fill="white"/>
</g>
<defs>
<clipPath id="clip0_452_227">
<rect width="101" height="101" rx="5" fill="white"/>
</clipPath>
</defs>
</svg>
