<svg width="60" height="60" viewBox="0 0 60 60" fill="none" xmlns="http://www.w3.org/2000/svg">
<g clip-path="url(#clip0_453_255)">
<mask id="mask0_453_255" style="mask-type:luminance" maskUnits="userSpaceOnUse" x="0" y="0" width="60" height="60">
<path d="M60 0H0V60H60V0Z" fill="white"/>
</mask>
<g mask="url(#mask0_453_255)">
<g filter="url(#filter0_d_453_255)">
<path d="M43.9389 20.8197L30.7978 39.82C30.6585 40.0215 30.457 40.1724 30.2239 40.2498C29.9908 40.3273 29.7388 40.3265 29.5062 40.2487C29.2736 40.1705 29.073 40.0189 28.9349 39.8171C28.7969 39.6149 28.7288 39.3735 28.741 39.1295L29.267 28.6393L20.7764 26.8387C20.595 26.8003 20.4259 26.7178 20.2842 26.5987C20.1425 26.4797 20.0325 26.3276 19.964 26.156C19.8955 25.9844 19.8706 25.7986 19.8914 25.615C19.9123 25.4314 19.9783 25.2557 20.0836 25.1035L33.2249 6.10316C33.3642 5.9016 33.5657 5.75073 33.7988 5.67338C34.0319 5.59603 34.2839 5.59643 34.5165 5.67458C34.7492 5.75269 34.9497 5.90425 35.0878 6.10629C35.2259 6.30829 35.2939 6.54971 35.2816 6.79393L34.7557 17.2841L43.2461 19.0846C43.4276 19.1231 43.5967 19.2055 43.7385 19.3246C43.8803 19.4437 43.9901 19.5957 44.0585 19.7673C44.1272 19.9389 44.152 20.1248 44.1312 20.3083C44.1105 20.4919 44.0443 20.6675 43.9389 20.8197Z" fill="#FCC72B"/>
<path d="M30.1772 55.7611C29.8277 55.7615 29.4815 55.6931 29.1586 55.5593C28.8357 55.4255 28.5424 55.2291 28.2956 54.9818L15.8787 42.5658C15.382 42.0665 15.1036 41.3905 15.1045 40.6862C15.1054 39.9818 15.3857 39.3062 15.8838 38.8084C16.3818 38.3102 17.0571 38.0298 17.7615 38.0287C18.466 38.028 19.1421 38.3062 19.6415 38.8029L30.1772 49.3375L53.1294 26.3864C53.6297 25.8941 54.3043 25.6195 55.0061 25.6224C55.7083 25.6252 56.3806 25.9053 56.8766 26.4016C57.373 26.898 57.6534 27.5703 57.6563 28.2723C57.6588 28.9742 57.3843 29.6488 56.8919 30.1491L32.0583 54.9818C31.8116 55.2295 31.5184 55.4255 31.1955 55.5593C30.8727 55.6931 30.5266 55.7615 30.1772 55.7611Z" fill="#729B1B"/>
<path d="M30.1664 55.7611C30.5159 55.7615 30.8621 55.6931 31.185 55.5593C31.5079 55.4255 31.8012 55.2291 32.048 54.9818L44.4649 42.5658C44.9616 42.0665 45.2402 41.3905 45.2391 40.6862C45.2383 39.9818 44.958 39.3062 44.4598 38.8084C43.9616 38.3102 43.2863 38.0298 42.582 38.0287C41.8776 38.028 41.2016 38.3062 40.702 38.8029L30.1664 49.3375L7.2143 26.3864C6.71394 25.8941 6.03932 25.6195 5.33743 25.6224C4.6355 25.6252 3.96314 25.9053 3.46682 26.4016C2.97048 26.898 2.69038 27.5703 2.68752 28.2723C2.68466 28.9742 2.95928 29.6488 3.45156 30.1491L28.2852 54.9818C28.532 55.2295 28.8253 55.4255 29.1481 55.5593C29.4709 55.6931 29.817 55.7615 30.1664 55.7611Z" fill="#729B1B" fill-opacity="0.5"/>
</g>
</g>
</g>
<defs>
<filter id="filter0_d_453_255" x="-7.85795" y="-3.17221" width="83.09" height="78.2666" filterUnits="userSpaceOnUse" color-interpolation-filters="sRGB">
<feFlood flood-opacity="0" result="BackgroundImageFix"/>
<feColorMatrix in="SourceAlpha" type="matrix" values="0 0 0 0 0 0 0 0 0 0 0 0 0 0 0 0 0 0 127 0" result="hardAlpha"/>
<feOffset dx="3.51515" dy="5.27273"/>
<feGaussianBlur stdDeviation="7.0303"/>
<feComposite in2="hardAlpha" operator="out"/>
<feColorMatrix type="matrix" values="0 0 0 0 0.108333 0 0 0 0 0.108333 0 0 0 0 0.108333 0 0 0 0.2 0"/>
<feBlend mode="normal" in2="BackgroundImageFix" result="effect1_dropShadow_453_255"/>
<feBlend mode="normal" in="SourceGraphic" in2="effect1_dropShadow_453_255" result="shape"/>
</filter>
<clipPath id="clip0_453_255">
<rect width="60" height="60" fill="white"/>
</clipPath>
</defs>
</svg>
